<svg width="341" height="379" viewBox="0 0 341 379" fill="none" xmlns="http://www.w3.org/2000/svg">
<g filter="url(#filter0_dd_3_14308)">
<path d="M151.769 226.213C151.769 226.213 157.978 149.535 142.898 147.941C133.787 146.978 114.273 214.844 112.341 222.045C110.356 229.241 151.769 226.213 151.769 226.213Z" fill="#FCD375"/>
<path d="M151.771 226.689C151.986 226.659 152.159 226.518 152.187 226.257C152.417 223.107 158.29 149.092 142.896 147.465C138.759 147.028 132.746 158.241 124.418 181.746C118.19 199.442 112.805 218.18 111.828 221.885C111.645 222.606 111.782 223.309 112.25 223.887C113.467 225.391 117.134 226.255 121.69 226.736C133.256 228.012 150.759 226.741 151.771 226.689ZM113.05 223.337C112.769 222.99 112.651 222.607 112.806 222.147C118.162 202.19 135.313 147.563 142.906 148.365C156.834 149.837 151.861 219.875 151.394 225.75C141.413 226.493 116.331 227.333 113.05 223.337Z" fill="#FCD375"/>
<path d="M155.358 229.873L163.667 178.225L148.735 167.284C145.218 177.438 136.606 214.032 126.713 222.402C116.877 230.725 155.358 229.873 155.358 229.873Z" fill="#E8AE37"/>
<path d="M136.946 229.725C144.748 230.55 153.715 230.387 155.36 230.349C155.575 230.319 155.749 230.178 155.824 229.975L164.133 178.327C164.149 178.17 164.114 178.007 163.968 177.886L149.036 166.945C148.937 166.882 148.785 166.813 148.617 166.901C148.454 166.937 148.391 167.036 148.322 167.187C147.559 169.381 146.546 172.924 145.315 177.025C141.125 191.499 134.049 215.666 126.426 222.107C124.914 223.375 124.362 224.586 124.774 225.688C125.656 227.844 130.977 229.094 136.946 229.725ZM127.046 222.754C134.9 216.126 141.683 192.722 146.194 177.224C147.281 173.477 148.208 170.243 148.971 168.049L163.162 178.489L154.978 229.462C146.966 229.62 127.104 229.161 125.662 225.306C125.42 224.592 125.881 223.742 127.046 222.754Z" fill="#E8AE37"/>
<path d="M139.889 224.181C138.283 242.738 167.745 291.293 167.745 291.293L252.654 263.818L280.546 149.168C280.546 149.168 238.157 122.523 215.041 124.259C191.977 126 189.528 128.598 189.528 128.598C189.528 128.598 139.723 136.771 139.962 149.44C140.206 162.056 150.42 176.043 150.42 176.043C150.42 176.043 141.443 205.618 139.889 224.181Z" fill="#4461AB"/>
<path d="M139.418 224.131C138.744 231.942 143.269 245.645 152.815 264.905C159.924 279.199 167.309 291.406 167.35 291.516C167.444 291.632 167.543 291.695 167.7 291.712C167.753 291.717 167.805 291.723 167.863 291.676L252.772 264.201C252.935 264.165 253.056 264.019 253.073 263.862L280.965 149.212C280.987 149.003 280.951 148.84 280.753 148.713C280.654 148.65 269.979 141.967 256.625 135.583C238.632 127.016 224.654 123 214.992 123.724C194.329 125.297 190.122 127.497 189.317 128.1C185.975 128.646 139.257 136.669 139.49 149.39C139.714 161.21 148.691 174.379 149.943 176.046C149.165 178.873 140.918 206.568 139.418 224.131ZM150.933 176.203C151.002 176.052 150.961 175.942 150.867 175.826C150.773 175.71 140.705 161.844 140.485 149.495C140.237 137.407 189.147 129.193 189.682 129.143C189.787 129.154 189.85 129.055 189.908 129.009C190.024 128.915 192.933 126.472 215.09 124.793C217.066 124.631 219.126 124.69 221.325 124.923C243.582 127.275 276.664 147.329 280.041 149.432L252.315 263.518L167.958 290.786C165.437 286.606 138.871 241.689 140.361 224.23C141.887 205.929 150.847 176.511 150.933 176.203Z" fill="#4461AB"/>
<path d="M254.749 267.584C267.953 255.49 256.864 161.745 256.864 161.745C248.385 169.26 241.099 180.974 238.087 207.264C235.079 233.501 225.445 245.39 218.544 249.528C211.642 253.665 182.668 261.183 175.378 258.032C168.082 254.933 173.132 279.112 173.132 279.112C173.132 279.112 241.545 279.678 254.749 267.584Z" fill="#244698"/>
<path d="M173.082 279.583C173.134 279.589 173.134 279.589 173.082 279.583C173.291 279.605 190.437 279.725 209.012 278.355C233.993 276.499 249.459 273.002 255.03 267.931C260.607 262.807 262.68 243.348 261.189 210.129C260.056 185.464 257.319 161.952 257.294 161.685C257.259 161.522 257.171 161.354 257.014 161.338C256.862 161.269 256.699 161.305 256.525 161.445C249.448 167.732 240.868 178.675 237.615 207.214C234.279 236.538 222.966 246.292 218.269 249.128C211.478 253.224 182.619 260.648 175.528 257.624C174.414 257.136 173.455 257.194 172.702 257.802C168.988 260.848 172.263 277.328 172.644 279.22C172.726 279.44 172.925 279.567 173.082 279.583ZM173.316 258.501C173.605 258.267 173.989 258.149 174.408 258.194C174.67 258.221 174.926 258.301 175.229 258.439C182.676 261.607 211.697 254.147 218.772 249.869C223.58 246.992 235.183 237.003 238.564 207.261C241.693 179.873 249.692 168.922 256.502 162.659C257.605 172.192 266.671 256.095 254.416 267.231C241.977 278.612 178.899 278.664 173.496 278.675C172.46 273.487 170.587 260.752 173.316 258.501Z" fill="#244698"/>
<path d="M171.644 304.109L185.384 318.849L256.217 308.342L171.644 304.109Z" fill="#191446"/>
<path d="M185.339 319.268C185.391 319.273 185.391 319.273 185.444 319.279L256.219 308.818C256.434 308.788 256.613 308.595 256.589 308.328C256.559 308.113 256.366 307.934 256.157 307.912L171.589 303.627C171.379 303.605 171.211 303.693 171.136 303.897C171.067 304.048 171.097 304.263 171.191 304.379L184.931 319.119C185.129 319.246 185.234 319.257 185.339 319.268ZM251.581 308.593L185.538 318.389L172.699 304.644L251.581 308.593Z" fill="#191446"/>
<path d="M185.386 318.847L180.419 325.202L255.431 315.72L256.217 308.341L185.386 318.847Z" fill="#C0C3D6"/>
<path d="M180.479 325.632L255.439 316.144C255.654 316.114 255.828 315.974 255.85 315.764L256.636 308.385C256.653 308.228 256.612 308.118 256.518 308.002C256.424 307.887 256.267 307.87 256.162 307.859L185.39 318.318C185.279 318.359 185.169 318.401 185.105 318.5L180.138 324.855C180.016 325.001 179.994 325.21 180.082 325.378C180.176 325.494 180.269 325.609 180.426 325.626L180.479 325.632ZM185.662 319.247L255.684 308.867L254.998 315.304L181.492 324.574L185.662 319.247Z" fill="#C0C3D6"/>
<path d="M208.453 309.54C217.54 301.296 194.234 259.581 185.499 264.53C185.499 264.53 182.097 262.16 181.541 273.845C180.879 285.519 199.366 317.784 208.453 309.54Z" fill="#283A84"/>
<path d="M201.886 310.539C202.795 310.952 203.663 311.255 204.501 311.344C206.072 311.51 207.5 311.026 208.728 309.939C214.879 304.4 207.007 284.842 198.648 273.326C193.34 265.993 188.561 262.632 185.439 264.1C185.083 263.957 184.513 263.844 183.95 264.155C182.273 264.982 181.288 268.264 181.006 273.894C180.51 283.522 192.309 305.982 201.886 310.539ZM184.349 264.885C184.569 264.802 184.732 264.766 184.889 264.783C185.099 264.805 185.198 264.868 185.25 264.874C185.396 264.995 185.559 264.959 185.727 264.871C188.32 263.4 192.895 266.687 197.97 273.73C206.967 286.213 213.396 304.402 208.178 309.14C206.597 310.56 204.62 310.722 202.3 309.63C193.178 305.281 181.513 283.047 181.965 273.837C182.276 266.94 183.618 265.283 184.349 264.885Z" fill="#283A84"/>
<path d="M200.196 307.447C202.023 288.33 189.535 272.356 186.284 268.574C176.362 269.748 166.733 275.133 166.733 275.133C166.733 275.133 165.455 308.963 179.96 310.495C187.024 311.294 194.471 309.488 200.196 307.447Z" fill="#F9C09D"/>
<path d="M200.361 307.888C200.524 307.852 200.651 307.654 200.668 307.497C202.495 288.379 190.403 272.659 186.632 268.293C186.538 268.177 186.387 268.108 186.224 268.144C176.302 269.318 166.62 274.698 166.51 274.739C166.394 274.832 166.273 274.978 166.256 275.135C166.21 276.559 165.143 309.407 179.91 310.966C185.874 311.649 192.767 310.578 200.361 307.888ZM167.176 275.444C168.638 274.646 177.266 270.214 186.071 269.08C189.93 273.614 201.339 288.786 199.753 307.136C192.385 309.691 185.76 310.737 179.999 310.129C166.757 308.678 167.109 278.558 167.176 275.444Z" fill="#F9C09D"/>
<path d="M210.427 302.925C210.427 302.925 208.343 272.815 196.127 269.197C193.046 268.29 189.667 268.197 186.285 268.634C189.535 272.415 202.028 288.336 200.196 307.505C206.199 305.335 210.427 302.925 210.427 302.925Z" fill="#E68262"/>
<path d="M199.73 307.403C199.713 307.56 199.801 307.728 199.9 307.791C199.947 307.849 200.052 307.86 200.157 307.871C200.209 307.877 200.314 307.888 200.372 307.841C206.369 305.724 210.598 303.313 210.656 303.267C210.824 303.178 210.893 303.027 210.857 302.865C210.776 301.639 208.649 272.424 196.229 268.731C193.353 267.898 189.985 267.702 186.178 268.146C186.015 268.182 185.847 268.27 185.83 268.427C185.761 268.578 185.797 268.741 185.885 268.909C189.608 273.217 201.518 288.652 199.73 307.403ZM195.977 269.604C207.111 272.949 209.674 299.565 209.926 302.66C208.969 303.194 205.436 305.043 200.698 306.765C202.083 288.818 191.38 273.986 187.152 268.937C190.518 268.657 193.462 268.862 195.977 269.604Z" fill="#E68262"/>
<path d="M197.648 258.436C197.648 258.436 224.061 281.911 221.92 309.456C221.92 309.456 292.264 313.77 304.62 285.77C316.977 257.77 296.242 140.736 276.176 149.142C264.591 154.001 247.496 164.837 243.181 187.445C238.814 210.047 244.383 242.269 244.383 242.269C244.383 242.269 193.987 249.056 197.648 258.436Z" fill="#FCD375"/>
<path d="M197.513 255.724C196.936 256.668 196.888 257.615 197.259 258.606C197.306 258.664 197.352 258.722 197.399 258.78C197.446 258.838 204.074 264.722 210.299 273.897C216.02 282.331 222.628 295.354 221.554 309.418C221.543 309.522 221.578 309.685 221.677 309.748C221.771 309.864 221.876 309.875 221.98 309.886C222.138 309.902 239.822 310.925 258.77 308.537C284.321 305.313 299.906 297.703 305.133 285.93C310.082 274.762 310.1 247.257 305.227 215.955C300.354 184.653 292.094 159.288 284.165 151.203C281.442 148.429 278.675 147.555 276.069 148.654C263.265 154.019 247.044 165.106 242.773 187.296C238.741 208.24 243.222 237.755 243.904 241.795C239.005 242.547 202.1 247.956 197.513 255.724ZM244.438 242.751C244.548 242.709 244.658 242.668 244.722 242.569C244.785 242.47 244.797 242.365 244.813 242.208C244.742 241.883 239.318 209.783 243.594 187.541C247.82 165.77 263.705 154.859 276.341 149.582C278.616 148.606 281.016 149.442 283.453 151.921C300.468 169.166 314.819 261.615 304.212 285.621C292.627 311.851 228.497 309.358 222.442 309.035C223.37 294.851 216.756 281.879 210.988 273.388C205.08 264.723 198.865 258.935 198.042 258.213C197.795 257.552 197.914 256.93 198.306 256.231C202.899 248.411 244.013 242.759 244.438 242.751Z" fill="#FCD375"/>
<path d="M185.067 159.831C201.02 160.723 224.759 124.823 224.759 124.823C227.504 120.934 196.481 118.819 188.606 126.61C180.732 134.402 169.114 158.938 185.067 159.831Z" fill="#191446"/>
<path d="M184.283 160.224C184.545 160.251 184.754 160.274 185.016 160.301C191.754 160.696 200.585 154.857 211.227 142.968C219.039 134.27 224.971 125.322 225.156 125.077C225.589 124.488 225.452 123.785 224.821 123.243C221.224 120.217 195.725 118.951 188.273 126.258C185.193 129.318 181.71 134.664 179.449 139.98C176.71 146.303 175.967 151.78 177.286 155.305C178.353 158.222 180.722 159.847 184.283 160.224ZM188.887 126.958C193.918 121.987 208.032 121.257 216.883 122.192C220.497 122.574 223.286 123.239 224.208 124.024C224.6 124.33 224.478 124.476 224.409 124.628C224.16 124.972 200.587 160.307 185.111 159.412C181.475 159.239 179.2 157.729 178.158 155.08C175.39 147.751 182.79 132.979 188.887 126.958Z" fill="#191446"/>
<path d="M112.666 52.1121C110.335 60.0686 127.731 64.8165 127.731 64.8165C122.781 70.0091 122.731 72.9673 124.675 74.6015C128.311 73.2919 132.849 68.4792 134.374 66.1001C134.518 65.7448 134.661 65.3896 134.858 65.0399C134.835 65.2492 134.634 65.6512 134.374 66.1001C132.488 70.8754 137.877 71.4975 137.877 71.4975C137.877 71.4975 139.266 73.8669 140.564 76.5971C153.773 78.8917 220.211 90.142 224.591 86.3181C229.44 82.0674 236.756 52.199 232.959 48.5698C229.161 44.9406 226.16 52.7205 226.16 52.7205C226.16 52.7205 223.165 23.1919 213.483 20.1056C203.802 17.0192 202.666 25.6841 202.666 25.6841C202.666 25.6841 172.392 9.57421 162.049 13.1918C151.706 16.8093 156.978 24.9866 156.978 24.9866C156.978 24.9866 134.448 24.6712 124.032 31.4562C113.61 38.2937 127.594 44.745 127.594 44.745C127.594 44.745 114.998 44.1557 112.666 52.1121Z" fill="#504566"/>
<path d="M112.258 51.9633C111.835 53.4532 111.993 54.9516 112.843 56.4173C115.558 61.2552 124.349 64.2475 126.964 65.0529C124.261 68.0486 123.004 70.4031 123.112 72.3725C123.163 73.3834 123.597 74.276 124.421 74.998C124.567 75.1192 124.724 75.1359 124.887 75.1002C127.918 73.9915 131.509 70.6134 133.58 68.0802C133.566 68.7137 133.766 69.317 134.082 69.8267C135.026 71.4081 136.989 71.8799 137.664 72.0042C138.021 72.6241 139.182 74.6519 140.269 76.8834C140.31 76.9936 140.456 77.1148 140.613 77.1314C148.047 78.4457 167.402 81.7071 185.929 84.2988C193.6 85.3735 199.717 86.1254 204.641 86.6453C222.92 88.5758 224.385 87.2488 224.965 86.7808C229.055 83.1909 234.318 63.637 234.496 54.0242C234.546 51.066 234.16 49.2259 233.295 48.3937C232.331 47.4981 231.364 47.1314 230.33 47.3926C228.593 47.7912 227.211 49.8151 226.421 51.2663C225.66 44.9942 222.22 22.6159 213.616 19.8551C210.388 18.8263 207.725 18.9684 205.683 20.2345C203.468 21.6411 202.629 24.0398 202.349 25.1745C198.082 22.9774 171.706 9.55475 161.92 12.9136C158.51 14.0883 156.361 15.8722 155.575 18.2765C154.661 20.879 155.656 23.4713 156.214 24.6945C152.084 24.6817 133.187 25.0673 123.786 31.2716C120.939 33.1406 119.558 35.1646 119.748 37.3544C119.984 40.6074 123.573 43.2092 125.766 44.4992C122.055 44.5306 114.103 45.5959 112.258 51.9633ZM127.48 45.3152C127.689 45.3373 127.916 45.2025 127.938 44.9932C128.013 44.7894 127.878 44.5634 127.674 44.4889C127.621 44.4834 120.813 41.2771 120.556 37.228C120.432 35.4156 121.628 33.6368 124.185 32.0018C134.375 25.3516 156.649 25.5871 156.911 25.6147C157.068 25.6313 157.236 25.5433 157.305 25.3918C157.374 25.2403 157.391 25.0833 157.303 24.9153C157.309 24.8629 155.264 21.6835 156.338 18.5687C157.038 16.4729 159.008 14.8818 162.145 13.7841C172.209 10.2959 202.092 26.0998 202.395 26.2377C202.547 26.3066 202.704 26.3232 202.819 26.2296C202.935 26.136 203.051 26.0424 203.068 25.8854C203.074 25.833 203.577 22.6052 206.135 20.9702C207.95 19.8389 210.346 19.7215 213.317 20.6703C222.591 23.6077 225.647 52.5605 225.666 52.88C225.696 53.0949 225.837 53.2685 226.046 53.2906C226.256 53.3128 226.482 53.1779 226.551 53.0264C226.994 51.856 228.608 48.6396 230.503 48.2575C231.206 48.1201 231.922 48.3545 232.641 49.0655C233.026 49.4237 233.648 50.5478 233.542 54.0293C233.314 64.1131 227.856 83.0114 224.293 86.1278C221.02 89.0103 177.365 82.6534 140.906 76.3686C139.649 73.7486 138.307 71.4371 138.255 71.4315C138.161 71.3158 138.062 71.2524 137.905 71.2358C137.905 71.2358 135.606 70.9401 134.756 69.4744C134.31 68.6865 134.311 67.6812 134.701 66.5052C135.025 65.9572 135.226 65.5552 135.26 65.2412C135.282 65.0319 135.147 64.8059 134.943 64.7314C134.74 64.6569 134.519 64.7395 134.392 64.9377C134.196 65.2875 133.994 65.6896 133.908 65.998C132.568 68.1321 128.262 72.7577 124.72 74.1829C124.194 73.6511 123.935 73.0945 123.903 72.4031C123.825 70.6485 125.199 68.2005 128.059 65.2215C128.175 65.1279 128.197 64.9185 128.156 64.8083C128.12 64.6458 127.974 64.5246 127.817 64.508C127.712 64.4969 116.448 61.3492 113.563 56.1229C112.847 54.8831 112.719 53.5995 113.063 52.3657C115.308 44.7177 127.375 45.3041 127.48 45.3152Z" fill="#504566"/>
<path d="M134.852 65.0666C134.65 65.4684 134.455 65.8179 134.369 66.1262C134.68 65.6831 134.824 65.328 134.852 65.0666Z" fill="#191446"/>
<path d="M134.318 66.5973C134.476 66.6139 134.644 66.5259 134.765 66.38C135.088 65.8322 135.29 65.4303 135.323 65.1165C135.346 64.9072 135.211 64.6814 135.007 64.607C134.803 64.5325 134.583 64.615 134.456 64.8132C134.26 65.1628 134.058 65.5647 133.914 65.9198C133.84 66.1235 133.916 66.3961 134.12 66.4706C134.214 66.5863 134.266 66.5918 134.318 66.5973Z" fill="#191446"/>
<path d="M124.672 74.6239C128.17 77.5862 138.319 76.2767 138.319 76.2767C138.319 76.2767 139.152 76.4176 140.607 76.6771C139.309 73.9471 137.92 71.5779 137.92 71.5779C137.92 71.5779 132.537 70.9036 134.417 66.1809C132.846 68.5021 128.313 73.2621 124.672 74.6239Z" fill="#191446"/>
<path d="M134.573 65.7211C134.374 65.5943 134.101 65.6714 133.974 65.8696C132.576 68.0503 128.09 72.8681 124.508 74.1831C124.345 74.2188 124.223 74.3647 124.207 74.5217C124.19 74.6787 124.226 74.8412 124.372 74.9625C125.68 76.106 127.846 76.6523 130.098 76.8901C133.764 77.2773 137.677 76.8438 138.269 76.7477L140.505 77.1425C140.662 77.1591 140.825 77.1233 140.946 76.9774C141.068 76.8315 141.084 76.6746 140.996 76.5065C139.699 73.7766 138.257 71.4019 138.263 71.3495C138.169 71.2338 138.07 71.1704 137.913 71.1538C137.913 71.1538 135.614 70.8582 134.764 69.3926C134.318 68.6047 134.319 67.5993 134.768 66.3767C134.853 66.0682 134.771 65.8479 134.573 65.7211ZM137.614 71.9688C137.93 72.4785 138.863 74.1645 139.825 76.0653L138.422 75.8113C138.37 75.8058 138.318 75.8003 138.265 75.7947C138.16 75.7837 129.406 76.9228 125.621 74.671C128.517 73.3365 131.65 70.2808 133.536 67.9928C133.521 68.6263 133.722 69.2295 134.038 69.7392C134.924 71.3673 136.939 71.8446 137.614 71.9688Z" fill="#191446"/>
<path d="M225.711 81.9116C222.737 71.0686 209.513 71.4181 207.076 77.8803C204.639 84.3425 202.589 81.216 202.589 81.216C200.546 73.0638 190.153 60.2735 190.153 60.2735C163.976 71.8477 165.331 57.6524 165.331 57.6524C153.225 76.3209 137.017 71.3818 137.017 71.3818C137.017 71.3818 146.773 111.988 160.398 124.273C174.022 136.558 184.749 126.845 184.749 126.845C184.749 126.845 184.931 127.128 185.206 127.528C187.204 125.675 191.622 121.486 193.031 119.201C194.647 116.462 191.344 128.07 187.5 133.326C187.856 134.95 187.887 136.647 187.342 138.282C185.632 143.393 183.257 149.279 192.352 146.43C201.447 143.581 216.434 126.698 212.926 121.354C209.365 116.005 210.106 101.11 210.106 101.11C220.324 102.136 228.633 92.7491 225.711 81.9116Z" fill="#F9C09D"/>
<path d="M223.113 96.3458C226.497 92.4175 227.595 87.0839 226.152 81.7464C224.437 75.4807 219.512 73.003 215.504 72.8443C211.391 72.6746 207.852 74.5759 206.674 77.679C205.484 80.8867 204.475 81.4151 203.992 81.4699C203.51 81.5248 203.182 81.1198 203.042 80.9463C200.946 72.7886 190.986 60.4142 190.564 59.8936C190.424 59.72 190.215 59.6978 190.046 59.7859C176.76 65.6844 170.876 64.7457 168.268 62.8831C165.613 60.9625 165.86 57.6552 165.86 57.6552C165.882 57.4459 165.742 57.2724 165.538 57.1979C165.334 57.1235 165.113 57.2061 164.992 57.352C158.847 66.8087 151.62 70.0138 146.646 70.97C141.236 72.0389 137.23 70.8751 137.23 70.8751C137.078 70.8062 136.91 70.8943 136.794 70.9879C136.678 71.0814 136.603 71.2853 136.639 71.4478C137.042 73.1305 146.577 112.338 160.155 124.565C172.424 135.649 182.549 129.099 184.734 127.478C184.781 127.536 184.822 127.646 184.863 127.756C184.957 127.872 185.056 127.935 185.208 128.004C185.313 128.015 185.475 127.979 185.591 127.886C187.642 126.039 191.006 122.796 192.787 120.498C191.998 123.43 189.746 129.647 187.261 133.088C187.197 133.188 187.18 133.345 187.169 133.449C187.561 135.237 187.498 136.817 187.039 138.144L186.81 138.808C185.73 141.974 184.64 145.246 186.171 146.783C186.598 147.251 187.209 147.474 188.047 147.563C189.199 147.684 190.71 147.421 192.679 146.835C199.747 144.618 210.876 133.625 213.518 126.232C214.281 124.037 214.308 122.294 213.483 121.096C210.432 116.435 210.626 104.181 210.69 101.595C215.373 101.878 220.023 99.9878 223.113 96.3458ZM210.215 100.592C210.11 100.581 209.947 100.617 209.884 100.716C209.768 100.81 209.757 100.914 209.745 101.019C209.731 101.652 209.092 116.082 212.641 121.536C213.28 122.503 213.228 123.979 212.551 125.865C209.978 133.106 199.202 143.767 192.297 145.948C189.393 146.858 187.532 146.926 186.773 146.106C185.627 144.926 186.701 141.812 187.631 139.053L187.86 138.39C188.336 136.906 188.405 135.273 188.076 133.386C191.255 128.907 194.37 119.554 193.889 118.604C193.801 118.436 193.655 118.314 193.446 118.292C193.079 118.253 192.883 118.603 192.692 118.9C191.405 121.04 187.398 124.849 185.394 126.754C185.306 126.586 185.259 126.528 185.259 126.528C185.166 126.412 185.014 126.343 184.909 126.332C184.805 126.321 184.642 126.357 184.579 126.456C184.167 126.836 174.006 135.71 160.809 123.893C148.44 112.746 139.121 77.4768 137.746 71.9879C139.196 72.2997 142.531 72.8106 146.808 71.9394C151.782 70.9832 158.834 67.9185 165.023 59.0483C165.203 60.3372 165.84 62.3092 167.708 63.6703C171.693 66.525 179.208 65.5726 190.04 60.8434C191.531 62.7469 200.335 74.0468 202.154 81.3286C202.148 81.3809 202.195 81.4388 202.195 81.4388C202.242 81.4966 202.927 82.5213 204.049 82.4282C205.281 82.2938 206.438 80.8816 207.484 78.0291C208.518 75.2812 211.715 73.6083 215.403 73.7861C219.144 73.9694 223.667 76.2459 225.223 82.0186C226.595 87.0311 225.53 92.0509 222.377 95.792C219.352 99.3349 214.928 101.09 210.215 100.592Z" fill="#F9C09D"/>
<path d="M193.101 119.151C191.745 121.442 187.27 125.677 185.278 127.477C185.905 128.548 187.048 130.732 187.577 133.221C191.414 128.019 194.716 116.413 193.101 119.151Z" fill="#E68262"/>
<path d="M187.474 133.686C187.526 133.692 187.526 133.692 187.474 133.686C187.683 133.708 187.852 133.62 187.915 133.521C191.134 129.153 194.329 119.546 193.848 118.596C193.76 118.428 193.614 118.306 193.405 118.284C193.038 118.246 192.842 118.595 192.651 118.892C191.295 121.183 186.82 125.418 184.944 127.124C184.77 127.264 184.742 127.526 184.883 127.699C185.51 128.771 186.659 130.902 187.141 133.334C187.171 133.548 187.317 133.67 187.474 133.686ZM192.751 120.437C192.043 123.113 190.021 128.665 187.793 132.186C187.255 130.278 186.428 128.603 185.847 127.59C187.903 125.691 191.087 122.642 192.751 120.437Z" fill="#E68262"/>
<path d="M197.551 232.286C201.312 234.27 225.457 237.298 226.389 234.011C227.322 230.724 228.412 198.622 228.412 198.622C218.07 203.243 200.306 197.98 200.306 197.98C200.151 200.926 193.791 230.301 197.551 232.286Z" fill="#E46790"/>
<path d="M197.35 232.688C199.152 233.671 205.019 234.768 210.989 235.399C217.117 236.046 223.352 236.176 225.68 235.205C226.289 234.952 226.7 234.573 226.803 234.108C227.736 230.82 228.802 199.933 228.837 198.615C228.854 198.458 228.766 198.289 228.614 198.221C228.463 198.152 228.306 198.135 228.195 198.176C218.131 202.667 200.613 197.589 200.409 197.514C200.257 197.446 200.147 197.487 200.031 197.58C199.915 197.674 199.852 197.773 199.835 197.93C199.821 198.563 199.441 200.639 198.947 203.285C196.013 220.379 194.697 231.243 197.35 232.688ZM199.878 203.489C200.275 201.256 200.564 199.541 200.716 198.605C203.698 199.449 218.401 203.119 227.91 199.363C227.723 204.104 226.76 231.035 225.924 233.909C225.855 234.06 225.675 234.253 225.292 234.371C220.968 236.189 201.211 233.73 197.701 231.878C195.147 230.497 198.491 211.542 199.878 203.489Z" fill="#E46790"/>
<path d="M225.907 307.315C228.383 304.456 230.586 289.241 224.289 278.26C218.049 267.231 214.499 261.778 201.686 259.26C196.138 258.144 184.335 261.552 183.614 265.338C183.614 265.338 194.864 268.114 201.582 282.102C208.301 296.091 206.96 306.689 205.705 309.518C204.45 312.348 223.43 310.175 225.907 307.315Z" fill="#2893D0"/>
<path d="M205.75 310.581C206.147 310.835 206.817 311.011 207.707 311.106C212.682 311.631 224.249 309.944 226.245 307.616C228.969 304.412 230.887 288.903 224.683 278.037C218.355 266.841 214.701 261.376 201.783 258.846C197.422 258.015 189.561 259.724 185.566 262.423C184.197 263.336 183.405 264.311 183.189 265.346C183.161 265.607 183.296 265.833 183.505 265.855C183.61 265.867 194.639 268.725 201.182 282.378C207.554 295.642 206.684 306.289 205.297 309.37C205.095 309.771 205.254 310.264 205.75 310.581ZM201.976 281.88C195.992 269.45 186.378 265.736 184.176 265.027C184.453 264.421 185.054 263.744 186.023 263.106C189.786 260.594 197.438 258.863 201.588 259.672C214.14 262.163 217.701 267.512 223.899 278.43C230.098 289.348 227.748 304.442 225.567 307.015C223.456 309.437 208.382 311.23 206.253 309.841C206.101 309.772 206.107 309.72 206.165 309.673C207.287 307.094 209.047 296.54 201.976 281.88Z" fill="#2893D0"/>
<path d="M180.379 325.185L163.802 219.875L34.4915 213.152L33.3358 213.559L51.2881 303.985L179.526 325.73L180.379 325.185Z" fill="#C0C3D6"/>
<path d="M51.1909 304.398L179.429 326.143C179.429 326.143 179.429 326.143 179.481 326.149C179.586 326.16 179.696 326.118 179.754 326.072L180.659 325.532C180.827 325.444 180.902 325.24 180.866 325.078L164.289 219.768C164.259 219.554 164.113 219.432 163.851 219.405L34.5416 212.681C34.4892 212.676 34.4368 212.67 34.3789 212.717L33.2231 213.124C33.0025 213.206 32.8754 213.405 32.9055 213.619L50.8578 304.046C50.8878 304.261 51.0337 304.382 51.1909 304.398ZM34.5459 213.634L163.384 220.308L179.877 324.92L179.366 325.237L51.6467 303.6L33.8315 213.876L34.5459 213.634Z" fill="#C0C3D6"/>
<path d="M187.977 320.487L173.159 214.57L40.3804 211.079L34.4918 213.156L163.801 219.879L180.378 325.188L187.977 320.487Z" fill="#9FA3B5"/>
<path d="M34.4415 213.627L163.384 220.311L179.895 325.243C179.931 325.405 180.025 325.521 180.176 325.59C180.229 325.595 180.281 325.601 180.333 325.606C180.438 325.617 180.549 325.576 180.606 325.529L188.205 320.829C188.373 320.74 188.448 320.537 188.412 320.374L173.595 214.457C173.565 214.243 173.372 214.064 173.157 214.094L40.3781 210.602C40.3257 210.597 40.2733 210.591 40.2153 210.638L34.3268 212.715C34.1061 212.797 33.9791 212.996 34.0091 213.21C34.0915 213.431 34.1796 213.599 34.4415 213.627ZM40.4348 211.561L172.795 215.008L187.527 320.228L180.776 324.436L164.284 219.824C164.253 219.609 164.107 219.488 163.898 219.466L36.8519 212.876L40.4348 211.561Z" fill="#9FA3B5"/>
<path d="M176.307 100.665C177.354 100.776 178.371 100.672 179.417 100.306C184.643 98.4779 186.694 90.6539 183.982 82.8026C182.686 79.0683 180.536 75.8786 177.892 73.8535C175.155 71.7127 172.156 71.0255 169.572 71.9162C166.988 72.8069 165.04 75.1932 164.253 78.6014C163.43 81.8472 163.71 85.6854 165.007 89.4197C167.136 95.7811 171.803 100.189 176.307 100.665ZM165.953 79.0456C166.621 76.2596 168.095 74.3523 170.127 73.6677C170.894 73.4314 171.649 73.2996 172.487 73.3882C173.901 73.5376 175.317 74.1633 176.736 75.2654C179.082 77.1004 181.05 80.0063 182.223 83.4101C184.616 90.2755 183.042 97.092 178.751 98.5958C174.46 100.1 168.996 95.7133 166.603 88.8479C165.483 85.4497 165.222 81.9308 165.953 79.0456Z" fill="#191446"/>
<path d="M153.241 109.804C154.288 109.915 155.311 109.758 156.199 109.376C158.422 108.394 159.847 105.952 160.152 102.599C160.44 99.4019 159.725 95.676 158.15 92.0709C156.575 88.4659 154.247 85.4689 151.703 83.5073C148.955 81.4712 146.26 80.9221 143.985 81.8987C139.481 83.9096 138.62 91.4898 142.033 99.204C144.771 105.313 149.209 109.379 153.241 109.804ZM144.713 83.5099C145.322 83.2568 146.025 83.1195 146.759 83.1969C147.963 83.324 149.227 83.8808 150.599 84.925C152.904 86.6497 155.039 89.4674 156.49 92.742C157.941 96.0166 158.632 99.4754 158.377 102.358C158.139 105.084 157.095 106.931 155.482 107.66C152.034 109.201 146.607 104.977 143.705 98.4282C140.802 91.879 141.266 85.0504 144.713 83.5099Z" fill="#191446"/>
<path d="M162.054 101.217C163.155 100.328 164.429 99.2985 164.572 97.462C164.76 95.207 163.229 92.1886 159.656 87.9495C159.329 87.5446 158.747 87.5361 158.394 87.8692C157.989 88.1966 157.98 88.7776 158.313 89.1302C161.464 92.8486 162.971 95.6 162.844 97.2795C162.727 98.3781 161.916 99.0331 160.989 99.7816C160.12 100.483 159.193 101.232 158.751 102.402C158.452 103.217 158.578 104.024 159.034 104.707C160.14 106.252 163.092 106.881 165.291 107.113C166.39 107.229 167.338 107.276 167.71 107.263C168.187 107.26 168.598 106.88 168.654 106.357C168.652 105.881 168.324 105.476 167.748 105.415C165.213 105.359 161.297 104.84 160.524 103.647C160.436 103.479 160.348 103.311 160.492 102.956C160.664 102.339 161.306 101.773 162.054 101.217Z" fill="#62392C"/>
<path d="M165.223 87.8503C165.706 87.7955 166.07 87.3577 166.016 86.8757C165.961 86.3938 165.523 86.0301 165.041 86.085C160.814 86.4853 158.05 87.5692 156.703 89.2789C155.783 90.4517 155.939 91.4736 155.928 91.5782C155.988 92.0079 156.327 92.3083 156.693 92.347C156.746 92.3525 156.85 92.3636 156.903 92.3691C157.385 92.3142 157.75 91.8765 157.695 91.3945C157.764 91.243 157.63 88.5301 165.223 87.8503Z" fill="#191446"/>
<path d="M181.59 79.9148C181.695 79.9259 181.747 79.9314 181.858 79.8901C182.021 79.8543 198.645 76.9521 206.307 78.1324C206.825 78.2401 207.289 77.8655 207.339 77.3942C207.395 76.8707 207.073 76.4131 206.601 76.3632C198.684 75.1029 182.268 78.0274 181.565 78.1648C181.077 78.2721 180.765 78.7156 180.819 79.1978C180.885 79.5754 181.224 79.8761 181.59 79.9148Z" fill="#191446"/>
<path d="M153.061 98.0943C152.562 98.3062 150.518 96.6091 148.768 94.1494C148.493 93.75 147.923 93.6368 147.523 93.912C147.123 94.1872 147.009 94.7572 147.284 95.1566C148.063 96.2969 150.619 99.6354 152.766 99.8621C153.08 99.8953 153.4 99.8761 153.679 99.7468C155.339 99.0756 155.786 96.3718 154.988 90.9441C154.934 90.4622 154.444 90.0929 153.961 90.1478C153.479 90.2027 153.109 90.6927 153.163 91.1746C154.175 97.5772 153.061 98.0943 153.061 98.0943Z" fill="#62392C"/>
<path d="M175.573 90.6422C174.534 90.9557 171.833 87.9722 170.075 85.0883C169.806 84.6366 169.235 84.5234 168.835 84.7986C168.383 85.0683 168.269 85.6383 168.544 86.0377C169.493 87.5665 172.498 92.1692 175.221 92.4568C175.535 92.49 175.855 92.4708 176.128 92.3938C178.155 91.7613 178.897 88.771 178.596 82.6549C178.594 82.1785 178.162 81.7625 177.627 81.8119C177.15 81.8144 176.733 82.2466 176.782 82.7808C177.076 89.9544 175.736 90.6065 175.573 90.6422Z" fill="#62392C"/>
<path d="M170.812 117.006C171.598 117.089 172.4 117.015 173.178 116.674C174.733 115.992 175.651 114.342 175.971 111.836C176.027 111.313 175.699 110.908 175.181 110.8C174.768 110.704 174.252 111.073 174.143 111.59C173.896 113.416 173.349 114.575 172.402 115.005C171.009 115.651 168.847 114.576 168.153 114.133C167.756 113.879 167.163 113.975 166.909 114.372C166.655 114.768 166.75 115.36 167.147 115.614C167.194 115.672 168.874 116.802 170.812 117.006Z" fill="#62392C"/>
<path d="M215.381 79.5195C214.926 79.3128 214.375 79.519 214.167 79.9733L210.494 88.1031C210.361 88.3536 210.38 88.6731 210.515 88.8989C210.65 89.1248 210.895 89.3093 211.209 89.3425L217.859 90.0448C218.383 90.1001 218.794 89.7203 218.844 89.2494C218.894 88.7786 218.52 88.3159 218.049 88.2661L212.603 87.691L215.729 80.7202C216.047 80.2247 215.835 79.7262 215.381 79.5195Z" fill="#62392C"/>
<path d="M142.023 79.8439C142.337 79.8771 142.616 79.7479 142.801 79.5028C142.859 79.456 144.253 77.8039 147.644 77.7916C148.121 77.7891 148.538 77.3569 148.536 76.8804C148.534 76.4039 148.102 75.9878 147.625 75.9904C143.332 76.0133 141.446 78.3013 141.383 78.4005C141.076 78.7914 141.125 79.3257 141.511 79.684C141.662 79.7529 141.814 79.8218 142.023 79.8439Z" fill="#62392C"/>
<path d="M162.099 71.3934C162.466 71.4321 162.855 71.2616 162.999 70.9064C163.004 70.854 164.463 68.0977 168.524 68.262C169.001 68.2594 169.465 67.885 169.462 67.4086C169.46 66.9321 169.191 66.4804 168.609 66.4719C163.391 66.2383 161.511 69.9556 161.39 70.1015C161.182 70.5558 161.336 71.1012 161.791 71.3079C161.89 71.3713 161.995 71.3823 162.099 71.3934Z" fill="#62392C"/>
</g>
<defs>
<filter id="filter0_dd_3_14308" x="0.900879" y="0.377075" width="339.962" height="377.773" filterUnits="userSpaceOnUse" color-interpolation-filters="sRGB">
<feFlood flood-opacity="0" result="BackgroundImageFix"/>
<feColorMatrix in="SourceAlpha" type="matrix" values="0 0 0 0 0 0 0 0 0 0 0 0 0 0 0 0 0 0 127 0" result="hardAlpha"/>
<feMorphology radius="8" operator="erode" in="SourceAlpha" result="effect1_dropShadow_3_14308"/>
<feOffset dy="20"/>
<feGaussianBlur stdDeviation="20"/>
<feColorMatrix type="matrix" values="0 0 0 0 0.0627451 0 0 0 0 0.0941176 0 0 0 0 0.156863 0 0 0 0.1 0"/>
<feBlend mode="normal" in2="BackgroundImageFix" result="effect1_dropShadow_3_14308"/>
<feColorMatrix in="SourceAlpha" type="matrix" values="0 0 0 0 0 0 0 0 0 0 0 0 0 0 0 0 0 0 127 0" result="hardAlpha"/>
<feMorphology radius="8" operator="erode" in="SourceAlpha" result="effect2_dropShadow_3_14308"/>
<feOffset dy="20"/>
<feGaussianBlur stdDeviation="20"/>
<feColorMatrix type="matrix" values="0 0 0 0 0.0627451 0 0 0 0 0.0941176 0 0 0 0 0.156863 0 0 0 0.05 0"/>
<feBlend mode="normal" in2="effect1_dropShadow_3_14308" result="effect2_dropShadow_3_14308"/>
<feBlend mode="normal" in="SourceGraphic" in2="effect2_dropShadow_3_14308" result="shape"/>
</filter>
</defs>
</svg>
