<svg width="245" height="431" viewBox="0 0 245 431" fill="none" xmlns="http://www.w3.org/2000/svg">
<g filter="url(#filter0_dd_3_13338)">
<path d="M135.952 145.398C135.952 145.398 145.207 119.067 140.323 117.084C135.438 115.138 113.184 119.031 107.271 118.737C101.359 118.443 94.6747 110.107 88.248 109.372C81.8213 108.638 67.7927 114.881 66.691 116.386C65.5893 117.929 66.8379 121.528 66.691 124.833C66.3972 131.37 135.952 145.398 135.952 145.398Z" fill="#F9C09D"/>
<path d="M135.879 145.692C135.916 145.692 135.916 145.692 135.952 145.692C136.099 145.692 136.209 145.619 136.246 145.472C137.201 142.754 145.464 118.774 140.433 116.79C137.348 115.542 127.726 116.57 119.206 117.488C114.212 118.039 109.474 118.516 107.271 118.406C104.407 118.259 101.322 116.129 98.09 113.926C94.8583 111.723 91.5531 109.446 88.2847 109.078C81.9314 108.381 67.7559 114.44 66.4339 116.24C65.6627 117.268 65.883 118.994 66.1401 121.014C66.287 122.262 66.4338 123.584 66.3971 124.833C66.0666 131.407 128.754 144.26 135.879 145.692ZM66.948 116.607C67.9395 115.248 80.4257 109.666 87.1462 109.666C87.5134 109.666 87.8807 109.703 88.2479 109.739C91.3695 110.07 94.6011 112.31 97.7594 114.477C101.101 116.754 104.223 118.92 107.271 119.067C109.548 119.177 114.065 118.7 119.316 118.149C127.322 117.305 137.274 116.203 140.212 117.415C143.958 118.92 138.34 137.613 135.732 145.068C107.895 139.449 66.8011 129.46 66.9847 124.906C67.0582 123.584 66.8745 122.262 66.7276 120.977C66.544 119.104 66.3604 117.415 66.948 116.607Z" fill="#F9C09D"/>
<path d="M82.9601 131.664C86.3754 128.285 95.0422 129.203 95.0422 129.203C95.0422 129.203 92.8755 117.635 92.0676 115.983C91.2596 114.367 75.652 116.717 75.1378 118.627C74.6237 120.573 79.5447 135.042 82.9601 131.664Z" fill="#CE5041"/>
<path d="M81.8581 132.472C82.3355 132.472 82.7762 132.251 83.1801 131.884C86.4486 128.652 94.9318 129.497 95.0052 129.497C95.1154 129.497 95.1889 129.46 95.2624 129.387C95.3358 129.313 95.3725 129.203 95.3358 129.13C95.2624 128.652 93.1691 117.488 92.3245 115.836C91.9572 115.101 89.8639 114.918 86.0814 115.322C82.5926 115.689 75.2477 116.937 74.807 118.553C74.3296 120.426 77.6715 130.378 80.7931 132.178C81.1603 132.398 81.4909 132.472 81.8581 132.472ZM75.4314 118.737C75.6518 117.966 80.4626 116.57 86.1548 115.946C87.5136 115.799 88.5786 115.762 89.3865 115.762C90.9289 115.762 91.6634 115.946 91.7368 116.129C92.3611 117.341 93.8301 124.76 94.6013 128.836C92.8019 128.689 85.7875 128.359 82.7027 131.443C82.2253 131.921 81.7112 131.994 81.0869 131.627C78.2224 129.938 75.0642 120.169 75.4314 118.737Z" fill="#CE5041"/>
<path d="M138.891 152.927C141.021 149.659 137.275 128.102 137.275 128.102C137.275 128.102 123.797 137.319 109.218 132.802C94.6382 128.285 136.761 156.159 138.891 152.927Z" fill="#E68262"/>
<path d="M130.518 150.466C135.145 152.927 137.238 153.515 138.23 153.515C138.891 153.515 139.038 153.257 139.148 153.111C141.314 149.805 137.715 128.946 137.569 128.065C137.532 127.955 137.495 127.881 137.385 127.844C137.275 127.808 137.165 127.808 137.091 127.881C136.944 127.955 123.54 136.952 109.291 132.545C107.161 131.884 106.133 131.884 105.876 132.508C105.729 132.876 105.251 134.051 114.212 140.404C119.427 144.003 125.67 147.896 130.518 150.466ZM106.463 132.655C106.463 132.655 106.537 132.582 106.831 132.582C107.198 132.582 107.859 132.655 109.107 133.059C122.255 137.136 134.667 130.048 137.054 128.579C138.34 136.144 140.249 150.283 138.634 152.707C138.56 152.78 137.862 153.478 131.803 150.356C127.102 147.932 120.565 143.93 115.13 140.11C107.675 134.932 106.353 132.986 106.463 132.655Z" fill="#E68262"/>
<path d="M76.6069 124.833L75.5786 121.418C75.5786 121.418 71.7226 123.438 70.7678 124.796C69.8129 126.229 76.6069 124.833 76.6069 124.833Z" fill="#CE5041"/>
<path d="M72.0162 125.751C73.375 125.751 75.3581 125.421 76.6802 125.127C76.7536 125.127 76.8271 125.053 76.9006 124.98C76.974 124.907 76.9739 124.796 76.9372 124.723L75.9089 121.308C75.8722 121.234 75.7988 121.161 75.7253 121.124C75.6519 121.087 75.5417 121.087 75.4683 121.124C75.3214 121.197 71.5021 123.181 70.5473 124.613C70.3269 124.943 70.4004 125.2 70.4738 125.311C70.6207 125.641 71.2083 125.751 72.0162 125.751ZM75.3948 121.895L76.2027 124.576C73.8524 125.017 71.2818 125.274 71.0247 124.98C71.7592 123.952 74.44 122.446 75.3948 121.895Z" fill="#CE5041"/>
<path d="M86.9625 116.607C86.9625 116.607 88.0643 113.118 89.0191 112.053C88.1745 112.787 86.4116 114.807 85.8241 117.415C85.0896 120.683 86.9625 116.607 86.9625 116.607Z" fill="#CE5041"/>
<path d="M89.3863 111.796C89.2761 111.833 89.1292 111.943 89.019 112.053C89.1659 111.943 89.3128 111.833 89.3863 111.796Z" fill="#CE5041"/>
<path d="M85.7508 119.031C85.9711 119.031 86.3384 118.737 87.2565 116.754V116.717C87.8808 114.771 88.652 113.008 89.1662 112.347C89.3131 112.237 89.4232 112.127 89.4966 112.09C89.6068 112.09 89.717 112.016 89.7904 111.906C89.8272 111.796 89.8272 111.649 89.717 111.576C89.6436 111.502 89.4599 111.465 89.3498 111.465C89.3131 111.465 89.2763 111.502 89.2396 111.502C89.1294 111.539 88.9825 111.649 88.8723 111.759C87.9175 112.53 86.1181 114.697 85.4938 117.341C85.2734 118.37 85.2367 118.847 85.6039 118.957C85.6407 119.031 85.6774 119.031 85.7508 119.031ZM86.118 117.525C86.3751 116.46 86.8158 115.505 87.2932 114.697C87.0361 115.395 86.8158 116.019 86.6689 116.497C86.4853 116.864 86.3017 117.268 86.118 117.635C86.118 117.598 86.118 117.562 86.118 117.525Z" fill="#CE5041"/>
<path d="M82.0784 101.623C80.3523 110.584 78.1489 128.762 78.1489 128.762L83.5107 130.305C83.5107 130.305 86.522 112.42 87.7339 103.349C85.3836 102.064 83.4372 101.66 82.0784 101.623Z" fill="#191446"/>
<path d="M83.4373 130.635C83.474 130.635 83.5108 130.635 83.5108 130.635C83.5843 130.635 83.621 130.635 83.6944 130.599C83.7679 130.562 83.8413 130.489 83.8413 130.378C83.878 130.195 86.8894 112.384 88.0646 103.423C88.0646 103.276 88.0279 103.166 87.9177 103.092C85.4205 101.697 83.3639 101.33 82.1153 101.293C81.9317 101.256 81.8214 101.403 81.7847 101.55C80.0587 110.4 77.892 128.542 77.8553 128.726C77.8185 128.873 77.9287 129.02 78.0756 129.056L83.4373 130.635ZM82.3356 101.954C83.5107 102.027 85.2735 102.395 87.4035 103.57C86.3018 111.869 83.6944 127.404 83.2537 129.938L78.4796 128.542C78.7733 126.302 80.7564 110.29 82.3356 101.954Z" fill="#191446"/>
<path d="M88.1743 98.2815C87.55 97.4736 85.567 96.3351 83.5104 96.7758C83.1432 96.8493 82.629 98.759 82.0781 101.623C83.4369 101.697 85.3833 102.064 87.7337 103.386C88.1376 100.485 88.3212 98.4651 88.1743 98.2815Z" fill="#E46790"/>
<path d="M87.5869 103.68C87.6236 103.717 87.6971 103.717 87.7338 103.717C87.7706 103.717 87.844 103.717 87.8807 103.68C87.9909 103.643 88.0276 103.533 88.0643 103.423C88.7254 98.4284 88.5785 98.2448 88.4316 98.0612C87.6971 97.1064 85.5671 95.9679 83.4371 96.4453C83.1433 96.5188 82.7026 96.5922 81.7478 101.55C81.7111 101.623 81.7478 101.734 81.8212 101.807C81.8947 101.881 81.9682 101.917 82.0416 101.917C83.2535 101.991 85.1998 102.321 87.5869 103.68ZM83.584 97.0697C85.5671 96.629 87.3666 97.7307 87.9175 98.3917C87.9542 98.5754 87.9542 99.3833 87.5135 102.872C85.4202 101.77 83.6575 101.403 82.4823 101.293C83.18 97.694 83.5473 97.1431 83.584 97.0697Z" fill="#E46790"/>
<path d="M89.4598 125.714C92.1039 126.412 97.6125 131.407 101.395 131.627C105.141 131.847 105.141 118.443 105.141 118.443C105.141 118.443 93.4627 110.621 90.8186 111.319C88.1744 112.016 87.4766 115.983 87.4766 115.983C86.5585 118.223 73.8521 122.373 72.8238 126.045C71.7955 129.717 81.7844 130.709 81.7844 130.709C81.7844 130.709 86.8157 125.017 89.4598 125.714Z" fill="#F9C09D"/>
<path d="M81.7111 131.039C81.8213 131.039 81.9314 131.003 81.9682 130.929C83.3637 129.387 87.3667 125.457 89.3865 126.008C90.378 126.265 91.9204 127.257 93.5362 128.285C96.1069 129.938 99.0081 131.774 101.358 131.921C101.395 131.921 101.432 131.921 101.469 131.921C101.946 131.921 102.423 131.737 102.827 131.333C105.435 128.873 105.435 118.847 105.435 118.406C105.435 118.296 105.398 118.186 105.288 118.149C104.076 117.341 93.3893 110.254 90.7085 110.988C88.0276 111.723 87.2197 115.432 87.1463 115.872C86.7423 116.717 84.0615 118.113 81.4908 119.435C77.5613 121.454 73.1177 123.731 72.5301 125.935C72.3465 126.596 72.4567 127.183 72.8239 127.771C74.5132 130.305 81.4173 131.039 81.7111 131.039ZM73.1177 126.155C73.6686 124.209 78.1489 121.895 81.7845 120.022C85.2366 118.259 87.3666 117.121 87.7706 116.093C87.7706 116.056 87.7706 116.056 87.8073 116.019C87.8073 115.983 88.5051 112.237 90.9289 111.576C92.9487 111.062 101.542 116.35 104.884 118.553C104.884 119.875 104.7 128.726 102.497 130.856C102.203 131.15 101.873 131.296 101.505 131.26C99.3387 131.15 96.4742 129.313 93.977 127.734C92.2509 126.633 90.7452 125.678 89.6435 125.384C89.4599 125.347 89.2763 125.31 89.0927 125.31C86.4485 125.31 82.4456 129.57 81.7111 130.378C80.6828 130.268 74.807 129.46 73.4115 127.404C73.0443 127.036 72.9708 126.596 73.1177 126.155Z" fill="#F9C09D"/>
<path d="M155.784 101.036C155.784 101.036 147.705 77.0551 144.142 79.8461C144.142 79.8461 140.25 91.0102 142.306 101.036C144.363 111.062 155.784 101.036 155.784 101.036Z" fill="#FCD375"/>
<path d="M145.244 105.59C145.721 105.737 146.236 105.81 146.75 105.81C150.789 105.81 155.784 101.477 156.004 101.256C156.114 101.183 156.151 101.036 156.078 100.926C155.784 100.081 149.173 80.5439 145.207 79.332C144.767 79.1851 144.326 79.2585 143.959 79.5523C143.922 79.5891 143.885 79.6258 143.848 79.6992C143.812 79.8094 139.956 91.047 142.012 101.073C142.526 103.533 143.591 105.039 145.244 105.59ZM144.436 80.0298C144.62 79.9196 144.803 79.8829 145.024 79.9563C148.035 80.8744 153.47 95.1968 155.416 100.926C154.425 101.77 148.953 106.141 145.428 104.965C144.032 104.488 143.077 103.129 142.637 100.962C140.69 91.5978 144.069 81.1315 144.436 80.0298Z" fill="#FCD375"/>
<path d="M120.381 46.1335C129.122 41.0656 158.207 59.5378 158.207 59.5378C158.207 59.5378 161.476 59.3541 162.467 51.0178C163.496 42.6814 160.631 11.5762 144.987 12.3841C129.342 13.192 118.141 29.8647 113.037 33.1332C107.969 36.4016 98.2002 38.8254 99.0081 44.334C99.8528 49.8059 111.641 51.2014 120.381 46.1335Z" fill="#191446"/>
<path d="M102.093 48.3001C106.133 50.2465 113.992 50.2465 120.565 46.3905C129.048 41.4695 157.767 59.6112 158.06 59.7948C158.097 59.8315 158.171 59.8315 158.244 59.8315C158.244 59.8315 158.244 59.8315 158.281 59.8315C158.428 59.8315 161.806 59.5377 162.835 51.0177C163.642 44.5543 162.21 24.6131 154.131 15.9463C151.523 13.1553 148.439 11.8332 144.987 12.0168C133.308 12.6411 124.127 21.8956 118.068 28.0652C115.901 30.2686 114.212 31.9947 112.89 32.8026C111.531 33.684 109.805 34.4919 108.006 35.3366C103.121 37.6502 98.09 40.074 98.7143 44.2972C98.9714 45.9865 100.11 47.3453 102.093 48.3001ZM108.299 35.9609C110.099 35.0795 111.825 34.2716 113.257 33.3902C114.616 32.5088 116.342 30.7828 118.545 28.5426C124.531 22.4831 133.602 13.2654 145.06 12.6778C148.328 12.5309 151.23 13.7796 153.69 16.4237C161.512 24.7968 162.981 44.7746 162.21 50.981C161.329 58.1055 158.832 59.097 158.317 59.2072C156.408 57.9953 135.475 44.9215 124.421 44.9215C122.805 44.9215 121.373 45.2153 120.271 45.8396C113.881 49.5488 106.279 49.5855 102.387 47.7126C100.624 46.8679 99.5957 45.656 99.3754 44.2238C98.7878 40.4779 103.635 38.201 108.299 35.9609Z" fill="#191446"/>
<path d="M73.8526 190.753C73.8526 190.753 70.7677 193.507 70.8779 199.493C71.0248 205.479 87.367 206.874 87.367 206.874C87.367 206.874 76.6803 187.264 73.8526 190.753Z" fill="#191446"/>
<path d="M87.367 207.168C87.4772 207.168 87.5873 207.132 87.6241 207.021C87.6975 206.911 87.6975 206.801 87.6241 206.691C87.2568 206.03 78.6633 190.349 74.8073 189.982C74.3299 189.945 73.926 190.092 73.5955 190.496C73.3017 190.753 70.4005 193.58 70.5474 199.456C70.731 205.663 86.6692 207.132 87.367 207.168ZM71.2084 199.456C71.0615 193.727 74.0361 190.973 74.0728 190.973L74.1096 190.936C74.2565 190.753 74.4769 190.643 74.6972 190.643C74.7339 190.643 74.7706 190.643 74.7706 190.643C77.5984 190.9 84.1353 201.696 86.7794 206.471C83.8782 206.177 71.3186 204.487 71.2084 199.456Z" fill="#191446"/>
<path d="M136.099 257.664C136.136 257.701 141.02 266.367 147.41 276.063C148.769 273.933 150.091 271.105 151.009 267.249C146.015 263.87 140.763 260.455 136.099 257.664Z" fill="#FABA89"/>
<path d="M147.41 276.393C147.52 276.393 147.631 276.356 147.667 276.246C149.246 273.786 150.495 270.811 151.303 267.322C151.34 267.212 151.266 267.065 151.156 266.992C145.427 263.099 140.433 259.867 136.246 257.407C136.136 257.333 135.952 257.37 135.879 257.443C135.769 257.554 135.769 257.701 135.842 257.811C136.063 258.178 140.91 266.735 147.153 276.246C147.19 276.32 147.3 276.393 147.41 276.393ZM150.642 267.396C149.871 270.517 148.769 273.235 147.41 275.475C142.526 267.947 138.486 261.116 137.017 258.545C140.873 260.932 145.464 263.907 150.642 267.396Z" fill="#FABA89"/>
<path d="M88.9455 207.425C88.6885 200.154 78.2956 192.589 78.2956 192.589C78.2956 192.589 43.9219 200.521 46.1621 222.482C47.8881 239.412 71.6118 259.463 92.2507 273.455C92.9852 272.133 93.0954 270.187 91.6632 267.249C87.5868 258.876 74.8436 233.095 80.8296 229.056C86.1178 225.457 106.389 269.379 108.189 283.518C108.519 283.701 108.887 283.922 109.217 284.105C113.477 286.566 117.554 289.32 121.336 292.148L130.37 287.337C124.458 274.41 119.867 261.52 122.805 257.664C124.421 255.571 126.147 254.138 127.873 253.184C125.963 252.302 124.348 251.715 123.209 251.568C114.065 250.356 120.161 200.301 120.161 200.301L83.4369 193.544C90.1574 196.959 98.1633 206.875 98.1633 206.875C98.1633 206.875 89.2026 214.66 88.9455 207.425Z" fill="#FABA89"/>
<path d="M90.4514 210.033C89.7169 209.702 89.3129 208.821 89.2395 207.389C88.9457 200.044 78.8833 192.626 78.4793 192.295C78.4059 192.258 78.2957 192.222 78.2223 192.258C77.8917 192.332 43.5915 200.521 45.8317 222.482C47.7413 241.065 75.6148 262.548 92.0672 273.712C92.1407 273.749 92.2142 273.786 92.3243 273.749C92.3978 273.712 92.4712 273.676 92.5446 273.602C93.4627 271.986 93.2792 269.783 91.9571 267.102L91.6265 266.404C87.6236 258.178 75.4313 233.096 81.0133 229.276C81.3071 229.056 81.7111 229.056 82.1885 229.276C88.7988 232.251 106.243 270.701 107.895 283.481C107.895 283.591 107.969 283.664 108.042 283.701L109.07 284.289C113 286.566 117.076 289.247 121.189 292.331C121.263 292.368 121.3 292.405 121.373 292.405C121.41 292.405 121.483 292.405 121.52 292.368L130.554 287.557C130.701 287.484 130.774 287.3 130.701 287.153C123.356 271.068 120.712 260.932 123.099 257.811C124.531 255.938 126.184 254.469 128.057 253.441C128.167 253.367 128.24 253.257 128.204 253.147C128.204 253.037 128.13 252.926 128.02 252.853C125.964 251.898 124.384 251.347 123.283 251.2C120.785 250.87 117.958 246.133 118.582 225.457C118.949 212.971 120.455 200.448 120.492 200.301C120.528 200.117 120.418 199.97 120.235 199.934L83.5106 193.176C83.3637 193.14 83.2168 193.25 83.1433 193.397C83.1066 193.544 83.1433 193.691 83.2902 193.764C89.2762 196.812 96.4374 205.259 97.686 206.764C96.1436 208.16 92.3243 210.841 90.4514 210.033ZM98.3838 207.095C98.5307 206.985 98.5307 206.801 98.4205 206.654C98.1267 206.287 91.5164 198.134 85.2366 194.168L119.831 200.558C119.28 205.112 114.102 250.65 123.173 251.861C124.127 251.972 125.449 252.449 127.175 253.22C125.449 254.285 123.907 255.681 122.548 257.48C119.977 260.822 122.475 270.848 129.93 287.227L121.336 291.817C117.297 288.806 113.257 286.125 109.327 283.848L108.409 283.334C106.61 269.93 89.2762 231.884 82.3721 228.762C81.6743 228.432 81.0868 228.468 80.5727 228.799C77.9285 230.598 78.3324 236.254 81.8947 246.022C84.7224 253.808 88.7988 262.181 91.0022 266.698L91.3327 267.396C92.4712 269.709 92.6915 271.582 92.104 273.015C75.725 261.887 48.3289 240.697 46.456 222.446C44.3627 201.733 75.7985 193.507 78.2223 192.919C79.3607 193.764 88.3581 200.815 88.6152 207.425C88.6886 209.115 89.2028 210.18 90.1943 210.62C92.9119 211.796 98.1635 207.279 98.3838 207.095Z" fill="#FABA89"/>
<path d="M171.648 281.865C171.648 281.865 165.185 277.054 156.849 271.288C156.114 273.418 154.241 278.56 152.001 282.93C156.518 289.393 161.329 295.563 165.405 299.272C168.49 294.461 170.914 288.659 171.648 281.865Z" fill="#C0C3D6"/>
<path d="M165.221 299.492C165.295 299.529 165.368 299.566 165.442 299.566H165.479C165.589 299.566 165.662 299.492 165.699 299.419C169.188 293.91 171.318 288.035 171.979 281.902C171.979 281.791 171.942 281.681 171.868 281.608C171.795 281.571 165.295 276.724 157.069 271.031C156.995 270.958 156.885 270.958 156.775 270.995C156.665 271.031 156.591 271.105 156.591 271.178C155.894 273.198 154.021 278.376 151.78 282.783C151.744 282.893 151.744 283.003 151.817 283.114C157.069 290.715 161.623 296.224 165.221 299.492ZM157.032 271.766C164.414 276.907 170.326 281.277 171.318 282.012C170.657 287.851 168.674 293.506 165.368 298.758C161.88 295.526 157.509 290.201 152.405 282.893C154.461 278.743 156.224 274.006 157.032 271.766Z" fill="#C0C3D6"/>
<path d="M151.009 267.249C150.091 271.105 148.769 273.933 147.41 276.063C148.108 277.091 148.806 278.156 149.503 279.221C151.266 276.283 153.176 272.574 153.947 269.232C152.955 268.571 152.001 267.91 151.009 267.249Z" fill="#C0C3D6"/>
<path d="M149.504 279.551C149.614 279.551 149.724 279.478 149.761 279.405C152.074 275.512 153.58 272.133 154.241 269.342C154.278 269.232 154.204 269.085 154.131 269.012C153.176 268.351 152.184 267.69 151.193 267.028C151.119 266.955 151.009 266.955 150.899 266.992C150.789 267.029 150.716 267.102 150.716 267.212C149.908 270.627 148.696 273.529 147.153 275.916C147.08 276.026 147.08 276.173 147.153 276.246C147.851 277.275 148.549 278.34 149.247 279.405C149.283 279.478 149.393 279.551 149.504 279.551ZM151.193 267.763C152.001 268.314 152.772 268.828 153.543 269.379C152.919 271.986 151.523 275.071 149.467 278.633C148.879 277.789 148.328 276.907 147.778 276.063C149.247 273.749 150.385 270.958 151.193 267.763Z" fill="#C0C3D6"/>
<path d="M130.37 287.337L121.336 292.148C130.371 298.905 137.752 306.176 142.306 310.95C139.037 304.964 134.41 296.151 130.37 287.337Z" fill="#C0C3D6"/>
<path d="M142.085 311.171C142.159 311.244 142.232 311.281 142.306 311.281C142.379 311.281 142.453 311.244 142.489 311.207C142.636 311.097 142.673 310.95 142.599 310.803C139.404 304.928 134.741 296.04 130.701 287.19C130.664 287.116 130.591 287.043 130.517 287.006C130.444 286.97 130.334 286.97 130.26 287.043L121.226 291.854C121.116 291.891 121.079 292.001 121.042 292.111C121.042 292.221 121.079 292.331 121.153 292.405C130.113 299.162 137.495 306.323 142.085 311.171ZM121.924 292.221L130.223 287.777C133.786 295.563 137.825 303.348 140.91 309.077C136.356 304.377 129.783 298.134 121.924 292.221Z" fill="#C0C3D6"/>
<path d="M147.41 276.063C141.057 266.331 136.136 257.701 136.099 257.664C133.051 255.828 130.223 254.285 127.873 253.184C126.147 254.138 124.421 255.571 122.805 257.664C119.867 261.557 124.458 274.41 130.37 287.337L140.616 281.865C140.616 281.865 144.215 280.984 147.41 276.063Z" fill="#F9AE82"/>
<path d="M130.297 287.631C130.334 287.631 130.37 287.631 130.407 287.631C130.444 287.631 130.517 287.631 130.554 287.594L140.726 282.159C140.873 282.122 144.436 281.167 147.667 276.209C147.741 276.099 147.741 275.952 147.667 275.879C141.461 266.367 136.577 257.847 136.393 257.48C136.356 257.444 136.32 257.407 136.283 257.37C133.014 255.424 130.223 253.918 128.057 252.89C127.983 252.853 127.873 252.853 127.763 252.89C125.817 253.955 124.09 255.497 122.622 257.444C120.051 260.822 122.585 270.921 130.15 287.447C130.15 287.557 130.187 287.594 130.297 287.631ZM123.099 257.847C124.494 256.011 126.11 254.579 127.91 253.551C130.04 254.542 132.721 256.011 135.879 257.884C136.393 258.766 141.094 266.955 147.043 276.063C143.995 280.653 140.616 281.535 140.506 281.571L130.554 286.896C123.283 270.995 120.712 260.969 123.099 257.847Z" fill="#F9AE82"/>
<path d="M149.504 279.221C148.806 278.156 148.108 277.091 147.41 276.063C144.215 280.947 140.653 281.865 140.653 281.865L130.407 287.337C134.447 296.151 139.074 304.964 142.343 310.987C145.501 314.329 147.264 316.459 147.264 316.459C147.264 316.459 158.171 310.693 165.442 299.272C161.366 295.6 156.555 289.43 152.038 282.93C150.752 285.464 149.32 287.778 147.925 289.1C143.408 293.36 146.052 284.472 146.052 284.472C146.052 284.472 147.668 282.269 149.504 279.221Z" fill="#9FA3B5"/>
<path d="M149.761 279.404C149.834 279.294 149.834 279.184 149.761 279.074C149.063 278.009 148.365 276.944 147.667 275.916C147.594 275.842 147.521 275.769 147.41 275.769C147.3 275.769 147.19 275.806 147.153 275.916C144.068 280.653 140.616 281.571 140.506 281.608L130.26 287.08C130.113 287.153 130.04 287.337 130.113 287.484C134.153 296.371 138.854 305.258 142.049 311.134C142.049 311.171 142.085 311.171 142.085 311.207C145.207 314.476 146.97 316.643 147.006 316.679C147.08 316.753 147.153 316.79 147.263 316.79C147.3 316.79 147.374 316.79 147.41 316.753C147.521 316.679 158.464 310.804 165.736 299.456C165.809 299.309 165.809 299.162 165.662 299.052C162.1 295.82 157.583 290.348 152.295 282.783C152.221 282.71 152.111 282.636 152.001 282.636C151.891 282.636 151.78 282.71 151.744 282.82C150.275 285.684 148.916 287.741 147.704 288.879C146.419 290.091 145.978 289.981 145.868 289.908C145.28 289.54 145.648 286.896 146.345 284.619C146.566 284.289 148.108 282.159 149.761 279.404ZM145.758 284.362C145.501 285.244 144.252 289.614 145.537 290.422C146.125 290.789 146.933 290.422 148.145 289.32C149.357 288.182 150.679 286.235 152.074 283.554C157.179 290.826 161.512 296.114 165.038 299.309C158.464 309.481 148.916 315.174 147.337 316.055C146.823 315.431 145.17 313.484 142.599 310.804C139.441 304.964 134.851 296.261 130.811 287.484L140.727 282.196C140.873 282.159 144.252 281.277 147.41 276.65C147.961 277.495 148.549 278.376 149.136 279.258C147.41 282.159 145.831 284.289 145.831 284.289C145.758 284.325 145.758 284.326 145.758 284.362Z" fill="#9FA3B5"/>
<path d="M108.152 283.518C106.353 269.379 86.0445 225.457 80.7929 229.056C74.8436 233.132 87.5869 258.876 91.6265 267.249C93.0588 270.187 92.9486 272.133 92.2141 273.455C97.9798 277.348 103.452 280.763 108.152 283.518Z" fill="#F9AE82"/>
<path d="M92.0672 273.712C97.3187 277.274 102.827 280.727 108.005 283.775C108.042 283.811 108.116 283.811 108.152 283.811C108.226 283.811 108.263 283.811 108.336 283.775C108.446 283.701 108.483 283.591 108.483 283.481C106.794 270.223 89.3497 231.884 82.4089 228.762C81.7111 228.432 81.1235 228.468 80.6093 228.799C77.9652 230.598 78.3692 236.254 81.9314 246.022C84.7592 253.808 88.8356 262.181 91.039 266.698L91.3695 267.396C92.5814 269.893 92.765 271.876 91.9571 273.308C91.8837 273.455 91.9203 273.639 92.0672 273.712ZM91.9203 267.102L91.5899 266.404C87.5869 258.178 75.3945 233.095 80.9766 229.276C81.2704 229.056 81.6743 229.056 82.1517 229.276C88.6886 232.214 105.655 269.452 107.748 282.857C102.827 279.955 97.6125 276.687 92.6181 273.308C93.3893 271.766 93.169 269.673 91.9203 267.102Z" fill="#F9AE82"/>
<path d="M78.2959 192.589L83.474 193.544C81.5644 192.552 79.7649 192.111 78.2959 192.589Z" fill="#E68262"/>
<path d="M83.4005 193.837C83.4372 193.837 83.4372 193.837 83.4739 193.837C83.6208 193.837 83.731 193.764 83.7677 193.617C83.8045 193.47 83.7677 193.323 83.6208 193.25C81.4541 192.148 79.6547 191.818 78.1857 192.258C78.0388 192.295 77.9653 192.442 77.9653 192.589C77.9653 192.736 78.0755 192.846 78.2224 192.883L83.4005 193.837Z" fill="#E68262"/>
<path d="M98.1637 206.875C98.1637 206.875 90.1578 196.959 83.4373 193.544L78.2593 192.589C78.2593 192.589 88.6155 200.191 88.9092 207.425C89.203 214.66 98.1637 206.875 98.1637 206.875Z" fill="#E68262"/>
<path d="M88.6154 207.425C88.6888 209.115 89.203 210.18 90.1945 210.62C90.525 210.767 90.8556 210.804 91.2228 210.804C94.0506 210.804 98.1637 207.242 98.384 207.095C98.5309 206.985 98.5308 206.801 98.4207 206.654C98.0902 206.25 90.3046 196.628 83.6209 193.25C83.5841 193.25 83.5474 193.213 83.5474 193.213L78.3694 192.258C78.2225 192.222 78.0756 192.295 78.0388 192.442C77.9654 192.589 78.0389 192.736 78.149 192.809C78.2225 192.919 88.3583 200.411 88.6154 207.425ZM83.3638 193.837C89.3498 196.886 96.4743 205.295 97.723 206.838C96.1071 208.16 92.3245 210.877 90.4516 210.069C89.7171 209.739 89.3131 208.858 89.2397 207.425C89.0193 201.403 82.1519 195.306 79.5078 193.14L83.3638 193.837Z" fill="#E68262"/>
<path d="M153.91 269.232C153.139 272.537 151.23 276.283 149.467 279.221C150.311 280.47 151.156 281.681 152.001 282.93C154.241 278.56 156.077 273.419 156.848 271.289C155.894 270.627 154.902 269.93 153.91 269.232Z" fill="#4C4566"/>
<path d="M152.037 283.224C152.184 283.224 152.258 283.15 152.331 283.04C154.608 278.597 156.481 273.382 157.179 271.362C157.216 271.215 157.179 271.068 157.069 270.995C156.114 270.334 155.122 269.636 154.131 268.975C154.057 268.901 153.947 268.901 153.837 268.938C153.727 268.975 153.653 269.048 153.653 269.159C153.029 271.876 151.523 275.218 149.246 279.037C149.173 279.147 149.173 279.258 149.246 279.368C150.091 280.616 150.936 281.828 151.78 283.077C151.817 283.187 151.927 283.224 152.037 283.224ZM154.131 269.783C154.939 270.334 155.71 270.885 156.481 271.435C155.747 273.529 154.021 278.193 151.964 282.342C151.266 281.314 150.532 280.286 149.834 279.258C152.001 275.622 153.433 272.427 154.131 269.783Z" fill="#4C4566"/>
<path d="M147.924 289.1C149.32 287.778 150.752 285.501 152.037 282.93C151.193 281.718 150.348 280.47 149.504 279.221C147.704 282.269 146.051 284.472 146.051 284.472C146.051 284.472 143.371 293.36 147.924 289.1Z" fill="#191446"/>
<path d="M146.015 290.569C146.566 290.569 147.227 290.165 148.145 289.32C149.43 288.108 150.826 286.015 152.331 283.077C152.368 282.967 152.368 282.857 152.295 282.746C151.45 281.535 150.605 280.286 149.761 279.037C149.687 278.964 149.577 278.89 149.504 278.89C149.394 278.89 149.283 278.964 149.247 279.037C147.484 282.012 145.831 284.215 145.831 284.252C145.795 284.289 145.795 284.326 145.795 284.362C145.538 285.244 144.289 289.614 145.574 290.422C145.684 290.532 145.831 290.569 146.015 290.569ZM146.345 284.619C146.566 284.289 147.961 282.379 149.504 279.808C150.201 280.837 150.936 281.902 151.67 282.93C150.238 285.721 148.916 287.704 147.704 288.843C146.419 290.054 145.978 289.944 145.868 289.871C145.28 289.54 145.648 286.896 146.345 284.619Z" fill="#191446"/>
<path d="M136.944 246.39C143.334 241.652 139.515 222.849 139.515 222.849C139.515 222.849 123.87 225.898 125.89 234.381C127.91 242.864 136.944 246.39 136.944 246.39Z" fill="#191446"/>
<path d="M136.834 246.72C136.871 246.72 136.907 246.757 136.944 246.757C137.018 246.757 137.091 246.72 137.128 246.683C143.591 241.873 139.992 223.621 139.809 222.849C139.772 222.666 139.625 222.556 139.441 222.592C139.037 222.666 129.636 224.539 126.404 229.533C125.413 231.076 125.119 232.765 125.56 234.528C127.616 243.048 136.724 246.683 136.834 246.72ZM126.955 229.864C129.709 225.604 137.605 223.657 139.258 223.253C139.698 225.714 142.379 241.652 136.871 246.022C135.659 245.508 127.983 241.946 126.184 234.344C125.817 232.765 126.074 231.223 126.955 229.864Z" fill="#191446"/>
<path d="M154.461 181.278C157.252 179.699 158.905 178.744 158.905 178.744L155.673 175.329C155.38 177.238 154.976 179.295 154.461 181.278Z" fill="#4461AB"/>
<path d="M154.608 181.572C157.399 179.993 159.052 179.038 159.052 179.038C159.125 179.001 159.199 178.891 159.199 178.817C159.199 178.707 159.199 178.634 159.125 178.56L155.894 175.145C155.82 175.072 155.673 175.035 155.563 175.072C155.453 175.108 155.379 175.218 155.343 175.329C155.049 177.422 154.645 179.405 154.168 181.241C154.131 181.351 154.168 181.498 154.278 181.572C154.351 181.608 154.388 181.645 154.461 181.645C154.498 181.608 154.572 181.572 154.608 181.572ZM155.857 176.026L158.391 178.67C157.84 179.001 156.628 179.662 154.939 180.654C155.306 179.185 155.637 177.642 155.857 176.026Z" fill="#4461AB"/>
<path d="M141.461 160.419C141.461 160.419 92.1042 178.303 89.9375 184.62C92.5082 184.95 96.254 186.125 102.093 194.535C115.387 188.88 130.517 180.764 131.656 178.34C133.566 174.264 130.995 173.052 124.642 170.628L147.668 166.955L141.461 160.419Z" fill="#4461AB"/>
<path d="M147.962 167.029C147.998 166.919 147.961 166.809 147.888 166.698L141.718 160.198C141.645 160.125 141.498 160.088 141.388 160.125C139.368 160.859 91.8472 178.12 89.6438 184.546C89.607 184.62 89.607 184.73 89.6804 184.803C89.7172 184.877 89.8274 184.95 89.9008 184.95C92.6918 185.281 96.2908 186.713 101.836 194.719C101.91 194.792 101.983 194.866 102.093 194.866C102.13 194.866 102.167 194.866 102.203 194.829C114.947 189.431 130.701 181.094 131.913 178.45C132.611 176.981 132.721 175.843 132.317 174.888C131.619 173.199 129.379 172.134 125.817 170.738L147.704 167.249C147.815 167.213 147.925 167.139 147.962 167.029ZM124.568 170.297C124.421 170.334 124.311 170.444 124.311 170.591C124.311 170.738 124.385 170.885 124.495 170.922C128.571 172.501 131.105 173.566 131.729 175.145C132.06 175.953 131.913 176.908 131.326 178.193C130.297 180.433 115.901 188.292 102.167 194.131C96.8416 186.493 93.206 184.803 90.3783 184.363C93.3896 179.221 124.679 166.809 141.351 160.786L146.97 166.698L124.568 170.297Z" fill="#4461AB"/>
<path d="M102.093 194.535C96.254 186.125 90.2681 184.436 90.3048 184.62C90.3048 184.62 86.3752 184.73 80.683 186.897C74.9908 189.063 72.6772 191.928 72.6772 191.928C74.8807 190.936 82.9599 194.168 88.5052 199.493C92.1777 198.501 96.9885 196.702 102.093 194.535Z" fill="#4C4566"/>
<path d="M72.7873 192.185C74.7704 191.267 82.7029 194.352 88.2849 199.713C88.3584 199.787 88.4318 199.787 88.5052 199.787C88.5419 199.787 88.5419 199.787 88.5786 199.787C92.0307 198.869 96.7681 197.143 102.203 194.829C102.277 194.792 102.35 194.719 102.387 194.609C102.424 194.535 102.387 194.425 102.35 194.352C96.8048 186.382 91.0024 184.179 90.2312 184.289C89.7171 184.326 85.9346 184.509 80.5361 186.566C74.8439 188.733 72.4936 191.561 72.3834 191.671C72.2732 191.781 72.2732 191.964 72.3834 192.075C72.4936 192.222 72.6771 192.258 72.7873 192.185ZM80.7565 187.19C86.3386 185.06 90.2313 184.95 90.268 184.95C90.3047 184.95 90.3047 184.95 90.3414 184.95C91.1493 185.06 96.4009 187.117 101.579 194.425C96.4009 196.628 91.8839 198.244 88.542 199.162C83.7679 194.645 76.9372 191.45 73.6688 191.45C73.632 191.45 73.5953 191.45 73.5586 191.45C74.6236 190.459 76.9005 188.659 80.7565 187.19Z" fill="#4C4566"/>
<path d="M156.408 165.523L147.667 166.919L155.673 175.328C156.445 169.967 156.408 165.523 156.408 165.523Z" fill="#283A84"/>
<path d="M155.673 175.953C155.747 175.953 155.82 175.953 155.857 175.916C156.077 175.843 156.261 175.659 156.298 175.402C157.069 170.04 157.032 165.523 157.032 165.487C157.032 165.303 156.959 165.119 156.812 165.009C156.665 164.899 156.481 164.825 156.298 164.862L147.557 166.258C147.337 166.294 147.117 166.441 147.043 166.662C146.97 166.882 147.007 167.139 147.19 167.286L155.196 175.696C155.306 175.879 155.49 175.953 155.673 175.953ZM155.747 166.258C155.71 167.58 155.637 170.481 155.196 173.933L148.916 167.359L155.747 166.258Z" fill="#283A84"/>
<path d="M102.093 194.535C103.085 195.967 104.113 197.547 105.252 199.346C106.427 201.219 107.271 202.908 107.859 204.451C122.842 198.795 145.06 186.566 154.462 181.278C154.976 179.295 155.38 177.238 155.674 175.329L147.668 166.919L124.642 170.591C130.995 173.015 133.566 174.264 131.656 178.303C130.518 180.764 115.387 188.916 102.093 194.535Z" fill="#283A84"/>
<path d="M101.946 194.241C101.873 194.278 101.8 194.352 101.763 194.462C101.726 194.535 101.763 194.645 101.799 194.719C102.864 196.225 103.893 197.804 104.958 199.53C106.059 201.292 106.941 203.018 107.565 204.561C107.602 204.671 107.749 204.745 107.859 204.745C107.896 204.745 107.932 204.745 107.969 204.708C123.063 199.016 145.611 186.603 154.609 181.498C154.682 181.461 154.756 181.388 154.756 181.315C155.233 179.478 155.637 177.459 155.967 175.329C155.967 175.218 155.967 175.145 155.894 175.072L147.888 166.662C147.815 166.588 147.705 166.552 147.594 166.552L124.568 170.224C124.421 170.261 124.311 170.371 124.311 170.518C124.311 170.665 124.385 170.812 124.495 170.848C128.571 172.427 131.105 173.492 131.73 175.072C132.06 175.879 131.913 176.834 131.326 178.12C130.297 180.433 115.755 188.402 101.946 194.241ZM131.913 178.487C132.611 177.018 132.721 175.879 132.317 174.925C131.619 173.235 129.379 172.17 125.817 170.775L147.521 167.286L155.306 175.475C155.013 177.459 154.645 179.368 154.168 181.094C145.171 186.162 123.026 198.355 108.043 204.083C107.418 202.541 106.574 200.925 105.509 199.236C104.517 197.62 103.526 196.151 102.571 194.719C115.24 189.284 130.701 181.094 131.913 178.487Z" fill="#283A84"/>
<path d="M107.859 204.451C107.271 202.945 106.427 201.256 105.252 199.346C104.113 197.547 103.085 195.968 102.093 194.535C96.9886 196.702 92.1778 198.501 88.5054 199.456C90.5252 201.403 92.2145 203.606 93.1326 205.993C94.1609 208.564 100.037 207.425 107.859 204.451Z" fill="#191446"/>
<path d="M96.2908 207.719C98.8248 207.719 102.718 206.728 108.006 204.745C108.079 204.708 108.153 204.671 108.189 204.561C108.226 204.487 108.226 204.414 108.189 204.304C107.565 202.688 106.684 200.962 105.545 199.163C104.48 197.436 103.452 195.857 102.387 194.352C102.314 194.241 102.13 194.168 102.02 194.241C96.5847 196.555 91.884 198.244 88.4687 199.163C88.3585 199.199 88.285 199.273 88.2483 199.383C88.2116 199.493 88.2483 199.603 88.3217 199.677C90.4884 201.77 92.0309 203.937 92.8756 206.103C93.2795 207.205 94.4179 207.719 96.2908 207.719ZM101.983 194.939C102.975 196.371 103.966 197.877 104.994 199.53C106.023 201.182 106.867 202.798 107.492 204.267C96.9519 208.197 94.0507 207.315 93.4631 205.883C92.6184 203.79 91.1862 201.66 89.1296 199.64C92.4715 198.722 96.8784 197.106 101.983 194.939Z" fill="#191446"/>
<path d="M163.643 304.34C165.001 306.507 170.987 313.301 178.075 317.083C179.581 314.917 180.94 312.787 181.968 310.987C184.906 305.736 189.974 294.976 192.177 290.238C191.149 288.145 172.75 277.128 170.033 277.311C167.278 277.532 169.298 280.176 169.298 280.176C168.894 287.814 165.92 293.176 162.835 296.702C162.835 296.665 161.623 301.108 163.643 304.34Z" fill="#4461AB"/>
<path d="M162.504 296.591C162.468 296.775 161.292 301.219 163.386 304.524C164.634 306.47 170.584 313.448 177.928 317.377C177.965 317.414 178.039 317.414 178.075 317.414C178.185 317.414 178.259 317.377 178.332 317.267C179.985 314.88 181.307 312.823 182.225 311.134C185.053 306.029 189.864 295.93 192.434 290.348C192.471 290.275 192.471 290.165 192.434 290.091C191.479 288.145 173.338 276.981 170.069 276.981C170.033 276.981 169.996 276.981 169.959 276.981C169.115 277.054 168.564 277.348 168.343 277.862C167.939 278.743 168.674 279.882 168.931 280.249C168.6 286.529 166.434 292.001 162.541 296.481C162.541 296.481 162.541 296.555 162.504 296.591ZM163.092 296.812C167.095 292.221 169.261 286.602 169.592 280.139C169.592 280.066 169.555 279.992 169.519 279.919C169.298 279.625 168.674 278.633 168.931 278.082C169.041 277.789 169.408 277.642 170.033 277.605C170.069 277.605 170.069 277.605 170.106 277.605C173.044 277.605 190.268 288.108 191.773 290.238C189.643 294.829 184.539 305.625 181.637 310.84C180.756 312.419 179.507 314.402 177.928 316.679C170.841 312.787 165.075 306.103 163.863 304.193C162.1 301.292 162.982 297.363 163.092 296.812Z" fill="#4461AB"/>
<path d="M192.177 290.238L192.141 290.201C189.937 294.939 184.869 305.699 181.931 310.95C180.94 312.75 179.544 314.88 178.039 317.047C180.315 318.259 182.739 319.177 185.126 319.507C192.104 308.38 198.935 296.555 198.861 295.196C198.788 292.735 192.177 290.238 192.177 290.238Z" fill="#E46790"/>
<path d="M177.928 317.34C180.462 318.699 182.849 319.507 185.126 319.838H185.163C185.273 319.838 185.383 319.801 185.42 319.691C190.782 311.134 199.302 296.885 199.228 295.196C199.118 292.699 193.426 290.385 192.398 290.018C192.324 289.944 192.251 289.908 192.177 289.908C192.067 289.908 191.957 289.981 191.883 290.091C189.79 294.572 184.612 305.552 181.674 310.84C180.756 312.493 179.471 314.513 177.818 316.9C177.781 316.973 177.745 317.083 177.781 317.157C177.781 317.23 177.818 317.304 177.928 317.34ZM182.225 311.134C185.016 306.103 189.68 296.261 192.324 290.642C194.234 291.413 198.53 293.47 198.604 295.196C198.641 296.334 192.434 307.315 185.016 319.177C182.996 318.883 180.829 318.112 178.552 316.936C180.095 314.66 181.344 312.713 182.225 311.134Z" fill="#E46790"/>
<path d="M162.798 296.665C159.309 300.631 155.747 302.32 155.747 302.32C155.747 302.32 161.66 320.646 167.132 331.406C168.637 329.57 173.852 323.106 178.039 317.083C170.988 313.301 164.965 306.507 163.606 304.34C161.623 301.108 162.835 296.665 162.798 296.665Z" fill="#244698"/>
<path d="M162.982 296.371C162.835 296.298 162.688 296.334 162.578 296.444C159.199 300.337 155.674 301.99 155.637 301.99C155.49 302.063 155.416 302.21 155.453 302.357C155.527 302.541 161.439 320.829 166.874 331.479C166.911 331.589 167.021 331.626 167.131 331.663H167.168C167.278 331.663 167.352 331.626 167.425 331.553C168.931 329.716 174.146 323.253 178.332 317.23C178.369 317.157 178.406 317.047 178.369 316.973C178.332 316.9 178.296 316.826 178.222 316.753C170.987 312.897 165.148 306.066 163.936 304.12C161.99 301.035 163.128 296.738 163.128 296.701C163.165 296.591 163.092 296.444 162.982 296.371ZM163.386 304.487C164.598 306.433 170.437 313.227 177.598 317.157C173.705 322.739 169.004 328.615 167.242 330.781C162.284 320.829 156.922 304.671 156.188 302.43C156.996 302.026 159.603 300.557 162.321 297.693C162.064 299.272 161.917 302.173 163.386 304.487Z" fill="#244698"/>
<path d="M171.648 339.008C173.925 336.841 179.581 328.394 185.163 319.507C182.776 319.177 180.352 318.295 178.075 317.047C173.889 323.069 168.674 329.533 167.168 331.369C169.886 336.731 169.959 340.623 171.648 339.008Z" fill="#924260"/>
<path d="M170.767 339.669C170.841 339.669 170.877 339.705 170.951 339.705C171.245 339.705 171.538 339.558 171.869 339.228C173.889 337.282 178.957 329.973 185.42 319.654C185.494 319.581 185.493 319.434 185.457 319.36C185.42 319.25 185.31 319.213 185.2 319.177C183.033 318.883 180.683 318.075 178.222 316.753C178.075 316.679 177.892 316.716 177.818 316.863C173.632 322.886 168.417 329.312 166.948 331.149C166.874 331.259 166.838 331.369 166.911 331.479C167.903 333.462 168.527 335.188 169.041 336.584C169.702 338.493 170.069 339.522 170.767 339.669ZM178.149 317.487C180.389 318.662 182.556 319.434 184.612 319.764C178.296 329.827 173.375 336.914 171.428 338.787C171.281 338.934 171.061 339.118 170.914 339.081C170.547 339.008 170.106 337.796 169.629 336.437C169.151 335.078 168.527 333.352 167.572 331.442C169.188 329.423 174.109 323.29 178.149 317.487Z" fill="#924260"/>
<path d="M136.21 214.403L130.15 194.792C130.15 194.792 87.2196 197.84 78.4793 216.753C69.739 235.666 115.387 300.337 115.387 300.337C115.277 300.411 115.203 300.558 115.13 300.704C119.794 301.623 134.263 302.724 146.933 286.052C146.713 286.235 146.602 286.309 146.602 286.309C145.978 282.049 123.026 235.85 128.497 236.07C129.342 236.107 130.223 235.997 131.105 235.85C129.636 217.929 109.217 199.273 106.94 199.346C106.867 199.383 106.794 199.42 106.72 199.456C106.757 199.383 106.83 199.346 106.94 199.346C113.33 195.417 126.074 205.002 136.21 214.403Z" fill="#F9C09D"/>
<path d="M135.989 214.623C136.099 214.733 136.246 214.733 136.356 214.66C136.467 214.587 136.54 214.44 136.503 214.293L130.444 194.682C130.407 194.535 130.26 194.462 130.113 194.462C130.003 194.462 119.206 195.27 107.491 198.355C96.6211 201.219 82.7394 206.728 78.1857 216.606C74.5133 224.539 79.6179 241.101 93.3894 265.78C102.974 283.003 113.624 298.354 114.983 300.3C114.946 300.374 114.873 300.484 114.836 300.558C114.799 300.631 114.799 300.741 114.836 300.815C114.873 300.888 114.946 300.961 115.057 300.961C116.158 301.182 117.848 301.402 119.904 301.402C122.218 301.402 125.009 301.108 128.13 300.227C135.292 298.134 141.718 293.396 147.227 286.198C147.337 286.088 147.3 285.905 147.19 285.794C147.08 285.684 146.933 285.684 146.823 285.721C146.272 283.701 143.885 278.303 140.91 271.619C135.181 258.619 126.514 238.971 128.167 236.511C128.24 236.401 128.351 236.327 128.498 236.364C129.306 236.401 130.15 236.327 131.178 236.144C131.325 236.107 131.436 235.96 131.436 235.813C130.04 218.7 112.192 201.586 107.749 199.273C114.212 196.335 126.588 205.92 135.989 214.623ZM129.93 195.16L135.585 213.411C127.726 206.213 117.994 198.722 111.164 198.208C120.455 196.004 128.424 195.27 129.93 195.16ZM130.774 235.593C129.93 235.74 129.195 235.776 128.534 235.776C128.167 235.776 127.837 235.923 127.653 236.217C125.927 238.751 132.39 253.881 140.359 271.949C143.444 278.964 146.125 285.06 146.345 286.382C142.673 291.046 131.399 303.238 115.718 300.484C115.754 300.374 115.754 300.264 115.681 300.154C115.24 299.493 70.2165 235.409 78.81 216.863C82.9598 207.866 95.0787 202.504 106.5 199.309C106.463 199.456 106.537 199.566 106.647 199.64C106.757 199.713 106.941 199.713 107.051 199.64H107.087C109.621 199.934 129.159 218.296 130.774 235.593Z" fill="#F9C09D"/>
<path d="M151.009 288.622C149.687 285.868 148.733 284.179 148.476 284.509C147.888 285.28 147.337 285.794 146.97 286.088C134.3 302.761 119.831 301.659 115.167 300.741C114.8 301.586 115.093 303.349 115.791 305.589C121.336 306.323 138.046 306.727 151.009 288.622Z" fill="#C0C3D6"/>
<path d="M115.754 305.919C116.709 306.029 118.068 306.176 119.757 306.176C127.102 306.176 140.543 303.826 151.267 288.842C151.34 288.732 151.34 288.622 151.303 288.512C149.247 284.252 148.843 284.215 148.586 284.179C148.439 284.142 148.292 284.215 148.218 284.362C147.668 285.097 147.153 285.574 146.713 285.941C143.518 290.165 131.766 303.679 115.203 300.484C115.057 300.447 114.91 300.521 114.836 300.668C114.469 301.512 114.653 303.165 115.461 305.736C115.534 305.809 115.607 305.882 115.754 305.919ZM115.35 301.108C117.811 301.549 122.512 301.953 128.13 300.3C135.292 298.207 141.718 293.47 147.153 286.309C147.521 286.015 148.035 285.537 148.549 284.84C148.769 285.097 149.32 285.905 150.605 288.549C137.789 306.323 121.153 305.882 116.011 305.258C115.314 302.871 115.24 301.696 115.35 301.108Z" fill="#C0C3D6"/>
<path d="M161.292 313.888C160.558 311.134 156.224 300.19 152.772 292.442C144.179 308.857 123.723 311.024 117.517 310.326C120.786 318.442 126.111 328.541 126.111 328.541C144.289 341.652 162.504 318.369 161.292 313.888Z" fill="#C0C3D6"/>
<path d="M125.89 328.798C129.967 331.736 133.97 332.801 137.605 332.801C143.151 332.801 147.888 330.341 150.826 328.284C157.363 323.767 162.284 316.422 161.549 313.815C160.778 310.95 156.371 299.896 153.029 292.331C152.993 292.221 152.883 292.148 152.736 292.148C152.625 292.148 152.515 292.221 152.442 292.331C143.591 309.261 122.622 310.62 117.517 310.069C117.407 310.069 117.297 310.106 117.223 310.179C117.15 310.253 117.15 310.4 117.187 310.473C120.418 318.516 125.743 328.615 125.78 328.688C125.817 328.725 125.854 328.762 125.89 328.798ZM152.736 293.176C156.041 300.704 160.227 311.244 160.962 313.998C161.476 315.908 157.51 322.886 150.495 327.77C145.758 331.038 136.32 335.482 126.331 328.321C125.89 327.439 121.079 318.295 117.995 310.693C123.907 311.134 143.812 309.335 152.736 293.176Z" fill="#C0C3D6"/>
<path d="M106.757 199.493C106.83 199.456 106.904 199.42 106.977 199.383C106.867 199.383 106.794 199.383 106.757 199.493Z" fill="#9FA3B5"/>
<path d="M106.794 199.787C106.867 199.787 106.941 199.75 107.014 199.713C107.051 199.677 107.087 199.677 107.124 199.64C107.234 199.566 107.308 199.419 107.271 199.273C107.234 199.126 107.124 199.052 106.941 199.052C106.573 199.052 106.463 199.273 106.463 199.383C106.426 199.53 106.5 199.64 106.61 199.713C106.647 199.75 106.72 199.787 106.794 199.787ZM107.051 199.566C107.014 199.64 106.977 199.677 106.977 199.677V199.53L107.051 199.566Z" fill="#9FA3B5"/>
<path d="M141.461 231.406L136.209 214.403C126.074 205.002 113.33 195.417 106.977 199.346C109.254 199.273 129.673 217.928 131.141 235.85C136.099 234.932 141.461 231.406 141.461 231.406Z" fill="#E68262"/>
<path d="M106.977 199.677C109.364 199.677 129.379 218.369 130.811 235.886C130.811 235.96 130.848 236.07 130.921 236.107C130.995 236.144 131.031 236.18 131.105 236.18C131.142 236.18 131.142 236.18 131.178 236.18C136.173 235.225 141.424 231.847 141.645 231.7C141.755 231.626 141.828 231.48 141.792 231.333L136.54 214.329C136.54 214.293 136.503 214.219 136.467 214.183C126.625 205.038 113.477 194.976 106.83 199.089C106.72 199.162 106.647 199.309 106.683 199.456C106.72 199.603 106.83 199.677 106.977 199.677ZM135.952 214.587L141.131 231.296C140.139 231.92 135.659 234.601 131.435 235.483C129.82 218.516 112.192 201.586 107.748 199.309C114.212 196.335 126.551 205.883 135.952 214.587Z" fill="#E68262"/>
<path d="M152.772 292.441C152.148 291.046 151.56 289.761 151.009 288.622C138.046 306.727 121.336 306.323 115.791 305.589C116.232 307.021 116.819 308.637 117.517 310.363C123.687 311.024 144.179 308.857 152.772 292.441Z" fill="#4C4566"/>
<path d="M117.48 310.657C118.031 310.73 118.766 310.767 119.647 310.767C127.065 310.767 144.987 308.012 153.066 292.588C153.103 292.515 153.103 292.405 153.066 292.331C152.405 290.862 151.817 289.577 151.303 288.512C151.266 288.402 151.156 288.328 151.046 288.328C150.936 288.328 150.826 288.365 150.752 288.475C137.752 306.654 120.749 305.956 115.828 305.295C115.718 305.295 115.607 305.332 115.534 305.405C115.46 305.478 115.46 305.589 115.46 305.699C115.864 307.058 116.452 308.673 117.186 310.473C117.26 310.583 117.37 310.657 117.48 310.657ZM150.936 289.246C151.376 290.165 151.854 291.23 152.405 292.441C143.628 309.041 123.136 310.546 117.737 310.069C117.113 308.527 116.636 307.168 116.232 305.993C121.74 306.58 138.156 306.69 150.936 289.246Z" fill="#4C4566"/>
<path d="M153.544 234.417C156.959 230.268 198.971 217.781 201.358 207.205C201.432 206.874 201.505 206.507 201.542 206.14C199.412 198.722 194.271 191.267 189.827 190.973C182.923 195.453 174.917 189.137 174.917 189.137C163.79 182.086 141.755 179.331 141.755 179.331C134.19 182.783 123.54 187.301 120.529 188.586C124.054 190.238 129.269 193.837 136.283 201.549C148.806 215.358 153.213 228.285 153.544 234.417Z" fill="#4461AB"/>
<path d="M136.026 201.733C149.027 216.055 152.956 229.019 153.213 234.454C153.213 234.601 153.323 234.711 153.433 234.748C153.47 234.748 153.507 234.748 153.544 234.748C153.654 234.748 153.727 234.711 153.801 234.638C154.939 233.279 160.962 230.745 167.903 227.844C181.491 222.152 200.073 214.366 201.652 207.315C201.726 206.985 201.799 206.581 201.836 206.213C201.836 206.177 201.836 206.14 201.836 206.103C199.779 198.942 194.638 191.046 189.827 190.716C189.754 190.716 189.68 190.716 189.643 190.753C182.996 195.049 175.174 188.99 175.064 188.916C164.01 181.902 142.012 179.074 141.792 179.074C141.719 179.074 141.682 179.074 141.608 179.111C134.043 182.563 123.43 187.08 120.382 188.366C120.272 188.402 120.198 188.512 120.198 188.659C120.198 188.77 120.272 188.916 120.382 188.953C124.899 190.973 130.187 195.306 136.026 201.733ZM141.792 179.625C143.334 179.846 164.157 182.673 174.697 189.357C174.77 189.431 182.886 195.71 189.9 191.267C194.234 191.671 199.228 199.236 201.211 206.14C201.175 206.507 201.101 206.838 201.028 207.132C199.522 213.852 181.087 221.564 167.646 227.22C161.072 229.974 155.71 232.214 153.801 233.72C152.883 222.152 142.563 207.976 136.504 201.292C130.885 195.086 125.744 190.826 121.3 188.549C124.972 187.007 134.704 182.857 141.792 179.625Z" fill="#4461AB"/>
<path d="M189.827 190.973C194.27 191.267 199.412 198.758 201.542 206.14C202.864 194.902 188.651 172.207 173.08 170.811C156.995 169.379 148.696 175.916 148.696 175.916C147.337 176.687 144.803 177.899 141.755 179.295C141.755 179.295 163.789 182.049 174.917 189.1C174.917 189.1 182.886 195.417 189.827 190.973Z" fill="#244698"/>
<path d="M174.696 189.357C174.77 189.431 182.886 195.71 189.9 191.267C194.233 191.671 199.265 199.273 201.211 206.213C201.248 206.36 201.358 206.434 201.505 206.434C201.505 206.434 201.505 206.434 201.542 206.434C201.688 206.434 201.799 206.287 201.835 206.14C202.57 200.007 198.677 190.349 192.397 182.637C186.485 175.365 179.617 171.032 173.117 170.481C157.106 169.049 148.585 175.586 148.549 175.622C147.337 176.32 145.023 177.459 141.645 179.001C141.498 179.074 141.424 179.185 141.461 179.331C141.498 179.478 141.608 179.589 141.718 179.589C141.939 179.662 163.789 182.453 174.696 189.357ZM148.879 176.173C148.953 176.1 157.326 169.746 173.044 171.142C179.397 171.693 186.081 175.953 191.883 183.077C197.502 189.981 201.174 198.391 201.285 204.377C198.971 197.73 194.234 190.973 189.827 190.679C189.827 190.679 189.827 190.679 189.79 190.679C189.716 190.679 189.68 190.679 189.606 190.716C182.959 195.013 175.137 188.953 175.027 188.88C165.368 182.747 147.374 179.846 142.82 179.185C145.721 177.826 147.741 176.834 148.879 176.173Z" fill="#244698"/>
<path d="M136.944 246.389C136.944 246.389 144.069 245.545 147.668 241.248C151.303 236.915 149.761 239.008 153.36 234.675C153.433 234.601 153.47 234.491 153.543 234.417C153.25 228.248 152.221 216.57 139.662 202.725C132.648 195.013 121.116 188.292 121.116 188.292C121.116 188.292 119.574 187.851 115.644 189.21C109.879 191.193 101.91 197.804 102.975 198.758C104.884 200.484 124.311 202.321 134.263 222.445C144.179 242.607 136.944 246.389 136.944 246.389Z" fill="#4C4566"/>
<path d="M136.797 246.132C136.65 246.206 136.614 246.353 136.65 246.5C136.687 246.647 136.797 246.72 136.944 246.72H136.981C137.275 246.683 144.252 245.802 147.925 241.468C149.687 239.375 150.238 238.788 150.716 238.273C151.267 237.686 151.744 237.172 153.617 234.895C153.654 234.858 153.69 234.821 153.727 234.748C153.764 234.711 153.801 234.675 153.801 234.638C153.837 234.564 153.874 234.491 153.874 234.417C153.617 229.203 153.029 216.974 139.919 202.541C132.978 194.866 121.41 188.108 121.3 188.035C121.263 188.035 121.263 187.998 121.226 187.998C121.153 187.962 119.537 187.521 115.534 188.916C110.393 190.679 102.975 196.371 102.571 198.354C102.497 198.722 102.644 198.905 102.754 199.015C103.195 199.419 104.297 199.787 105.986 200.301C112.523 202.394 126.074 206.691 133.97 222.592C141.682 238.237 139.184 244.847 136.797 246.132ZM134.52 222.335C126.515 206.177 112.266 201.66 106.17 199.713C104.664 199.236 103.489 198.869 103.158 198.575C102.901 197.693 109.805 191.561 115.718 189.541C118.068 188.733 119.537 188.586 120.308 188.586C120.676 188.586 120.896 188.623 120.969 188.623C121.741 189.063 132.721 195.6 139.405 202.982C152.258 217.157 152.956 229.129 153.213 234.344L153.176 234.381C153.14 234.417 153.14 234.454 153.103 234.491C151.23 236.731 150.789 237.245 150.238 237.833C149.761 238.384 149.173 238.971 147.411 241.065C144.766 244.223 140.139 245.471 138.009 245.912C139.699 244.002 142.306 238.09 134.52 222.335Z" fill="#4C4566"/>
<path d="M129.746 147.822C129.746 147.822 149.687 164.495 181.013 180.764C212.338 197.033 196.547 213.118 201.615 210.878C206.683 208.601 210.686 176.173 211.788 156.893C212.889 137.65 210.172 111.209 205.287 96.7026C200.403 82.1966 184.538 65.5239 168.931 65.1199C153.323 64.716 145.611 76.9083 144.399 79.222C143.187 81.5356 145.501 83.5554 145.758 86.6769C146.015 89.7984 141.975 109.042 140.323 113.669C138.707 118.26 129.746 147.822 129.746 147.822Z" fill="#2893D0"/>
<path d="M129.452 147.749C129.416 147.859 129.452 148.006 129.562 148.079C129.746 148.263 149.871 164.972 180.866 181.058C203.561 192.846 201.284 204.598 200.403 209.041C200.146 210.29 200.036 210.951 200.44 211.281C200.55 211.392 200.697 211.428 200.88 211.428C201.138 211.428 201.468 211.318 201.762 211.171C207.381 208.674 211.237 172.868 212.118 156.93C213.22 137.283 210.355 110.768 205.581 96.5923C203.084 89.174 197.906 81.4253 191.332 75.3658C184.134 68.7188 176.202 64.9729 168.931 64.7893C168.674 64.7893 168.416 64.7893 168.159 64.7893C151.854 64.7893 144.399 78.4874 144.105 79.075C143.297 80.5806 143.885 81.9762 144.472 83.4451C144.876 84.4367 145.317 85.5016 145.427 86.7135C145.684 89.7249 141.718 108.785 140.029 113.559C138.413 118.113 129.526 147.455 129.452 147.749ZM146.051 86.6401C145.941 85.318 145.464 84.1796 145.06 83.188C144.472 81.7191 143.995 80.5806 144.656 79.332C144.95 78.7444 152.441 64.9362 168.931 65.4136C184.098 65.8176 200.109 82.2699 204.994 96.7759C209.731 110.878 212.595 137.283 211.494 156.856C210.319 178.046 206.169 208.49 201.505 210.547C201.027 210.767 200.88 210.731 200.88 210.731C200.77 210.584 200.917 209.812 201.064 209.115C201.945 204.561 204.333 192.479 181.196 180.47C151.744 165.156 132.133 149.291 130.15 147.675C130.958 145.068 139.111 118.076 140.653 113.706C142.159 109.446 146.345 89.9453 146.051 86.6401Z" fill="#2893D0"/>
<path d="M206.315 165.523C202.57 141.175 181.049 183.849 181.049 183.849L193.389 189.137C193.389 189.137 210.098 189.871 206.315 165.523Z" fill="#1F6F93"/>
<path d="M180.939 184.142L193.278 189.431C193.315 189.431 193.352 189.467 193.389 189.467C193.425 189.467 193.462 189.467 193.609 189.467C194.674 189.467 199.522 189.247 203.157 185.171C206.866 181.058 208.042 174.411 206.646 165.487C205.912 160.712 204.406 158.105 202.166 157.775C194.527 156.599 181.343 182.637 180.756 183.738C180.719 183.812 180.719 183.922 180.756 183.996C180.792 184.032 180.829 184.106 180.939 184.142ZM202.056 158.362C204.002 158.656 205.324 161.08 205.985 165.56C207.344 174.3 206.205 180.727 202.643 184.693C199.007 188.733 194.013 188.806 193.425 188.77L181.453 183.665C182.996 180.764 195.335 157.334 202.056 158.362Z" fill="#1F6F93"/>
<path d="M170.877 101.036C170.877 101.036 162.027 130.636 161.586 136.218C161.182 141.8 145.868 145.362 145.868 145.362L174.88 155.277C174.917 155.277 177.708 97.2534 170.877 101.036Z" fill="#1F6F93"/>
<path d="M174.806 155.571C174.843 155.571 174.88 155.571 174.917 155.571C174.99 155.571 175.027 155.534 175.1 155.534C175.174 155.461 175.247 155.388 175.247 155.277C175.357 153.184 177.671 104.121 172.273 100.742C171.795 100.448 171.281 100.448 170.767 100.742C170.693 100.779 170.657 100.852 170.62 100.926C170.253 102.138 161.733 130.599 161.329 136.181C160.925 141.469 146.015 145.031 145.831 145.031C145.684 145.068 145.611 145.178 145.574 145.325C145.574 145.472 145.648 145.582 145.795 145.656L174.806 155.571ZM161.916 136.254C162.32 130.966 170.51 103.423 171.134 101.256C171.391 101.146 171.648 101.146 171.869 101.293C176.055 103.9 175.247 140.404 174.586 154.837L146.97 145.435C150.532 144.517 161.549 141.212 161.916 136.254Z" fill="#1F6F93"/>
<path d="M160.668 127.22C160.925 127.22 161.145 127.073 161.256 126.853C161.292 126.78 161.99 125.2 162.247 122.593C162.284 122.262 162.027 121.932 161.659 121.895C161.329 121.858 160.998 122.116 160.962 122.483C160.741 124.87 160.08 126.339 160.08 126.339C159.933 126.669 160.08 127.037 160.411 127.183C160.521 127.183 160.594 127.22 160.668 127.22Z" fill="#1F6F93"/>
<path d="M159.456 123.144C159.713 123.144 159.97 122.96 160.044 122.703C160.778 120.316 160.888 118.774 160.888 118.7C160.925 118.37 160.631 118.039 160.301 118.039C159.97 118.002 159.64 118.296 159.64 118.627C159.64 118.627 159.529 120.132 158.868 122.336C158.758 122.666 158.942 123.034 159.272 123.144C159.309 123.144 159.383 123.144 159.456 123.144Z" fill="#1F6F93"/>
<path d="M127.212 139.89C124.972 138.348 118.656 136.218 111.568 136.218C104.48 136.218 101.102 145.876 101.102 145.876L129.563 151.972L138.303 140.845C134.888 141.616 129.453 141.432 127.212 139.89Z" fill="#F9C09D"/>
<path d="M100.991 146.206L129.452 152.303C129.489 152.303 129.489 152.303 129.526 152.303C129.636 152.303 129.71 152.266 129.783 152.192L138.523 141.065C138.597 140.955 138.597 140.808 138.56 140.698C138.487 140.588 138.34 140.551 138.23 140.551C134.888 141.322 129.526 141.065 127.433 139.633C125.156 138.09 118.766 135.924 111.605 135.924C104.333 135.924 100.955 145.399 100.844 145.802C100.808 145.876 100.808 145.986 100.881 146.06C100.844 146.133 100.918 146.17 100.991 146.206ZM111.531 136.548C118.545 136.548 124.825 138.641 127.029 140.147C129.159 141.616 134.006 141.91 137.495 141.322L129.416 151.642L101.506 145.656C102.167 143.966 105.472 136.548 111.531 136.548Z" fill="#F9C09D"/>
<path d="M113.037 144.223C114.983 141.616 107.492 137.062 107.492 137.062C104.627 136.805 100.514 143.085 100.514 143.085C100.514 143.085 111.127 146.794 113.037 144.223Z" fill="#E68262"/>
<path d="M100.404 143.379C101.212 143.672 106.463 145.472 110.099 145.472C111.531 145.472 112.706 145.178 113.294 144.444C113.625 144.003 113.735 143.452 113.625 142.864C113.11 140.184 107.896 136.952 107.675 136.805C107.638 136.768 107.602 136.768 107.528 136.768C104.48 136.511 100.404 142.681 100.257 142.938C100.22 143.011 100.184 143.122 100.22 143.195C100.257 143.268 100.33 143.342 100.404 143.379ZM107.345 137.356C107.381 137.356 107.381 137.356 107.418 137.356C108.006 137.723 112.596 140.661 113.037 142.938C113.11 143.342 113.037 143.709 112.817 144.04C111.421 145.913 104.186 143.966 101.028 142.901C102.277 141.065 105.288 137.356 107.345 137.356Z" fill="#E68262"/>
<path d="M184.098 86.6766C184.281 87.1908 184.759 87.5213 185.273 87.5213C185.42 87.5213 185.567 87.4846 185.713 87.4478C186.374 87.1908 186.705 86.493 186.485 85.832C183.914 78.8544 168.931 69.2694 168.27 68.8655C167.682 68.4982 166.911 68.6819 166.507 69.2695C166.14 69.857 166.323 70.6282 166.911 71.0322C171.061 73.6029 182.225 81.5353 184.098 86.6766Z" fill="#504566"/>
<path d="M171.832 66.4785C173.228 64.8259 169.629 63.2101 163.092 65.8175C156.555 68.4249 154.021 72.7216 154.021 72.7216C154.021 72.7216 148.329 84.8772 152.809 86.1626C158.869 87.8886 170.363 68.1678 171.832 66.4785Z" fill="#504566"/>
<path d="M152.699 86.4197C152.993 86.4932 153.286 86.5299 153.58 86.5299C158.832 86.5299 166.617 74.7782 170.437 68.9758C171.208 67.8006 171.795 66.956 172.016 66.6622C172.456 66.148 172.53 65.5605 172.163 65.1198C171.281 63.8712 167.719 63.5774 162.908 65.487C156.371 68.0577 153.764 72.3544 153.654 72.5013C153.654 72.5013 153.654 72.5013 153.654 72.538C153.47 72.9053 149.467 81.5354 151.046 85.0242C151.45 85.7587 152.001 86.2361 152.699 86.4197ZM154.315 72.8318C154.462 72.5748 157.069 68.5351 163.239 66.0746C167.976 64.2017 171.134 64.6057 171.722 65.487C171.795 65.5605 171.979 65.8175 171.575 66.2582C171.318 66.5887 170.767 67.3967 169.922 68.6453C166.58 73.7132 157.657 87.2277 152.846 85.8321C152.295 85.6852 151.928 85.318 151.671 84.8039C150.275 81.6089 154.094 73.2358 154.315 72.8318Z" fill="#504566"/>
<path d="M56.5183 133.28C55.0861 128.873 28.8651 117.745 32.7211 120.573C36.5772 123.438 35.5856 142.35 35.5856 142.35C35.5856 142.35 57.9506 137.65 56.5183 133.28Z" fill="#924260"/>
<path d="M35.3655 142.571C35.4389 142.608 35.5124 142.644 35.5859 142.644C35.6226 142.644 35.6226 142.644 35.6593 142.644C36.4305 142.497 54.2783 138.715 56.6287 134.638C56.9225 134.124 56.9959 133.647 56.8123 133.169C55.4902 129.093 34.4474 119.802 32.4643 119.802C32.1338 119.802 32.0603 119.985 32.0236 120.059C31.9134 120.353 32.2072 120.573 32.5378 120.83C36.2102 123.548 35.2553 142.13 35.2553 142.314C35.2553 142.424 35.292 142.497 35.3655 142.571ZM33.2355 120.61C35.035 121.161 39.552 123.034 44.4363 125.457C51.3037 128.873 55.7106 131.847 56.2248 133.39C56.3349 133.684 56.2614 134.014 56.0778 134.345C54.0213 137.87 38.5972 141.359 35.9163 141.983C36.0265 139.155 36.5774 123.988 33.2355 120.61Z" fill="#924260"/>
<path d="M87.7341 138.09C92.9489 139.816 103.782 141.212 108.667 141.212C112.559 138.201 116.599 135.74 119.647 135.446C119.647 135.446 60.7785 119.985 53.8744 121.014C53.8744 121.014 38.8177 129.974 35.5859 142.387C35.5859 142.387 66.2872 144.223 95.997 152.964C95.997 152.964 98.0167 150.76 100.991 147.969L76.6433 137.833C76.6066 137.76 81.6379 136.107 87.7341 138.09Z" fill="#4461AB"/>
<path d="M87.6605 138.384C92.8018 140.074 103.525 141.506 108.703 141.506C108.777 141.506 108.85 141.469 108.887 141.432C113.441 137.907 117.076 135.96 119.684 135.703C119.831 135.703 119.941 135.556 119.978 135.41C119.978 135.263 119.904 135.116 119.757 135.079C117.334 134.455 60.7418 119.618 53.8377 120.647C53.801 120.647 53.7642 120.683 53.7275 120.683C53.5806 120.757 38.5238 129.828 35.2921 142.24C35.2554 142.314 35.292 142.424 35.3287 142.497C35.4022 142.571 35.4757 142.607 35.5491 142.644C35.8429 142.681 66.5809 144.591 95.8867 153.221C95.9234 153.221 95.9601 153.221 95.9601 153.221C96.0336 153.221 96.1438 153.184 96.1805 153.111C96.2173 153.074 98.237 150.907 101.175 148.116C101.248 148.043 101.285 147.932 101.285 147.822C101.248 147.712 101.212 147.639 101.102 147.602L77.5981 137.833C79.2874 137.466 83.2169 136.952 87.6605 138.384ZM76.4964 138.054L100.404 148.006C98.0535 150.246 96.3641 152.046 95.8867 152.56C68.3437 144.48 39.6255 142.314 35.9898 142.057C39.2582 130.489 53.0297 121.895 53.9846 121.308C60.4113 120.5 109.401 133.096 118.215 135.41C115.681 136.107 112.449 137.944 108.557 140.918C103.378 140.881 92.8386 139.486 87.8074 137.833C81.6745 135.814 76.68 137.429 76.4964 137.503C76.3862 137.54 76.276 137.65 76.276 137.797C76.276 137.907 76.3862 138.017 76.4964 138.054Z" fill="#4461AB"/>
<path d="M87.7343 138.09C81.6381 136.107 76.6069 137.76 76.6069 137.76L100.955 147.896C103.158 145.803 105.876 143.379 108.667 141.212C103.783 141.212 92.9859 139.816 87.7343 138.09Z" fill="#244698"/>
<path d="M100.845 148.19C100.881 148.19 100.918 148.226 100.955 148.226C101.028 148.226 101.102 148.19 101.175 148.153C103.893 145.582 106.5 143.305 108.887 141.469C108.997 141.396 109.034 141.249 108.997 141.102C108.961 140.992 108.85 140.881 108.704 140.881C103.562 140.881 92.9122 139.449 87.8443 137.797C81.7114 135.777 76.717 137.393 76.5334 137.466C76.4232 137.503 76.313 137.613 76.313 137.76C76.313 137.907 76.3864 138.017 76.4966 138.054L100.845 148.19ZM87.6607 138.384C92.5082 139.963 102.35 141.359 107.822 141.506C105.656 143.232 103.342 145.252 100.918 147.529L77.6351 137.833C79.2877 137.466 83.2171 136.952 87.6607 138.384Z" fill="#244698"/>
<path d="M133.97 141.946C120.969 146.427 110.393 143.783 110.393 143.783C110.393 143.783 91.333 141.359 87.6238 139.706C83.878 138.09 75.615 135.079 75.8354 139.78C76.0557 144.444 84.3921 148.263 84.3921 148.263C84.3921 148.263 84.2819 148.52 84.1717 148.924C89.3865 150.944 96.1805 151.678 99.1185 151.935C95.8867 151.715 88.0645 151.091 84.0249 150.356C84.0983 152.045 85.0531 154.469 89.3131 156.269C89.3131 156.269 89.2397 156.489 89.203 156.856C94.528 158.362 102.13 159.133 102.13 159.133C102.13 159.133 94.3443 158.95 89.203 158.068C89.3499 159.941 90.4883 162.732 95.6297 163.356C95.6297 163.356 95.5562 163.614 95.4827 163.981C99.8896 164.789 105.104 165.34 105.104 165.34C105.104 165.34 99.5958 165.45 95.4093 165.156C95.4827 166.845 96.4743 169.159 101.065 169.673C108.373 170.481 118.031 172.317 126.955 170.958C135.916 169.6 194.748 194.976 202.35 179.919C207.528 169.673 207.528 153.661 207.014 144.444C192.875 147.565 174.696 140.514 170.216 138.641C170.179 140 170.179 141.836 170.29 143.856C170.216 143.746 146.97 137.466 133.97 141.946Z" fill="#F9C09D"/>
<path d="M133.859 141.616C121.079 146.023 110.54 143.452 110.393 143.415C110.209 143.379 91.3329 140.955 87.6972 139.376C85.1265 138.237 78.8834 135.814 76.4596 137.466C75.7619 137.943 75.4314 138.715 75.4681 139.743C75.6517 144.113 82.4456 147.639 83.9146 148.373C83.8779 148.483 83.8411 148.63 83.8044 148.777C83.7677 148.924 83.8411 149.108 83.988 149.144C85.5672 149.769 87.2933 150.246 89.0193 150.65C87.1464 150.43 85.3469 150.209 84.0248 149.952C83.9146 149.952 83.8412 149.952 83.7678 150.026C83.6943 150.099 83.6576 150.173 83.6576 150.283C83.731 152.046 84.7226 154.506 88.9091 156.379C88.9091 156.489 88.8724 156.599 88.8724 156.746C88.8724 156.893 88.9458 157.04 89.0927 157.077C90.8188 157.554 92.8019 157.995 94.7115 158.325C92.8386 158.178 90.8922 157.958 89.2396 157.664C89.1294 157.664 89.056 157.664 88.9825 157.738C88.9091 157.811 88.8724 157.885 88.8724 157.995C89.0192 159.758 90.0475 162.769 95.2256 163.503C95.1889 163.577 95.1889 163.687 95.1522 163.797C95.1155 163.981 95.2256 164.128 95.4092 164.164C96.9149 164.458 98.494 164.679 99.963 164.899C98.494 164.862 96.8782 164.825 95.446 164.715C95.3358 164.715 95.2623 164.752 95.1889 164.789C95.1154 164.862 95.0788 164.936 95.0788 165.046C95.1522 166.625 96.0335 169.306 100.991 169.857C102.35 170.004 103.819 170.187 105.325 170.408C112.045 171.289 119.647 172.28 126.955 171.142C129.783 170.701 138.119 173.125 147.778 175.953C161.476 179.919 178.516 184.877 190.12 184.877C196.217 184.877 200.77 183.518 202.607 179.919C207.858 169.526 207.821 153.147 207.307 144.297C207.307 144.187 207.271 144.113 207.197 144.076C207.124 144.003 207.014 144.003 206.94 144.003C193.022 147.088 175.394 140.331 170.326 138.201C170.216 138.164 170.106 138.164 170.032 138.237C169.959 138.311 169.886 138.384 169.886 138.494C169.849 140.147 169.886 141.763 169.959 143.305C166.691 142.534 145.831 137.503 133.859 141.616ZM170.143 144.076C170.253 144.113 170.363 144.076 170.436 144.003C170.51 143.929 170.547 143.856 170.547 143.746C170.473 142.24 170.436 140.661 170.473 139.008C176.055 141.322 193.022 147.602 206.683 144.737C207.16 153.588 207.124 169.526 202.019 179.662C196.988 189.614 168.637 181.388 147.961 175.365C138.67 172.684 131.178 170.481 127.726 170.481C127.396 170.481 127.139 170.518 126.882 170.554C119.647 171.656 112.082 170.665 105.435 169.82C103.929 169.636 102.46 169.416 101.065 169.269C97.0985 168.828 95.9601 166.992 95.7397 165.413C99.8528 165.707 105.031 165.56 105.104 165.56C105.288 165.56 105.398 165.413 105.398 165.266C105.398 165.119 105.288 164.972 105.104 164.936C105.068 164.936 100.073 164.421 95.8132 163.65C95.85 163.503 95.8867 163.393 95.8867 163.393C95.9234 163.32 95.8866 163.21 95.8499 163.136C95.8132 163.063 95.7031 162.989 95.6296 162.989C91.186 162.438 89.8272 160.272 89.5334 158.399C94.6013 159.207 102.02 159.39 102.093 159.39C102.277 159.39 102.387 159.243 102.424 159.097C102.424 158.913 102.313 158.766 102.13 158.766C102.056 158.766 94.7849 157.995 89.5334 156.599C89.5701 156.452 89.5702 156.342 89.5702 156.342C89.6069 156.195 89.5334 156.048 89.3865 155.975C85.604 154.359 84.5022 152.303 84.3186 150.723C88.4684 151.421 95.9233 152.009 99.0449 152.229C99.963 152.303 100.514 152.339 100.514 152.339C100.697 152.339 100.808 152.192 100.844 152.046C100.844 151.862 100.734 151.715 100.551 151.715C100.551 151.715 99.9997 151.678 99.0816 151.605C96.4008 151.384 89.6803 150.65 84.5022 148.704C84.5757 148.483 84.6124 148.373 84.6124 148.373C84.6491 148.3 84.6491 148.226 84.6124 148.116C84.5757 148.043 84.539 147.969 84.4288 147.932C84.3554 147.896 76.2761 144.15 76.0557 139.743C76.019 138.935 76.2393 138.384 76.7534 138.017C78.9936 136.511 85.457 139.119 87.4034 139.963C91.1125 141.579 109.475 143.966 110.246 144.04C110.356 144.076 121.079 146.647 134.006 142.203C146.823 137.833 169.922 144.003 170.143 144.076Z" fill="#F9C09D"/>
<path d="M84.0985 148.887C84.025 149.254 83.9149 149.732 83.9516 150.319C87.9913 151.054 95.7767 151.678 99.0452 151.899C96.1072 151.641 89.3133 150.907 84.0985 148.887Z" fill="#E68262"/>
<path d="M99.045 152.192C99.2286 152.192 99.3756 152.082 99.3756 151.899C99.3756 151.715 99.2654 151.568 99.0818 151.568C96.3642 151.348 89.4601 150.613 84.2085 148.557C84.1351 148.52 84.0249 148.52 83.9515 148.557C83.878 148.593 83.8045 148.667 83.8045 148.777C83.7311 149.108 83.621 149.658 83.6577 150.319C83.6577 150.466 83.7678 150.577 83.9147 150.613C87.9544 151.348 95.85 151.972 99.045 152.192ZM84.3554 149.291C85.8244 149.842 87.4402 150.283 89.0561 150.687C87.2933 150.503 85.6041 150.283 84.3187 150.062C84.282 149.769 84.3187 149.512 84.3554 149.291Z" fill="#E68262"/>
<path d="M100.514 152.303C100.697 152.303 100.844 152.156 100.844 152.009C100.844 151.825 100.734 151.678 100.55 151.678C100.55 151.678 99.9996 151.642 99.0815 151.568C98.8978 151.568 98.751 151.678 98.751 151.862C98.751 152.046 98.8611 152.192 99.0447 152.192C99.9628 152.303 100.514 152.303 100.514 152.303Z" fill="#E68262"/>
<path d="M89.1662 156.82C89.1295 157.113 89.1295 157.554 89.1662 158.031C94.2709 158.913 102.093 159.096 102.093 159.096C102.093 159.096 94.4912 158.325 89.1662 156.82Z" fill="#E68262"/>
<path d="M89.0927 158.325C94.1606 159.207 101.983 159.39 102.056 159.39C102.24 159.39 102.35 159.243 102.387 159.097C102.387 158.913 102.277 158.766 102.093 158.766C102.02 158.766 94.4911 157.995 89.2396 156.526C89.1661 156.489 89.056 156.526 88.9825 156.563C88.9091 156.599 88.8724 156.709 88.8356 156.783C88.7989 157.15 88.7989 157.628 88.8356 158.032C88.8724 158.178 88.9458 158.289 89.0927 158.325ZM89.4599 157.224C91.1125 157.664 92.9487 158.032 94.7115 158.362C92.912 158.215 91.0758 157.995 89.4599 157.738C89.4599 157.554 89.4599 157.37 89.4599 157.224Z" fill="#E68262"/>
<path d="M105.068 165.266C105.068 165.266 99.816 164.715 95.4458 163.907C95.4091 164.201 95.3356 164.605 95.3723 165.083C99.5588 165.376 105.068 165.266 105.068 165.266Z" fill="#E68262"/>
<path d="M102.387 165.597C103.966 165.597 105.068 165.56 105.068 165.56C105.251 165.56 105.361 165.413 105.361 165.266C105.361 165.119 105.251 164.972 105.068 164.936C105.031 164.936 99.7794 164.385 95.4459 163.577C95.3725 163.577 95.2623 163.577 95.1888 163.614C95.1154 163.65 95.0787 163.724 95.0419 163.834C94.9685 164.238 94.9318 164.679 94.9685 165.046C94.9685 165.193 95.1154 165.34 95.2623 165.34C97.6494 165.56 100.404 165.597 102.387 165.597ZM95.703 164.275C97.0985 164.532 98.5675 164.752 99.9263 164.936C98.5307 164.899 97.0618 164.862 95.703 164.752C95.6663 164.605 95.6663 164.458 95.703 164.275Z" fill="#E68262"/>
<path d="M206.353 137.246L170.216 136.218C170.216 136.218 170.179 137.099 170.143 138.531C174.623 140.441 192.801 147.492 206.94 144.334C206.72 140.074 206.353 137.246 206.353 137.246Z" fill="#E68262"/>
<path d="M199.081 145.472C201.799 145.472 204.479 145.215 207.013 144.664C207.16 144.627 207.27 144.48 207.27 144.333C207.013 140.074 206.683 137.209 206.683 137.209C206.646 137.062 206.536 136.952 206.389 136.915L170.253 135.887C170.069 135.887 169.959 136.034 169.922 136.181C169.922 136.181 169.885 137.099 169.849 138.494C169.849 138.641 169.922 138.751 170.032 138.788C174.219 140.624 186.889 145.472 199.081 145.472ZM170.51 136.548L206.059 137.54C206.132 138.311 206.426 140.735 206.609 144.113C192.911 147.014 175.725 140.551 170.436 138.347C170.473 137.54 170.51 136.915 170.51 136.548Z" fill="#E68262"/>
<path d="M185.603 82.4533C179.617 83.4081 174.77 88.1456 171.244 99.8238C168.93 107.426 167.204 118.443 166.029 125.824C170.032 127.734 189.496 136.217 208.592 128.983C207.27 112.53 202.533 79.699 185.603 82.4533Z" fill="#FCD375"/>
<path d="M192.324 132.178C197.575 132.178 203.158 131.407 208.703 129.313C208.85 129.277 208.923 129.13 208.923 128.983C207.858 115.725 204.627 92.2955 194.785 84.5834C192.067 82.4534 188.945 81.6455 185.604 82.1964C178.92 83.2981 174.292 88.8801 170.987 99.7872C168.784 107.132 167.131 117.451 165.919 124.98L165.773 125.824C165.736 125.971 165.809 126.082 165.956 126.155C168.564 127.404 179.36 132.178 192.324 132.178ZM166.47 125.017C167.682 117.488 169.335 107.205 171.538 99.8973C174.77 89.2474 179.25 83.8122 185.677 82.7472C188.872 82.2331 191.773 83.0043 194.381 85.0241C203.965 92.5525 207.197 115.542 208.262 128.762C189.643 135.703 170.583 127.587 166.397 125.604L166.47 125.017Z" fill="#FCD375"/>
<path d="M209.07 138.09C209.07 138.09 208.997 134.418 208.593 128.983C189.533 136.217 170.033 127.734 166.03 125.824C165.406 129.754 164.928 132.655 164.598 133.463C163.643 135.777 188.872 145.178 209.07 138.09Z" fill="#504566"/>
<path d="M209.18 138.384C209.327 138.347 209.401 138.2 209.401 138.09C209.401 138.054 209.327 134.344 208.923 128.983C208.923 128.873 208.85 128.799 208.776 128.726C208.703 128.689 208.593 128.652 208.483 128.689C189.46 135.924 169.922 127.33 166.177 125.531C166.103 125.494 165.993 125.494 165.883 125.531C165.809 125.567 165.736 125.678 165.699 125.751C165.075 129.57 164.597 132.545 164.267 133.316C164.157 133.647 164.267 133.977 164.597 134.344C166.58 136.438 178.92 140.955 192.618 140.955C198.163 140.992 203.855 140.257 209.18 138.384ZM164.891 133.573C165.222 132.765 165.662 130.158 166.287 126.302C170.841 128.432 189.753 136.291 208.299 129.46C208.629 133.867 208.74 137.025 208.74 137.907C190.304 144.26 167.829 136.842 165.112 133.977C164.891 133.72 164.891 133.61 164.891 133.573Z" fill="#504566"/>
<path d="M199.926 104.414C199.962 104.414 199.999 104.414 200.036 104.414C200.366 104.378 200.623 104.047 200.55 103.68C200.55 103.57 200.109 100.962 199.191 98.3917C199.081 98.0612 198.714 97.8776 198.383 98.0245C198.053 98.1346 197.869 98.5019 198.016 98.8324C198.897 101.293 199.301 103.864 199.301 103.9C199.338 104.194 199.595 104.414 199.926 104.414Z" fill="#E8AE37"/>
<path d="M196.768 100.962C196.804 100.962 196.804 100.962 196.841 100.962C197.172 100.926 197.429 100.632 197.392 100.265C197.172 98.2447 195.96 95.6006 195.923 95.4904C195.776 95.1599 195.409 95.0498 195.078 95.1967C194.748 95.3436 194.638 95.7108 194.785 96.0413C194.785 96.078 195.96 98.612 196.143 100.411C196.18 100.742 196.437 100.962 196.768 100.962Z" fill="#E8AE37"/>
<path d="M120.896 377.054C127.616 374.63 141.829 364.347 149.504 361.593C157.142 358.839 177.341 344.186 177.671 340.844C177.745 339.962 176.827 337.502 175.394 334.38C172.016 338.567 155.123 350.502 150.495 352.559C145.611 354.725 130.15 365.045 118.913 370.59C110.026 374.96 101.542 373.124 98.3105 372.133C98.5309 373.675 98.5309 375.071 100.147 377.017C101.763 379 114.175 379.514 120.896 377.054Z" fill="#E46790"/>
<path d="M99.9263 377.274C100.844 378.376 104.847 379 109.364 379C113.404 379 117.884 378.486 121.043 377.347C124.311 376.172 129.232 373.198 134.447 370.076C139.992 366.734 145.684 363.319 149.651 361.887C157.069 359.206 177.671 344.516 178.002 340.88C178.075 339.999 177.341 337.832 175.725 334.27C175.688 334.16 175.578 334.087 175.468 334.087C175.357 334.087 175.247 334.123 175.174 334.197C171.722 338.457 154.865 350.282 150.385 352.302C148.218 353.256 143.922 355.864 138.927 358.875C132.721 362.621 125.009 367.248 118.766 370.37C109.989 374.703 101.616 372.867 98.4206 371.912C98.2737 371.876 98.1268 371.912 98.0534 372.059C98.0166 372.133 97.98 372.206 98.0167 372.316L98.0901 372.794C98.237 374.079 98.3839 375.475 99.9263 377.274ZM119.023 370.884C125.303 367.762 133.015 363.135 139.221 359.389C144.179 356.415 148.439 353.807 150.605 352.853C155.012 350.906 171.171 339.558 175.284 334.968C177.047 338.861 177.341 340.293 177.304 340.807C177.01 343.929 157.179 358.471 149.357 361.299C145.354 362.731 139.625 366.183 134.043 369.525C128.865 372.647 123.944 375.585 120.749 376.76C114.028 379.22 101.836 378.596 100.367 376.87C98.9715 375.217 98.8245 373.969 98.6776 372.647V372.61C102.277 373.638 110.503 375.144 119.023 370.884Z" fill="#E46790"/>
<path d="M118.913 370.627C130.15 365.082 145.611 354.762 150.495 352.595C155.086 350.539 172.016 338.603 175.394 334.417C171.465 325.787 163.753 311.868 162.688 310.473C161.255 308.563 160.08 310.473 160.08 310.473C153.213 327.66 134.631 327.035 134.631 327.035C134.594 326.999 134.557 326.999 134.484 326.962C134.337 334.197 126.074 348.372 126.074 348.372C119.427 345.948 115.204 346.426 113.147 347.05C113.037 347.307 112.927 347.491 112.853 347.674C111.531 350.539 104.517 357.039 99.5223 362.511C94.6013 367.946 98.2002 372.059 98.3104 372.169C101.505 373.161 110.025 374.997 118.913 370.627Z" fill="#4461AB"/>
<path d="M106.794 373.712C110.393 373.712 114.689 373.051 119.06 370.884C125.339 367.762 133.051 363.135 139.258 359.389C144.216 356.415 148.476 353.807 150.642 352.853C155.159 350.833 172.199 338.897 175.651 334.601C175.725 334.49 175.725 334.38 175.688 334.27C171.759 325.567 163.973 311.611 162.982 310.253C162.467 309.592 161.917 309.224 161.366 309.261C160.448 309.298 159.897 310.216 159.86 310.326C153.507 326.228 136.834 326.705 134.888 326.705C134.851 326.705 134.814 326.705 134.777 326.705L134.704 326.668C134.594 326.632 134.484 326.632 134.41 326.668C134.3 326.742 134.263 326.815 134.263 326.925C134.116 333.499 127.065 346.132 126 347.968C119.647 345.691 115.497 346.022 113.11 346.72C113.037 346.756 112.963 346.793 112.927 346.903L112.633 347.528C111.752 349.4 108.299 352.963 104.664 356.709C102.864 358.581 100.991 360.491 99.3756 362.291C94.3077 367.873 97.98 372.169 98.1269 372.353C98.1636 372.39 98.2004 372.426 98.2738 372.463C99.8897 372.977 102.975 373.712 106.794 373.712ZM99.7795 362.731C101.395 360.932 103.268 359.022 105.068 357.149C108.777 353.33 112.229 349.768 113.147 347.785L113.367 347.307C115.314 346.756 119.464 346.279 125.964 348.666C126.111 348.703 126.258 348.666 126.331 348.519C126.661 347.931 134.374 334.637 134.777 327.329C134.777 327.329 134.778 327.329 134.814 327.329C136.834 327.329 153.874 326.852 160.337 310.62C160.337 310.62 160.778 309.959 161.329 309.922C161.696 309.922 162.027 310.142 162.431 310.657C163.422 311.979 171.061 325.713 174.99 334.38C171.281 338.75 154.755 350.355 150.349 352.302C148.182 353.256 143.885 355.864 138.891 358.875C132.684 362.621 124.972 367.248 118.729 370.37C110.062 374.667 101.726 372.904 98.4575 371.912C98.0535 371.325 95.3359 367.616 99.7795 362.731Z" fill="#4461AB"/>
<path d="M126.074 348.372C126.074 348.372 134.374 334.16 134.484 326.962C122.659 320.572 121.3 326.007 121.3 326.007C122.181 327.623 115.02 342.937 113.11 347.05C115.24 346.462 119.427 345.948 126.074 348.372Z" fill="#283A84"/>
<path d="M112.853 346.903C112.816 347.013 112.817 347.16 112.89 347.234C112.963 347.344 113.11 347.381 113.22 347.344C115.093 346.793 119.28 346.242 125.964 348.666C126 348.666 126.037 348.703 126.074 348.703C126.184 348.703 126.294 348.629 126.331 348.556C126.661 347.968 134.667 334.197 134.814 326.962C134.814 326.852 134.741 326.742 134.631 326.668C127.947 323.069 124.568 323.216 122.879 323.951C121.336 324.648 121.043 325.86 121.006 325.897C120.969 325.97 121.006 326.044 121.043 326.117C121.3 326.558 120.969 329.459 112.89 346.793L112.853 346.903ZM121.667 326.007C121.777 325.75 122.108 325.016 123.173 324.538C124.715 323.877 127.873 323.767 134.19 327.146C133.933 333.756 126.992 346.169 125.927 348.005C122.218 346.683 119.28 346.242 117.003 346.242C115.681 346.242 114.616 346.389 113.698 346.573C121.226 330.488 121.961 326.962 121.667 326.007Z" fill="#283A84"/>
<path d="M128.241 38.3846C124.568 39.8903 122.144 45.5825 116.452 46.6475C116.452 46.6475 121.483 57.4811 123.65 59.5376C125.817 61.5575 123.246 63.8711 121.079 65.3768C118.913 66.8824 125.156 67.2864 127.58 68.2412C130.003 69.1961 133.272 78.2669 140.323 75.6962C147.264 73.1623 147.888 68.0209 149.467 68.2412C150.128 66.9192 150.899 64.7157 150.495 62.6959C149.944 60.1252 152.368 65.7807 152.515 70.2978C153.69 71.6198 154.719 73.6029 154.719 76.1736C154.719 81.0212 154.976 82.8941 159.456 77.6059C163.936 72.3176 169.225 66.5152 167.058 66.405C164.634 66.2949 151.34 54.8002 153.36 54.029C155.38 53.2211 160.925 46.4639 153.617 41.7999C145.942 36.9157 142.783 46.6842 143.665 48.5939C143.518 54.7268 131.913 36.9156 128.241 38.3846Z" fill="#F9C09D"/>
<path d="M143.004 49.5488C142.159 49.916 139.331 46.9414 137.054 44.5543C133.639 40.9921 130.077 37.3197 128.13 38.0909C126.588 38.7152 125.266 40.074 123.87 41.4695C121.924 43.4526 119.684 45.6928 116.415 46.3171C116.305 46.3538 116.232 46.3905 116.195 46.5007C116.158 46.6109 116.158 46.6843 116.195 46.7945C116.415 47.2352 121.263 57.7382 123.466 59.7581C123.98 60.2355 124.238 60.7496 124.164 61.3372C124.091 62.4022 122.989 63.6875 120.896 65.1198C120.455 65.4136 120.271 65.7441 120.308 66.0746C120.455 66.8458 121.961 67.213 124.384 67.7272C125.523 67.9842 126.698 68.2046 127.433 68.4984C128.094 68.7554 128.901 69.747 129.82 70.9222C132.133 73.8234 135.255 77.8263 140.396 75.9534C144.876 74.3008 146.823 71.5465 147.998 69.8939C148.586 69.0492 148.99 68.4249 149.394 68.4984C149.54 68.4984 149.651 68.4616 149.724 68.3148C150.312 67.1396 150.899 65.5237 150.899 63.8344C151.413 65.4503 152.074 67.9475 152.148 70.2244C152.148 70.2979 152.185 70.3713 152.221 70.408C153.176 71.5097 154.351 73.346 154.351 76.0635C154.351 78.7811 154.425 80.5806 155.38 80.9478C155.49 80.9845 155.6 81.0213 155.71 81.0213C156.555 81.0213 157.693 80.0297 159.639 77.7161C160.227 77.0183 160.815 76.3206 161.402 75.6228C165.662 70.6651 168.233 67.5436 167.756 66.4418C167.682 66.2582 167.462 66.0379 167.021 66.0011C165.185 65.9277 155.93 58.2524 153.8 55.0574C153.36 54.3964 153.396 54.2127 153.433 54.2127C154.718 53.6986 157.216 51.1279 157.546 47.9697C157.73 46.2069 157.216 43.5995 153.764 41.4328C150.091 39.0824 147.557 40.1107 146.088 41.396C143.811 43.3424 142.783 47.1617 143.334 48.5572C143.297 49.1448 143.187 49.4753 143.004 49.5488ZM143.958 48.5572C143.958 48.5205 143.958 48.4471 143.922 48.4103C143.518 47.4922 144.215 43.93 146.492 41.9102C148.365 40.2943 150.752 40.3311 153.433 42.0204C155.967 43.6362 157.142 45.656 156.922 47.9697C156.665 50.724 154.388 53.2212 153.213 53.6986C152.919 53.8088 152.772 54.1026 152.809 54.4698C153.176 56.7834 164.597 66.5887 167.021 66.6989C167.094 66.6989 167.205 66.7356 167.205 66.7724C167.572 67.5803 163.753 72.0239 160.962 75.2923C160.374 75.9901 159.75 76.6878 159.199 77.3856C156.885 80.1399 155.967 80.5438 155.637 80.4337C155.012 80.2133 155.012 77.7528 155.012 76.137C155.012 73.2725 153.837 71.3261 152.809 70.1142C152.662 66.6622 151.156 61.9615 150.605 61.7044C150.495 61.6677 150.348 61.6677 150.238 61.7412C150.055 61.8881 150.055 62.1451 150.165 62.696C150.532 64.5322 149.908 66.4786 149.247 67.8741C148.622 67.9475 148.108 68.6086 147.484 69.5267C146.309 71.216 144.509 73.7866 140.212 75.3291C135.512 77.0551 132.5 73.2725 130.334 70.5182C129.306 69.2329 128.498 68.2046 127.69 67.8741C126.882 67.5436 125.707 67.3232 124.531 67.0661C123.209 66.7724 121.006 66.3317 120.932 65.9277C120.932 65.891 120.969 65.7808 121.263 65.5972C123.54 64.0181 124.678 62.6593 124.788 61.3372C124.862 60.566 124.531 59.8682 123.87 59.2439C121.997 57.4812 117.811 48.7041 116.93 46.8312C120.198 46.06 122.365 43.8565 124.311 41.8735C125.67 40.5147 126.955 39.1926 128.387 38.605C129.93 37.9807 133.639 41.8 136.614 44.9216C139.955 48.4103 142.085 50.5036 143.261 50.0629C143.922 49.8426 143.958 48.8877 143.958 48.5572Z" fill="#F9C09D"/>
<path d="M149.54 68.2412C150.311 68.4248 151.45 69.1226 152.478 70.261C152.331 65.7807 149.944 60.0885 150.458 62.6592C150.899 64.7157 150.091 66.8824 149.43 68.2045C149.504 68.2412 149.504 68.2412 149.54 68.2412Z" fill="#E68262"/>
<path d="M149.21 68.3882C149.246 68.4617 149.357 68.5351 149.467 68.5351C150.091 68.682 151.229 69.3063 152.258 70.4815C152.331 70.5549 152.405 70.5916 152.478 70.5916C152.515 70.5916 152.552 70.5917 152.588 70.5549C152.698 70.5182 152.809 70.3713 152.772 70.2611C152.662 66.8091 151.119 61.9982 150.568 61.7412C150.458 61.7044 150.311 61.7044 150.201 61.7779C150.018 61.9248 150.018 62.1819 150.128 62.7327C150.532 64.6424 149.797 66.6989 149.136 68.0944C149.136 68.1679 149.173 68.278 149.21 68.3882ZM150.936 63.9079C151.413 65.3034 151.964 67.4334 152.148 69.4532C151.34 68.7187 150.532 68.2413 149.944 68.021C150.422 66.8825 150.936 65.4136 150.936 63.9079Z" fill="#E68262"/>
<path d="M130.15 57.481C131.289 56.5629 130.995 54.286 129.489 52.3764C127.984 50.4667 125.817 49.6588 124.679 50.5402C123.54 51.4216 123.834 53.7352 125.34 55.6448C126.845 57.5545 129.012 58.3991 130.15 57.481Z" fill="white"/>
<path d="M128.975 58.1787C129.489 58.1787 129.967 58.0318 130.334 57.7381C131.619 56.7098 131.362 54.2493 129.71 52.1927C128.057 50.0995 125.744 49.2915 124.458 50.3198C123.797 50.8339 123.54 51.7153 123.687 52.7803C123.834 53.8086 124.311 54.9103 125.083 55.8651C126.258 57.3341 127.727 58.1787 128.975 58.1787ZM124.826 50.7972C125.083 50.5769 125.413 50.5034 125.78 50.5034C126.809 50.5034 128.167 51.2746 129.196 52.56C130.591 54.3227 130.922 56.4527 129.93 57.2239C128.939 57.9951 126.956 57.1872 125.56 55.4612C124.862 54.5798 124.422 53.5882 124.275 52.6701C124.201 51.8255 124.385 51.1645 124.826 50.7972Z" fill="white"/>
<path d="M129.379 57.885C130.114 57.2975 129.783 55.6449 128.608 54.1759C127.433 52.7069 125.891 52.0092 125.156 52.5601C124.422 53.1476 124.752 54.8002 125.927 56.2692C127.102 57.7381 128.645 58.4726 129.379 57.885Z" fill="#191446"/>
<path d="M128.755 58.3991C129.085 58.3991 129.342 58.3257 129.6 58.1421C130.481 57.4443 130.15 55.6081 128.865 53.9922C128.277 53.2577 127.58 52.6702 126.882 52.3396C126.111 51.9724 125.45 51.9724 125.009 52.3396C124.128 53.0374 124.458 54.8736 125.744 56.4895C126.625 57.7014 127.837 58.3991 128.755 58.3991ZM125.34 52.8171C125.45 52.7436 125.597 52.6702 125.78 52.6702C126.001 52.6702 126.258 52.7436 126.551 52.8905C127.139 53.1843 127.8 53.6984 128.314 54.3595C129.453 55.7917 129.636 57.2239 129.159 57.6279C128.645 58.0319 127.286 57.481 126.184 56.0855C125.046 54.6533 124.825 53.221 125.34 52.8171Z" fill="#191446"/>
<path d="M129.746 54.8738C129.746 54.3964 129.342 53.9924 128.865 53.9924C128.387 53.9924 127.983 54.3964 127.983 54.8738C127.983 55.3512 128.387 55.7552 128.865 55.7552C129.342 55.7552 129.746 55.388 129.746 54.8738Z" fill="white"/>
<path d="M130.077 54.8738C130.077 54.2127 129.526 53.6619 128.865 53.6619C128.204 53.6619 127.653 54.2127 127.653 54.8738C127.653 55.5348 128.204 56.0856 128.865 56.0856C129.526 56.0856 130.077 55.5348 130.077 54.8738ZM128.314 54.8738C128.314 54.58 128.571 54.3229 128.865 54.3229C129.159 54.3229 129.416 54.58 129.416 54.8738C129.416 55.1675 129.159 55.4246 128.865 55.4246C128.571 55.4613 128.314 55.2043 128.314 54.8738Z" fill="white"/>
<path d="M121.006 48.2633C121.079 48.2633 121.19 48.2266 121.263 48.1899C121.263 48.1899 122.622 47.5289 123.76 47.2718C124.091 47.1983 124.311 46.8678 124.238 46.5006C124.164 46.1701 123.834 45.9497 123.466 46.0232C122.181 46.317 120.749 46.978 120.676 47.0147C120.345 47.1616 120.235 47.5289 120.382 47.8594C120.529 48.1165 120.749 48.2633 121.006 48.2633Z" fill="#62392C"/>
<path d="M133.676 68.535C133.345 68.4983 133.015 68.7554 132.978 69.0859C132.941 69.4164 133.198 69.7469 133.529 69.7836C133.566 69.7836 133.676 69.8204 133.896 69.8204C134.447 69.8204 135.512 69.7102 136.173 68.939C136.761 68.2412 136.871 67.2497 136.504 65.9643C136.393 65.6338 136.063 65.4502 135.732 65.5236C135.402 65.6338 135.218 65.9643 135.292 66.2948C135.475 66.8824 135.585 67.6536 135.218 68.0943C134.851 68.5717 133.97 68.5717 133.676 68.535Z" fill="#62392C"/>
<path d="M149.431 44.2237C149.1 44.187 148.77 44.4441 148.733 44.7746L148.145 49.9894C148.109 50.2097 148.219 50.4301 148.366 50.5403C148.476 50.6504 148.623 50.6871 148.77 50.6871C148.843 50.6871 148.916 50.6871 148.953 50.6504L154.095 48.9611C154.425 48.8509 154.609 48.4837 154.498 48.1532C154.388 47.8227 154.021 47.639 153.691 47.7492L149.504 49.1447L149.982 44.9215C150.018 44.5542 149.761 44.2604 149.431 44.2237Z" fill="#62392C"/>
<path d="M153.25 25.5681C153.286 25.8986 153.544 26.1557 153.874 26.1557H153.911C154.241 26.119 154.535 25.8252 154.498 25.4947C154.351 23.1076 151.524 20.5369 151.377 20.4635C151.12 20.2431 150.716 20.2431 150.495 20.5369C150.275 20.794 150.275 21.198 150.569 21.4183C151.267 22.0059 153.14 23.989 153.25 25.5681Z" fill="#E46790"/>
<path d="M112.559 44.7013C113.477 44.7013 114.506 44.6279 115.497 44.4442C115.828 44.3708 116.048 44.0403 116.011 43.7098C115.938 43.3792 115.607 43.1589 115.277 43.1956C112.596 43.7098 109.585 43.1956 109.548 43.1956C109.217 43.1589 108.887 43.3792 108.813 43.7098C108.74 44.0403 108.997 44.3708 109.328 44.4442C109.401 44.4442 110.76 44.7013 112.559 44.7013Z" fill="#E46790"/>
<path d="M115.387 42.1671C116.673 42.1671 118.399 41.9468 119.794 41.1021C120.088 40.9185 120.198 40.5145 120.014 40.2208C119.831 39.927 119.427 39.8168 119.133 40.0004C116.93 41.3592 113.661 40.7349 113.625 40.7349C113.294 40.6614 112.963 40.8818 112.89 41.249C112.817 41.5796 113.037 41.9101 113.404 41.9835C113.441 42.0202 114.249 42.1671 115.387 42.1671Z" fill="#E46790"/>
<path d="M193.977 177.348C194.491 177.348 197.869 177.165 199.191 172.611C199.302 172.28 199.081 171.913 198.751 171.84C198.42 171.73 198.053 171.95 197.98 172.28C196.841 176.173 194.087 176.1 193.977 176.1C193.573 176.063 193.316 176.357 193.316 176.687C193.279 177.055 193.573 177.348 193.903 177.348C193.94 177.348 193.94 177.348 193.977 177.348Z" fill="#F9AE82"/>
<path d="M193.683 181.168C195.372 181.168 197.796 180.764 199.155 178.67C199.338 178.377 199.265 177.973 198.971 177.789C198.677 177.605 198.273 177.679 198.09 177.973C196.4 180.58 192.177 179.772 192.14 179.772C191.81 179.699 191.479 179.919 191.406 180.25C191.332 180.58 191.553 180.911 191.883 180.984C191.92 181.021 192.691 181.168 193.683 181.168Z" fill="#F9AE82"/>
<path d="M126.588 120.757C126.625 120.757 130.187 120.316 132.905 120.757C132.941 120.757 132.978 120.757 133.015 120.757C133.308 120.757 133.602 120.536 133.639 120.243C133.712 119.912 133.455 119.582 133.125 119.508C130.224 119.031 126.588 119.471 126.441 119.508C126.111 119.545 125.853 119.875 125.89 120.206C125.927 120.536 126.221 120.793 126.588 120.757Z" fill="#F9AE82"/>
<path d="M128.387 168.351C128.718 168.241 128.902 167.874 128.791 167.543C128.681 167.213 128.314 167.029 127.983 167.139C124.348 168.314 121.63 168.314 121.594 168.314C121.226 168.314 120.969 168.608 120.969 168.939C120.969 169.306 121.263 169.563 121.594 169.563C121.74 169.6 124.531 169.6 128.387 168.351Z" fill="#F9AE82"/>
<path d="M80.9767 223.474C80.6462 223.437 80.3157 223.657 80.2422 223.988C80.2055 224.135 79.6914 227.44 81.3439 232.618C81.4174 232.875 81.6745 233.059 81.9316 233.059C82.005 233.059 82.0784 233.059 82.1152 233.022C82.4457 232.912 82.6293 232.545 82.5191 232.214C80.9767 227.366 81.4541 224.208 81.4541 224.171C81.5643 223.878 81.3439 223.547 80.9767 223.474Z" fill="#F9AE82"/>
<path d="M83.5839 219.397C83.2534 219.324 82.9228 219.581 82.8494 219.912C82.8127 220.095 82.1149 224.355 82.8494 228.358C82.9228 228.652 83.1799 228.872 83.4737 228.872C83.5104 228.872 83.5472 228.872 83.5839 228.872C83.9144 228.799 84.1714 228.468 84.098 228.138C83.4002 224.318 84.098 220.169 84.098 220.132C84.1347 219.801 83.9144 219.471 83.5839 219.397Z" fill="#F9AE82"/>
<path d="M158.648 32.5087H158.685C159.016 32.472 159.309 32.1782 159.273 31.8477C158.979 27.147 157.363 24.2458 157.29 24.0989C157.106 23.8052 156.739 23.695 156.445 23.8786C156.151 24.0622 156.041 24.4295 156.225 24.7233C156.225 24.76 157.767 27.5143 158.024 31.9212C158.024 32.2517 158.281 32.5087 158.648 32.5087Z" fill="#E46790"/>
</g>
<defs>
<filter id="filter0_dd_3_13338" x="0" y="0" width="244.354" height="431" filterUnits="userSpaceOnUse" color-interpolation-filters="sRGB">
<feFlood flood-opacity="0" result="BackgroundImageFix"/>
<feColorMatrix in="SourceAlpha" type="matrix" values="0 0 0 0 0 0 0 0 0 0 0 0 0 0 0 0 0 0 127 0" result="hardAlpha"/>
<feMorphology radius="8" operator="erode" in="SourceAlpha" result="effect1_dropShadow_3_13338"/>
<feOffset dy="20"/>
<feGaussianBlur stdDeviation="20"/>
<feColorMatrix type="matrix" values="0 0 0 0 0.0627451 0 0 0 0 0.0941176 0 0 0 0 0.156863 0 0 0 0.1 0"/>
<feBlend mode="normal" in2="BackgroundImageFix" result="effect1_dropShadow_3_13338"/>
<feColorMatrix in="SourceAlpha" type="matrix" values="0 0 0 0 0 0 0 0 0 0 0 0 0 0 0 0 0 0 127 0" result="hardAlpha"/>
<feMorphology radius="8" operator="erode" in="SourceAlpha" result="effect2_dropShadow_3_13338"/>
<feOffset dy="20"/>
<feGaussianBlur stdDeviation="20"/>
<feColorMatrix type="matrix" values="0 0 0 0 0.0627451 0 0 0 0 0.0941176 0 0 0 0 0.156863 0 0 0 0.05 0"/>
<feBlend mode="normal" in2="effect1_dropShadow_3_13338" result="effect2_dropShadow_3_13338"/>
<feBlend mode="normal" in="SourceGraphic" in2="effect2_dropShadow_3_13338" result="shape"/>
</filter>
</defs>
</svg>
