<svg width="372" height="314" viewBox="0 0 372 314" fill="none" xmlns="http://www.w3.org/2000/svg">
<g filter="url(#filter0_dd_3_13871)">
<path d="M203.522 252.39C219.815 246.966 204.058 132.037 193.18 135.653C182.302 139.269 172.301 153.049 170.691 171.764C169.716 182.758 169.911 209.194 170.204 229.033L184.106 186.032C184.106 186.032 184.838 238.464 181.423 255.078C187.521 255.371 195.57 255.029 203.522 252.39Z" fill="#C0C3D6"/>
<path d="M181.082 255.273C181.18 255.371 181.277 255.42 181.375 255.42C182.692 255.468 184.009 255.517 185.326 255.517C191.912 255.517 198.058 254.589 203.619 252.732C217.132 248.237 209.668 173.816 200.302 145.475C197.766 137.754 195.375 134.382 193.034 135.164C181.131 139.122 171.765 154.075 170.252 171.617C169.277 182.612 169.472 208.852 169.765 228.935C169.765 229.131 169.911 229.326 170.106 229.326C170.35 229.375 170.496 229.228 170.545 229.033L183.619 188.475C183.716 199.226 183.863 240.565 180.936 254.833C180.985 255.078 180.985 255.175 181.082 255.273ZM184.497 185.983C184.497 185.788 184.35 185.592 184.155 185.592C183.96 185.543 183.765 185.69 183.716 185.885L170.594 226.492C170.301 206.8 170.204 182.269 171.131 171.813C172.643 154.612 181.765 139.953 193.326 136.093C195.034 135.555 197.326 139.073 199.57 145.866C204.107 159.645 208.302 185.104 209.668 207.826C211.278 233.675 208.937 250.191 203.424 252.048C196.985 254.198 189.765 255.078 181.96 254.687C185.18 237.682 184.497 186.521 184.497 185.983Z" fill="#C0C3D6"/>
<path d="M170.691 253.563C170.691 253.563 175.033 254.638 181.423 255.029C184.789 238.415 184.106 185.983 184.106 185.983L170.204 228.984C170.399 242.861 170.691 253.563 170.691 253.563Z" fill="#9FA3B5"/>
<path d="M184.155 185.592C183.96 185.543 183.765 185.69 183.716 185.886L169.813 228.886C169.813 228.935 169.813 228.984 169.813 229.033C170.009 242.764 170.301 253.514 170.301 253.612C170.301 253.807 170.448 253.954 170.594 254.003C170.643 254.003 175.033 255.126 181.424 255.469C181.619 255.469 181.814 255.322 181.814 255.126C185.18 238.659 184.497 186.521 184.497 185.983C184.497 185.788 184.351 185.592 184.155 185.592ZM181.082 254.589C175.96 254.296 172.155 253.514 171.082 253.27C171.033 251.364 170.789 241.444 170.594 229.082L183.668 188.573C183.765 199.274 183.912 240.027 181.082 254.589Z" fill="#9FA3B5"/>
<path d="M186.692 134.48C179.863 140.051 181.326 146.745 181.326 146.745C181.326 146.745 187.96 157.398 195.766 149.824C203.619 142.201 193.522 128.91 186.692 134.48Z" fill="#504566"/>
<path d="M186.448 134.138C179.472 139.806 180.887 146.501 180.936 146.794C180.936 146.843 180.985 146.892 180.985 146.941C181.131 147.136 184.351 152.316 189.131 152.902C189.424 152.951 189.717 152.951 190.009 152.951C192.107 152.951 194.156 152.022 196.107 150.117C200.595 145.768 199.473 139.464 196.156 135.751C193.717 132.965 189.766 131.451 186.448 134.138ZM195.522 149.481C193.522 151.436 191.375 152.316 189.229 152.022C185.131 151.534 182.107 147.087 181.716 146.55C181.57 145.817 180.692 139.904 186.936 134.773C190.009 132.232 193.473 133.991 195.473 136.239C198.595 139.709 199.619 145.523 195.522 149.481Z" fill="#504566"/>
<path d="M193.814 248.237C201.717 249.116 239.523 252.439 265.134 240.809C265.036 239.881 264.89 238.855 264.743 237.828C253.28 237.242 238.645 177.823 238.645 177.823C243.523 175.38 252.206 187.4 258.987 201.327L257.085 130.033C257.085 130.033 222.205 113.859 198.546 117.573C174.887 121.287 166.935 118.843 166.935 118.843C166.935 118.843 130.398 125.245 118.495 142.836C110.885 154.075 106.202 196 103.128 219.993C114.348 202.841 132.056 182.025 132.056 182.025C132.056 182.025 135.812 209.438 127.324 225.319C124.251 231.085 122.251 237.389 120.983 243.155C134.934 247.406 156.789 251.852 178.106 247.308C180.789 223.951 191.375 149.481 186.253 144.693C180.448 139.269 174.545 126.027 185.375 126.564C196.205 127.102 192.985 143.178 192.985 143.178C190.985 152.365 190.497 221.068 193.814 248.237Z" fill="#FCD375"/>
<path d="M193.375 248.285C193.375 248.481 193.57 248.627 193.765 248.676C196.79 249.018 204.985 249.8 215.376 249.8C230.401 249.8 250.06 248.188 265.28 241.249C265.426 241.151 265.524 241.005 265.524 240.809C265.426 239.881 265.28 238.855 265.133 237.828C265.085 237.633 264.938 237.486 264.743 237.486C261.621 237.34 256.109 232.013 247.767 207.581C243.181 194.095 239.718 180.51 239.133 178.214C239.767 178.018 240.45 178.018 241.23 178.312C245.669 179.826 252.304 188.769 258.597 201.669C258.694 201.864 258.889 201.962 259.084 201.913C259.279 201.864 259.426 201.669 259.426 201.473L257.523 130.18C257.523 130.033 257.426 129.887 257.279 129.789C256.938 129.642 222.01 113.615 198.497 117.28C175.277 120.945 167.13 118.599 167.081 118.599C167.033 118.599 166.935 118.55 166.886 118.599C166.496 118.648 130.007 125.196 118.153 142.738C111.128 153.097 106.543 189.501 103.518 213.592C103.226 215.839 102.982 217.989 102.689 220.042C102.64 220.237 102.787 220.433 102.982 220.482C103.177 220.53 103.372 220.482 103.47 220.335C113.372 205.187 128.495 187.009 131.763 183.149C132.3 188.133 134.397 211.344 126.934 225.221C124.202 230.303 122.056 236.314 120.543 243.155C120.495 243.35 120.641 243.594 120.836 243.643C135.324 248.041 157.032 252.341 178.155 247.797C178.35 247.748 178.448 247.601 178.496 247.455C178.984 243.399 179.667 237.828 180.497 231.378C185.765 189.502 190.594 148.26 186.545 144.448C182.301 140.49 178.545 133.063 180.106 129.349C180.789 127.688 182.545 126.906 185.326 127.004C187.667 127.102 189.472 127.981 190.741 129.594C194.302 134.138 192.546 143.031 192.546 143.129C190.448 152.853 190.204 221.996 193.375 248.285ZM191.326 129.056C189.911 127.248 187.863 126.222 185.277 126.124C181.375 125.929 179.814 127.59 179.228 128.958C177.374 133.307 181.862 141.223 185.863 144.986C189.96 148.797 183.18 202.402 179.57 231.183C178.789 237.486 178.106 242.959 177.618 246.966C156.935 251.315 135.715 247.162 121.373 242.861C122.885 236.265 124.983 230.401 127.568 225.515C136.056 209.683 132.397 182.221 132.349 181.976C132.349 181.83 132.202 181.683 132.056 181.634C131.91 181.585 131.714 181.634 131.617 181.781C131.422 181.976 114.738 201.571 103.616 218.283C103.811 216.768 104.006 215.253 104.201 213.641C107.226 189.648 111.763 153.342 118.69 143.129C130.056 126.32 164.691 119.723 166.789 119.332C167.813 119.625 176.155 121.531 198.497 118.013C220.742 114.543 253.474 128.958 256.548 130.327L258.401 199.47C253.474 189.648 246.645 179.191 241.425 177.432C240.303 177.041 239.279 177.09 238.401 177.53C238.206 177.627 238.157 177.823 238.157 178.018C238.206 178.165 241.864 193.069 246.938 207.826C253.572 227.322 259.426 237.584 264.304 238.317C264.402 239.099 264.499 239.881 264.597 240.663C239.376 251.95 202.205 248.823 194.155 247.943C190.838 219.846 191.521 151.974 193.277 143.373C193.375 142.885 195.082 133.894 191.326 129.056Z" fill="#FCD375"/>
<path d="M119.129 254.003C123.373 255.517 128.202 256.739 133.568 257.228C153.667 259.133 177.18 262.603 177.423 253.563C177.472 252.537 177.667 250.338 178.009 247.308C156.74 251.853 134.837 247.357 120.885 243.155C120.007 247.21 119.47 250.973 119.129 254.003Z" fill="#504566"/>
<path d="M121.031 242.764C120.934 242.715 120.788 242.764 120.69 242.812C120.592 242.861 120.495 242.959 120.495 243.106C119.714 246.624 119.129 250.289 118.69 254.002C118.69 254.198 118.787 254.393 118.983 254.442C123.763 256.153 128.641 257.228 133.52 257.716C135.715 257.912 137.959 258.156 140.252 258.4C148.105 259.182 156.106 260.013 162.691 260.013C168.887 260.013 173.814 259.28 176.204 257.179C177.277 256.25 177.814 255.077 177.863 253.66C177.911 252.683 178.058 250.729 178.448 247.455C178.448 247.308 178.399 247.21 178.302 247.113C178.204 247.015 178.058 246.966 177.911 247.015C156.984 251.364 135.422 247.113 121.031 242.764ZM176.984 253.563C176.936 254.735 176.497 255.664 175.619 256.446C170.935 260.55 155.374 258.987 140.3 257.472C138.056 257.228 135.812 257.032 133.568 256.788C128.885 256.348 124.202 255.322 119.568 253.709C119.958 250.289 120.495 246.917 121.227 243.692C135.569 247.992 156.789 252.146 177.521 247.846C177.18 250.826 177.033 252.634 176.984 253.563Z" fill="#504566"/>
<path d="M193.814 248.237C194.497 253.856 195.326 257.716 196.351 258.889C202.302 265.632 265.524 258.596 265.767 249.703C265.816 247.797 265.572 244.621 265.085 240.858C239.474 252.439 201.717 249.067 193.814 248.237Z" fill="#504566"/>
<path d="M265.28 240.418C265.182 240.369 265.036 240.369 264.89 240.418C239.279 252.048 201.18 248.579 193.814 247.797C193.668 247.797 193.57 247.846 193.473 247.894C193.375 247.992 193.326 248.09 193.375 248.237C194.107 254.394 194.985 257.912 196.009 259.133C197.765 261.137 204.058 261.967 212.205 261.967C226.986 261.967 247.865 259.182 258.743 255.224C263.621 253.465 266.158 251.559 266.207 249.654C266.256 247.895 266.012 244.865 265.524 240.711C265.475 240.614 265.426 240.516 265.28 240.418ZM265.329 249.654C265.28 251.168 262.841 252.879 258.402 254.442C240.742 260.795 200.888 263.482 196.595 258.547C196.009 257.863 195.082 255.566 194.204 248.676C202.692 249.556 239.474 252.586 264.694 241.396C265.182 245.256 265.377 247.992 265.329 249.654Z" fill="#504566"/>
<path d="M100.835 239.001C103.567 237.389 106.153 237.731 106.153 237.731C106.153 237.731 111.86 240.369 120.934 243.106C122.202 237.34 124.202 231.036 127.275 225.27C135.763 209.389 132.007 181.976 132.007 181.976C132.007 181.976 114.251 202.744 103.079 219.944C102.006 228.055 101.274 234.848 100.835 239.001Z" fill="#E8AE37"/>
<path d="M132.105 181.585C131.959 181.536 131.763 181.585 131.666 181.732C131.471 181.927 113.763 202.744 102.689 219.749C102.64 219.797 102.641 219.846 102.641 219.944C101.616 228.007 100.884 234.75 100.445 239.001C100.445 239.148 100.494 239.294 100.64 239.392C100.787 239.49 100.933 239.49 101.079 239.392C103.421 238.024 105.665 238.17 106.055 238.17C106.738 238.464 112.348 241.005 120.787 243.545C120.836 243.545 120.885 243.545 120.885 243.545C120.983 243.545 121.031 243.545 121.08 243.497C121.178 243.448 121.275 243.35 121.275 243.203C122.787 236.411 124.885 230.45 127.568 225.466C136.056 209.634 132.398 182.172 132.349 181.927C132.398 181.781 132.251 181.634 132.105 181.585ZM126.885 225.124C124.251 230.059 122.105 235.972 120.592 242.617C111.909 239.978 106.397 237.389 106.299 237.389C106.25 237.389 106.202 237.34 106.202 237.34C106.153 237.34 105.909 237.291 105.519 237.291C104.641 237.291 103.08 237.437 101.323 238.268C101.762 234.017 102.494 227.665 103.421 220.091C113.324 204.943 128.397 186.814 131.666 183.002C132.251 187.987 134.349 211.197 126.885 225.124Z" fill="#E8AE37"/>
<path d="M100.836 239.001C100.543 241.835 100.396 243.448 100.396 243.448C100.396 243.448 107.47 249.849 119.129 254.003C119.47 250.973 120.007 247.21 120.934 243.155C111.909 240.418 106.153 237.78 106.153 237.78C106.153 237.78 103.567 237.389 100.836 239.001Z" fill="#191446"/>
<path d="M106.348 237.389C106.299 237.389 106.251 237.34 106.251 237.34C106.153 237.34 103.47 236.998 100.689 238.659C100.592 238.708 100.494 238.855 100.494 239.001C100.202 241.835 100.055 243.448 100.055 243.448C100.055 243.594 100.104 243.692 100.202 243.79C100.25 243.839 107.47 250.289 119.08 254.393C119.129 254.393 119.178 254.442 119.227 254.442C119.324 254.442 119.373 254.442 119.47 254.393C119.568 254.345 119.666 254.198 119.666 254.1C120.056 250.435 120.69 246.771 121.422 243.301C121.47 243.106 121.324 242.861 121.129 242.813C112.153 240.027 106.397 237.389 106.348 237.389ZM118.787 253.416C108.543 249.702 101.909 244.23 100.836 243.301C100.884 242.813 101.031 241.396 101.226 239.294C103.519 238.024 105.665 238.17 106.055 238.17C106.69 238.464 112.153 240.907 120.446 243.448C119.714 246.673 119.178 250.044 118.787 253.416Z" fill="#191446"/>
<path d="M238.596 177.872C238.596 177.872 253.231 237.242 264.695 237.877C262.792 223.804 258.987 203.965 258.987 203.965L258.938 201.375C252.206 187.449 243.474 175.429 238.596 177.872Z" fill="#E8AE37"/>
<path d="M259.329 201.18C254.353 190.919 247.036 179.289 241.474 177.383C240.352 176.992 239.328 177.041 238.45 177.481C238.255 177.579 238.206 177.774 238.206 177.969C238.791 180.413 253.036 237.633 264.695 238.268C264.792 238.268 264.939 238.219 264.987 238.122C265.085 238.024 265.134 237.926 265.085 237.78C263.182 223.853 259.426 204.014 259.377 203.916L259.329 201.327C259.377 201.278 259.377 201.229 259.329 201.18ZM264.207 237.34C253.719 235.141 240.304 182.905 239.084 178.116C239.718 177.921 240.401 177.921 241.182 178.214C245.621 179.729 252.255 188.622 258.499 201.473L258.597 204.014C258.646 204.21 262.304 223.462 264.207 237.34Z" fill="#E8AE37"/>
<path d="M211.327 124.414C210.4 124.316 209.571 124.952 209.473 125.88C209.376 126.808 210.01 127.639 210.937 127.737C225.376 129.496 246.596 133.894 248.548 138.292C248.84 138.927 249.426 139.269 250.06 139.269C250.304 139.269 250.499 139.22 250.743 139.122C251.572 138.731 251.962 137.754 251.572 136.874C248.157 129.203 217.474 125.147 211.327 124.414Z" fill="#4461AB"/>
<path d="M160.789 127.346C159.716 127.395 134.642 128.421 117.812 151.534C117.275 152.267 117.422 153.342 118.202 153.879C118.495 154.075 118.836 154.221 119.178 154.221C119.714 154.221 120.202 153.977 120.544 153.537C136.398 131.793 160.691 130.718 160.935 130.718C161.862 130.669 162.594 129.936 162.545 128.958C162.496 128.03 161.765 127.346 160.886 127.346C160.789 127.346 160.789 127.346 160.789 127.346Z" fill="#4461AB"/>
<path d="M114.592 91.3328C112.007 97.2943 115.812 124.61 115.812 124.61L130.788 134.334C130.788 134.334 149.715 124.072 150.252 112.296C150.788 100.519 134.983 76.2825 134.983 76.2825C134.983 76.2825 117.178 85.3713 114.592 91.3328Z" fill="#F9C09D"/>
<path d="M134.837 75.9405C134.105 76.3314 116.836 85.127 114.251 91.1862C111.665 97.1965 115.275 123.583 115.422 124.707C115.422 124.805 115.519 124.951 115.617 125L130.593 134.724C130.642 134.773 130.739 134.773 130.837 134.773C130.886 134.773 130.983 134.773 131.032 134.724C131.812 134.285 150.154 124.17 150.691 112.296C151.228 100.519 136.008 77.0644 135.373 76.0382C135.227 75.8916 134.983 75.8428 134.837 75.9405ZM149.862 112.296C149.374 123.046 132.934 132.672 130.837 133.894L116.202 124.414C115.861 121.971 112.592 97.0499 114.983 91.5282C117.275 86.202 132.398 78.1882 134.837 76.8689C136.691 79.7519 150.35 101.497 149.862 112.296Z" fill="#F9C09D"/>
<path d="M128.251 101.35C120.154 105.259 119.373 121.726 119.373 121.726C119.373 121.726 123.52 120.407 126.934 116.645C130.3 112.833 146.35 114.592 147.667 115.423C148.935 116.254 136.349 97.4408 128.251 101.35Z" fill="#F9AE82"/>
<path d="M128.056 100.959C119.812 104.966 118.934 120.994 118.934 121.678C118.934 121.824 118.983 121.922 119.08 122.02C119.178 122.069 119.227 122.117 119.324 122.117C119.373 122.117 119.422 122.117 119.471 122.117C119.666 122.069 123.763 120.749 127.178 116.889C130.398 113.322 146.252 115.032 147.374 115.765C147.52 115.863 147.862 115.863 148.008 115.716C148.203 115.521 148.447 115.228 146.057 111.954C144.252 109.559 134.935 97.6364 128.056 100.959ZM146.935 114.739C143.13 113.81 129.764 112.784 126.593 116.351C124.056 119.186 121.08 120.603 119.812 121.091C120.056 118.062 121.52 105.064 128.447 101.692C129.13 101.35 129.861 101.203 130.691 101.203C131.764 101.203 132.935 101.497 134.203 102.083C139.764 104.771 145.471 112.296 146.935 114.739Z" fill="#F9AE82"/>
<path d="M127.861 79.9473C122.983 82.4394 122.788 91.8214 127.422 100.91C132.056 109.999 139.764 115.374 144.642 112.882C149.52 110.39 149.715 101.008 145.081 91.9191C140.447 82.8303 132.739 77.4552 127.861 79.9473Z" fill="#924260"/>
<path d="M127.714 79.5563C122.641 82.1462 122.397 91.8214 127.129 101.106C129.422 105.552 132.495 109.315 135.764 111.611C137.959 113.175 140.154 113.957 142.056 113.957C143.081 113.957 144.008 113.762 144.886 113.322C147.374 112.051 148.788 109.07 148.886 104.966C148.983 100.959 147.764 96.268 145.471 91.8214C140.739 82.4394 132.739 76.9665 127.714 79.5563ZM148.008 104.868C147.91 108.68 146.691 111.367 144.447 112.491C142.252 113.615 139.325 113.029 136.203 110.878C133.032 108.631 130.056 105.064 127.812 100.715C123.275 91.8213 123.422 82.6837 128.056 80.2893C128.788 79.8984 129.617 79.703 130.495 79.703C135.032 79.703 140.886 84.6383 144.691 92.0657C146.935 96.4635 148.105 101.008 148.008 104.868Z" fill="#924260"/>
<path d="M133.373 77.6018C128.593 80.045 128.446 89.2315 132.983 98.1249C137.52 107.018 145.032 112.296 149.813 109.852C154.593 107.409 154.74 98.2226 150.203 89.3293C145.666 80.3871 138.105 75.1586 133.373 77.6018Z" fill="#191446"/>
<path d="M133.178 77.2111C128.202 79.752 127.958 89.2317 132.593 98.3205C134.837 102.669 137.812 106.334 141.081 108.582C143.227 110.097 145.374 110.879 147.227 110.879C148.203 110.879 149.13 110.683 150.008 110.243C154.984 107.702 155.228 98.2228 150.593 89.134C145.959 79.9963 138.105 74.6701 133.178 77.2111ZM149.618 109.462C147.471 110.586 144.593 109.999 141.569 107.898C138.447 105.748 135.52 102.181 133.373 97.9296C128.934 89.2317 129.032 80.2896 133.617 77.9441C134.349 77.5531 135.178 77.4065 136.007 77.4065C140.447 77.4065 146.154 82.2441 149.862 89.476C154.252 98.1739 154.154 107.165 149.618 109.462Z" fill="#191446"/>
<path d="M172.155 138.536C167.96 142.689 168.496 155.834 168.496 155.834C168.496 155.834 175.326 144.546 186.692 145.572C186.692 145.621 176.302 134.382 172.155 138.536Z" fill="#E8AE37"/>
<path d="M174.594 137.168C173.472 137.168 172.546 137.51 171.863 138.194C167.619 142.445 168.058 155.296 168.106 155.834C168.106 156.029 168.253 156.176 168.399 156.225C168.448 156.225 168.448 156.225 168.497 156.225C168.643 156.225 168.789 156.127 168.838 156.029C168.887 155.932 175.668 144.986 186.643 145.963C186.839 145.963 186.985 145.866 187.083 145.719C187.18 145.572 187.131 145.377 187.034 145.23C186.692 144.986 179.521 137.265 174.594 137.168ZM185.229 145.133C176.741 145.133 170.887 151.876 168.887 154.563C168.887 151.192 169.18 142.054 172.399 138.878C172.936 138.34 173.619 138.096 174.448 138.096C174.497 138.096 174.497 138.096 174.546 138.096C178.253 138.194 183.668 143.227 185.619 145.181C185.522 145.133 185.375 145.133 185.229 145.133Z" fill="#E8AE37"/>
<path d="M192.107 145.181C192.107 145.181 201.083 138.682 212.986 153.879C212.986 153.879 208.303 135.457 203.522 135.653C198.79 135.799 193.717 138.682 192.107 145.181Z" fill="#E8AE37"/>
<path d="M203.619 135.213C203.571 135.213 203.571 135.213 203.522 135.213C198.985 135.409 193.473 138.047 191.717 145.084C191.668 145.279 191.765 145.426 191.863 145.523C192.009 145.621 192.204 145.621 192.351 145.523C192.692 145.279 201.18 139.464 212.644 154.124C212.742 154.221 212.839 154.27 212.986 154.27C213.034 154.27 213.132 154.27 213.181 154.221C213.376 154.124 213.473 153.928 213.425 153.733C212.937 151.827 208.546 135.213 203.619 135.213ZM197.229 143.422C195.229 143.422 193.668 143.911 192.79 144.351C194.692 138.487 199.522 136.19 203.571 136.044H203.619C206.839 136.044 210.449 146.305 212.108 152.071C206.107 145.084 200.888 143.422 197.229 143.422Z" fill="#E8AE37"/>
<path d="M175.521 117.573C174.009 117.915 173.131 118.159 173.131 118.159C173.131 118.159 182.156 146.403 189.083 145.621C193.961 145.084 201.473 127.981 203.083 118.355C184.058 142.836 175.521 117.573 175.521 117.573Z" fill="#F9C09D"/>
<path d="M202.693 118.062C196.693 125.831 191.18 129.301 186.302 128.519C179.326 127.346 175.911 117.573 175.911 117.475C175.863 117.28 175.619 117.133 175.424 117.182L173.033 117.769C172.936 117.817 172.838 117.866 172.741 117.964C172.692 118.062 172.692 118.208 172.692 118.306C173.082 119.479 181.668 146.061 188.741 146.061C188.839 146.061 188.936 146.061 189.083 146.061C194.497 145.426 201.961 127.395 203.473 118.453C203.522 118.257 203.425 118.062 203.229 118.013C203.034 117.817 202.839 117.866 202.693 118.062ZM188.985 145.181C188.888 145.181 188.839 145.181 188.741 145.181C183.473 145.181 176.204 126.369 173.619 118.453L175.229 118.062C175.912 119.919 179.375 128.177 186.156 129.3C191.083 130.131 196.498 126.955 202.303 119.87C200.107 130.131 193.083 144.693 188.985 145.181Z" fill="#F9C09D"/>
<path d="M201.327 111.905C195.863 112.882 181.277 116.205 175.521 117.573C175.521 117.573 184.058 142.836 203.034 118.306C203.717 114.25 203.376 111.563 201.327 111.905Z" fill="#E68262"/>
<path d="M201.278 111.514C196.058 112.442 182.838 115.472 175.423 117.182C175.326 117.231 175.228 117.28 175.131 117.378C175.082 117.475 175.082 117.622 175.082 117.72C175.228 118.159 178.643 128.079 186.156 129.349C186.643 129.447 187.18 129.496 187.717 129.496C192.546 129.496 197.766 125.831 203.376 118.599C203.424 118.55 203.424 118.501 203.473 118.404C204.059 115.081 203.863 112.882 202.937 112.003C202.644 111.66 202.107 111.318 201.278 111.514ZM202.302 112.54C202.693 112.931 203.278 114.201 202.644 118.111C196.692 125.782 191.18 129.252 186.302 128.47C180.204 127.444 176.838 119.772 176.058 117.866C182.302 116.4 196.156 113.224 201.376 112.296C201.815 112.247 202.107 112.344 202.302 112.54Z" fill="#E68262"/>
<path d="M192.107 145.181C202.205 125.342 212.986 153.879 212.986 153.879C212.986 153.879 216.059 128.421 214.498 124.316C212.986 120.212 203.327 114.543 203.327 114.543C203.327 114.543 204.302 117.378 199.083 128.177C193.863 138.976 192.107 145.181 192.107 145.181Z" fill="#2893D0"/>
<path d="M191.717 145.084C191.668 145.279 191.765 145.524 191.96 145.572C192.156 145.67 192.399 145.572 192.497 145.377C194.839 140.735 197.424 138.438 200.107 138.585C206.839 138.927 212.546 153.831 212.595 154.026C212.644 154.173 212.839 154.319 212.985 154.319H213.034C213.229 154.319 213.376 154.124 213.425 153.928C213.571 152.902 216.498 128.323 214.937 124.17C213.376 119.967 204.01 114.397 203.571 114.153C203.424 114.055 203.229 114.104 203.083 114.201C202.936 114.299 202.888 114.495 202.936 114.641C202.936 114.69 203.717 117.622 198.741 127.932C193.619 138.634 191.717 144.986 191.717 145.084ZM203.863 115.325C206.107 116.694 212.937 121.189 214.156 124.463C215.425 127.835 213.425 146.55 212.79 152.169C211.083 148.211 206.156 138.047 200.205 137.754C200.107 137.754 200.01 137.754 199.912 137.754C197.766 137.754 195.717 139.073 193.814 141.614C194.887 138.731 196.741 134.187 199.522 128.323C203.229 120.603 203.814 116.84 203.863 115.325Z" fill="#2893D0"/>
<path d="M228.645 88.352C229.181 80.9735 237.816 39.4387 202.01 28.9817C166.204 18.5247 133.861 31.8159 129.422 62.4051C129.422 62.4051 130.007 84.8827 138.983 90.6976C147.959 96.5124 148.691 118.99 143.374 121.873C140.349 123.534 147.666 122.704 154.447 121.678C158.106 116.84 155.325 105.552 153.325 103.207C151.179 100.617 149.13 92.359 147.569 87.9123C146.008 83.4656 147.52 79.3121 147.52 79.3121C147.52 79.3121 165.862 102.865 172.057 114.934C173.423 113.908 174.35 113.224 174.35 113.224H195.717C196.985 105.65 204.351 76.9667 204.351 76.9667C204.351 76.9667 209.229 77.9928 212.985 79.3121C216.742 80.6315 218.791 98.3694 212.303 105.308C208.059 109.901 209.424 116.742 210.888 120.945C213.62 122.117 216.644 123.046 219.913 123.388C219.913 123.388 215.961 112.54 219.913 107.654C223.961 102.816 228.108 95.7794 228.645 88.352Z" fill="#4461AB"/>
<path d="M229.084 88.4009C229.132 87.7656 229.23 86.8372 229.376 85.6644C230.791 73.9369 235.133 38.2171 202.107 28.5908C181.424 22.5805 161.521 24.2907 147.471 33.3307C137.178 39.9274 130.788 49.9934 128.983 62.4538C129.032 63.3822 129.666 85.2247 138.739 91.0884C144.057 94.5578 146.544 104.379 146.252 112.296C146.057 117.084 144.886 120.603 143.178 121.531C142.837 121.726 142.105 122.117 142.3 122.704C142.447 123.192 142.691 123.925 154.545 122.117C154.642 122.117 154.74 122.02 154.837 121.971C158.691 116.84 155.715 105.357 153.715 102.963C152.203 101.155 150.642 96.1215 149.423 92.0657C148.935 90.502 148.496 89.0361 148.057 87.8145C146.983 84.6383 147.471 81.6087 147.813 80.2405C150.788 84.1008 166.252 104.38 171.814 115.179C171.862 115.276 171.96 115.374 172.106 115.374C172.204 115.423 172.35 115.374 172.448 115.325C173.57 114.543 174.35 113.908 174.643 113.664H195.863C196.058 113.664 196.253 113.517 196.302 113.322C197.473 106.334 203.961 80.9734 204.839 77.5041C206.059 77.7973 209.961 78.6769 213.034 79.7519C213.961 80.0451 214.888 81.7553 215.473 84.2474C216.888 89.9157 216.791 100.128 212.156 105.064C207.912 109.657 208.985 116.302 210.644 121.14C210.693 121.238 210.79 121.336 210.888 121.384C214.01 122.704 217.083 123.534 220.01 123.877H220.059C220.205 123.877 220.303 123.828 220.4 123.73C220.498 123.632 220.498 123.486 220.449 123.339C220.4 123.241 216.595 112.638 220.4 107.996C223.327 104.233 228.449 96.8056 229.084 88.4009ZM219.425 122.899C216.839 122.557 214.108 121.824 211.376 120.651C209.815 116.107 208.839 109.852 212.742 105.601C217.571 100.422 217.717 89.8179 216.254 84.0031C215.864 82.3417 214.888 79.5076 213.278 78.9212C209.522 77.6019 204.644 76.5757 204.595 76.5757C204.351 76.5268 204.156 76.6734 204.107 76.8688C204.058 77.162 196.936 104.819 195.522 112.833H174.545C174.448 112.833 174.35 112.882 174.301 112.931C174.301 112.931 173.57 113.517 172.399 114.348C166.057 102.23 148.252 79.312 148.057 79.0677C147.959 78.97 147.813 78.8723 147.666 78.9212C147.52 78.9212 147.374 79.0677 147.325 79.2143C147.276 79.4098 145.764 83.5632 147.325 88.1076C147.715 89.2804 148.203 90.7464 148.642 92.31C149.959 96.659 151.471 101.594 153.13 103.549C154.935 105.699 157.716 116.547 154.301 121.384C146.74 122.508 144.252 122.557 143.422 122.459C143.471 122.41 143.569 122.362 143.618 122.313C145.618 121.238 146.935 117.475 147.13 112.344C147.423 104.428 145.081 94.1669 139.227 90.4044C130.544 84.785 129.861 62.6982 129.861 62.5516C131.617 50.3844 137.91 40.5626 147.959 34.0636C161.813 25.1703 181.472 23.46 201.912 29.4215C234.206 38.8523 229.962 74.0347 228.596 85.5667C228.449 86.7395 228.352 87.6679 228.303 88.3032C227.718 96.4635 222.693 103.744 219.766 107.36C216.156 111.758 218.596 120.456 219.425 122.899Z" fill="#4461AB"/>
<path d="M164.35 120.114C167.033 118.599 170.106 116.449 172.155 114.983C165.959 102.914 147.617 79.361 147.617 79.361C147.617 79.361 146.105 83.5145 147.666 87.9612C149.227 92.4078 151.227 100.666 153.422 103.256C155.422 105.601 158.154 116.889 154.544 121.726C159.569 120.993 164.35 120.114 164.35 120.114Z" fill="#283A84"/>
<path d="M154.105 121.922C154.203 122.069 154.301 122.117 154.447 122.117H154.496C159.52 121.384 164.35 120.505 164.398 120.505C164.447 120.505 164.496 120.456 164.545 120.456C167.228 118.941 170.252 116.84 172.35 115.276C172.496 115.179 172.594 114.934 172.496 114.739C166.35 102.767 148.105 79.2633 147.91 79.019C147.813 78.9213 147.666 78.8235 147.52 78.8724C147.374 78.8724 147.227 79.019 147.178 79.1656C147.13 79.3611 145.617 83.5145 147.178 88.0589C147.569 89.2317 148.056 90.6975 148.496 92.2612C149.813 96.6101 151.325 101.545 152.983 103.5C154.837 105.699 157.618 116.742 154.057 121.482C154.057 121.629 154.008 121.775 154.105 121.922ZM153.715 102.963C152.203 101.155 150.642 96.1215 149.422 92.0658C148.935 90.5021 148.495 89.0362 148.056 87.8146C146.983 84.6384 147.471 81.6088 147.813 80.2406C150.788 84.1009 165.959 103.989 171.618 114.837C169.569 116.303 166.74 118.306 164.252 119.674C163.667 119.772 159.715 120.456 155.374 121.14C158.398 115.716 155.618 105.21 153.715 102.963Z" fill="#283A84"/>
<path d="M213.083 79.361C209.278 78.0417 204.448 77.0155 204.448 77.0155C204.448 77.0155 197.082 105.748 195.814 113.273H198.936C198.936 113.273 203.863 117.915 210.985 120.994C209.522 116.791 208.156 109.95 212.4 105.357C218.888 98.3693 216.888 80.6315 213.083 79.361Z" fill="#283A84"/>
<path d="M216.205 84.0031C215.815 82.3417 214.839 79.5076 213.229 78.9213C209.473 77.6019 204.595 76.5758 204.546 76.5758C204.302 76.5269 204.107 76.6734 204.058 76.8689C203.961 77.1621 196.643 105.699 195.424 113.175C195.424 113.273 195.424 113.419 195.521 113.517C195.619 113.615 195.717 113.664 195.863 113.664H198.839C199.668 114.397 204.4 118.55 210.888 121.336C210.937 121.336 210.985 121.384 211.034 121.384C211.132 121.384 211.229 121.336 211.327 121.287C211.424 121.189 211.473 120.993 211.424 120.847C209.815 116.254 208.741 109.901 212.741 105.65C217.571 100.422 217.668 89.8669 216.205 84.0031ZM210.302 120.212C203.766 117.231 199.278 113.029 199.229 112.98C199.131 112.882 199.034 112.882 198.936 112.882H196.302C197.668 105.308 203.863 80.9247 204.741 77.553C205.961 77.8462 209.863 78.7257 212.937 79.8007C213.863 80.0939 214.79 81.8043 215.376 84.2964C216.79 89.9646 216.693 100.177 212.059 105.113C208.107 109.364 208.839 115.521 210.302 120.212Z" fill="#283A84"/>
<path d="M144.349 88.3519C142.74 96.268 153.52 100.275 156.789 98.6134C160.008 97.0009 151.374 82.7325 151.374 82.7325C151.374 82.7325 146.008 80.4359 144.349 88.3519Z" fill="#F9AE82"/>
<path d="M151.569 82.3905C151.472 82.3416 149.471 81.511 147.423 82.586C145.715 83.4656 144.544 85.4202 143.959 88.3032C143.325 91.4793 144.544 94.5089 147.423 96.7078C149.618 98.4181 152.642 99.4443 154.935 99.4443C155.716 99.4443 156.447 99.2977 156.984 99.0533C157.423 98.8579 157.667 98.467 157.813 97.9783C158.838 94.3624 152.008 83.0747 151.715 82.586C151.715 82.4883 151.618 82.4394 151.569 82.3905ZM157.033 97.734C156.935 98.0272 156.838 98.1737 156.594 98.2715C154.935 99.1021 150.886 98.3204 147.91 96.0238C146.057 94.6067 144.008 92.1146 144.74 88.4498C145.276 85.8111 146.301 84.1008 147.764 83.319C148.398 82.977 149.032 82.8792 149.618 82.8792C150.301 82.8792 150.886 83.0257 151.081 83.1235C153.081 86.3974 157.813 95.0465 157.033 97.734Z" fill="#F9AE82"/>
<path d="M153.569 34.65C153.569 34.65 177.375 24.4862 193.765 31.3761C210.156 38.2172 221.864 63.3823 224.205 74.1813C226.547 84.9804 231.23 57.6652 231.23 57.6652C231.23 57.6652 196.399 0.249449 153.569 34.65Z" fill="#283A84"/>
<path d="M188.302 23.8509C176.35 21.7497 164.594 25.268 153.325 34.3568C153.179 34.5034 153.13 34.6989 153.228 34.8943C153.325 35.0898 153.569 35.1386 153.764 35.0897C154.008 34.992 177.57 25.0725 193.619 31.8158C209.717 38.5591 221.425 63.2357 223.815 74.3279C224.254 76.2825 224.791 77.1621 225.523 77.1621C228.108 77.1132 230.84 62.3072 231.62 57.8117C231.62 57.714 231.62 57.6163 231.572 57.5186C231.376 57.1277 213.668 28.3464 188.302 23.8509ZM225.474 76.2337C225.474 76.2337 225.035 76.1848 224.547 74.0348C222.108 62.796 210.254 37.7773 193.863 30.9363C189.716 29.1771 185.082 28.5419 180.448 28.5419C170.496 28.5419 160.642 31.5715 156.057 33.1841C166.447 25.5612 177.228 22.6782 188.107 24.6328C212.205 28.884 229.376 55.6128 230.742 57.714C228.791 69.1483 226.498 76.2337 225.474 76.2337Z" fill="#283A84"/>
<path d="M163.082 15.4463C134.447 25.3658 128.154 48.4788 126.154 64.3597C124.154 80.2407 133.373 62.8938 133.373 62.8938C133.373 62.8938 134.251 52.2413 140.935 45.0093C147.618 37.7774 163.618 23.167 191.717 28.591C219.815 34.0149 227.376 61.6722 227.376 61.6722L234.547 58.5448C234.547 58.5448 230.45 42.8593 220.888 32.4023C211.327 21.9453 191.765 5.52687 163.082 15.4463Z" fill="#504566"/>
<path d="M162.984 15.0553C141.13 22.6293 128.983 38.7546 125.763 64.3107C125.178 68.8551 125.471 71.054 126.641 71.4449C126.739 71.4938 126.837 71.4937 126.934 71.4937C129.129 71.4937 132.642 65.1414 133.715 63.138C133.764 63.0891 133.764 63.0402 133.764 62.9914C133.764 62.8936 134.739 52.3878 141.227 45.4002C154.74 30.7408 171.716 25.268 191.619 29.1283C219.132 34.4056 226.889 61.6232 226.937 61.9164C226.986 62.0141 227.035 62.1118 227.181 62.1607C227.279 62.2096 227.425 62.2096 227.523 62.1607L234.694 59.0333C234.889 58.9356 234.986 58.7401 234.938 58.5447C234.889 58.3981 230.694 42.6149 221.181 32.2068C204.351 13.6383 184.204 7.72563 162.984 15.0553ZM227.669 61.1345C226.498 57.4697 217.864 33.2329 191.814 28.1999C171.57 24.2907 154.35 29.8612 140.642 44.7649C134.3 51.6548 133.081 61.7209 132.983 62.796C130.837 66.8517 127.91 70.9563 126.934 70.6143C126.739 70.5654 125.91 69.9789 126.641 64.4084C129.764 39.1943 141.764 23.3134 163.277 15.8372C169.375 13.736 175.131 12.8076 180.448 12.8076C198.205 12.8076 211.717 22.9225 220.644 32.6954C229.23 42.1262 233.425 55.9549 234.108 58.3492L227.669 61.1345Z" fill="#504566"/>
<path d="M229.864 65.3369C223.083 67.5358 220.4 78.0417 223.913 88.7919C227.425 99.4932 235.767 106.383 242.547 104.184C249.328 101.985 252.011 91.4794 248.499 80.7292C244.987 69.9791 236.645 63.0892 229.864 65.3369Z" fill="#191446"/>
<path d="M240.645 67.829C237.035 64.8482 233.133 63.7732 229.718 64.8971C226.303 66.021 223.766 69.1483 222.596 73.7416C221.474 78.2371 221.766 83.6122 223.474 88.8896C225.181 94.1669 228.108 98.6625 231.669 101.643C234.352 103.842 237.181 105.015 239.816 105.015C240.743 105.015 241.718 104.868 242.596 104.575C249.572 102.278 252.401 91.5283 248.792 80.6315C247.133 75.3053 244.255 70.8097 240.645 67.829ZM242.401 103.744C239.279 104.77 235.669 103.793 232.254 100.959C228.791 98.1249 225.962 93.7271 224.303 88.5963C222.644 83.4656 222.303 78.2859 223.425 73.937C224.498 69.6369 226.84 66.754 229.962 65.7279C230.791 65.4836 231.62 65.3369 232.498 65.3369C234.986 65.3369 237.621 66.412 240.108 68.5131C243.572 71.3473 246.401 75.7451 248.06 80.8759C251.475 91.3328 248.938 101.594 242.401 103.744Z" fill="#191446"/>
<path d="M235.23 63.5778C228.45 65.7767 225.767 76.2825 229.279 87.0327C232.791 97.7829 241.133 104.624 247.914 102.425C254.694 100.226 257.377 89.7203 253.865 78.9701C250.353 68.2199 242.011 61.33 235.23 63.5778Z" fill="#924260"/>
<path d="M246.011 66.0699C242.401 63.0892 238.498 62.0142 235.084 63.1381C228.108 65.4347 225.279 76.1849 228.888 87.0816C230.596 92.359 233.523 96.8545 237.084 99.8352C239.767 102.034 242.596 103.207 245.23 103.207C246.206 103.207 247.133 103.06 248.011 102.767C251.426 101.643 253.962 98.5159 255.133 93.9227C256.255 89.4271 255.962 84.052 254.255 78.7747C252.499 73.5462 249.621 69.0507 246.011 66.0699ZM254.304 93.776C253.231 98.0761 250.889 100.959 247.767 101.985C244.645 103.011 241.035 102.034 237.62 99.2C234.157 96.3659 231.328 91.9681 229.669 86.8373C226.254 76.3803 228.791 66.0698 235.328 63.9198C236.157 63.6755 236.986 63.529 237.864 63.529C240.352 63.529 242.986 64.604 245.474 66.7052C248.938 69.5393 251.767 73.937 253.426 79.0678C255.084 84.1986 255.426 89.4271 254.304 93.776Z" fill="#924260"/>
<path d="M268.061 114.69C262.841 117.133 255.28 122.557 258.012 123.534C281.476 132.086 302.647 108.386 300.842 105.601C298.94 102.865 273.232 112.247 268.061 114.69Z" fill="#191446"/>
<path d="M267.866 114.299C264.012 116.107 256.89 120.652 256.987 122.899C256.987 123.192 257.134 123.681 257.817 123.925C261.231 125.196 264.792 125.782 268.402 125.782C273.281 125.782 278.256 124.658 283.183 122.411C290.501 119.088 296.208 113.957 299.086 110.292C300.159 108.924 301.818 106.481 301.086 105.406C298.891 102.034 271.183 112.784 267.866 114.299ZM298.452 109.804C291.818 118.257 275.037 129.349 258.109 123.192C257.817 123.095 257.817 122.948 257.817 122.899C257.768 121.58 263.28 117.426 268.207 115.13C273.866 112.491 293.574 105.552 299.086 105.552C299.818 105.552 300.257 105.65 300.452 105.943C300.647 106.139 300.257 107.458 298.452 109.804Z" fill="#504566"/>
<path d="M248.206 103.402C248.206 103.402 252.938 114.641 265.475 114.641C266.841 114.641 269.524 128.177 269.524 128.177L301.427 115.325C300.598 109.217 295.769 97.05 291.573 91.6261C287.378 86.2021 269.28 63.871 261.182 61.4278C253.084 58.9846 241.328 56.1504 234.547 58.5937C227.815 61.0369 219.278 67.7802 215.62 69.8325C211.961 71.8848 217.766 77.6996 224.108 74.1814C229.62 71.1029 234.645 68.2688 238.791 69.7348C240.986 69.3927 243.864 69.637 242.645 69.5882C241.816 69.5393 240.791 69.9302 240.011 70.3211C240.206 70.4188 240.401 70.5166 240.547 70.6631C240.547 70.6631 215.766 84.3941 225.035 94.5579C228.791 88.3033 245.084 79.1656 245.084 79.1656C245.084 79.1656 230.059 88.9873 226.01 95.4863C226.157 95.6329 226.352 95.7794 226.498 95.926C226.498 95.926 225.035 100.91 230.937 103.011C231.132 101.545 231.523 99.3954 232.352 98.5159C233.181 97.6363 237.962 94.1181 241.718 91.4305C244.255 89.5737 246.303 88.1566 246.303 88.1566C246.303 88.1566 244.255 89.6226 241.718 91.4305C237.962 94.2158 233.132 98.125 232.547 100.275C232.157 101.643 232.01 102.621 231.962 103.354C232.205 103.402 232.401 103.5 232.693 103.549C232.693 103.549 233.23 110.585 240.108 109.119C246.938 107.654 246.206 105.65 245.669 103.891C243.767 103.256 241.035 103.744 242.011 103.5C243.23 103.158 247.767 102.034 247.767 102.034C247.767 102.034 247.718 102.572 247.669 103.305C248.06 103.305 248.206 103.402 248.206 103.402Z" fill="#F9C09D"/>
<path d="M247.621 103.598C247.718 103.647 247.816 103.647 247.865 103.696C248.499 105.064 253.572 115.032 265.377 115.032C265.377 115.032 265.377 115.032 265.426 115.032C266.207 115.521 267.914 122.117 269.134 128.226C269.182 128.372 269.231 128.47 269.329 128.519C269.378 128.568 269.475 128.568 269.524 128.568C269.573 128.568 269.622 128.568 269.67 128.519L301.574 115.667C301.769 115.619 301.866 115.423 301.818 115.228C301.037 109.217 296.257 97.05 291.866 91.3328C291.671 91.0397 270.451 63.7733 261.28 61.0369C248.694 57.2743 239.669 56.297 234.401 58.2027C229.718 59.913 224.108 63.6756 220.059 66.4609C218.205 67.7314 216.547 68.8552 215.425 69.4905C214.107 70.2234 213.717 71.5916 214.449 72.911C215.669 75.1587 219.913 77.0155 224.352 74.5723L224.693 74.3769C229.913 71.4939 234.84 68.7575 238.742 70.1257C238.791 70.1746 238.889 70.1746 238.938 70.1257C239.23 70.0769 239.474 70.0768 239.767 70.0279C239.718 70.0768 239.669 70.1745 239.669 70.2722C239.669 70.4188 239.718 70.5166 239.816 70.6144C236.791 72.3735 224.059 80.2407 222.742 88.2056C222.352 90.6488 223.035 92.8477 224.791 94.8023C224.888 94.9 225.035 94.9488 225.132 94.9488C225.279 94.9488 225.376 94.8511 225.474 94.7534C226.986 92.2613 230.498 89.2805 234.206 86.6418C230.742 89.476 227.376 92.6034 225.718 95.2909C225.62 95.4864 225.62 95.6818 225.815 95.8284L225.962 95.975C226.01 96.0238 226.059 96.0727 226.108 96.1216C225.913 97.2455 225.474 101.546 230.889 103.451C230.986 103.5 231.132 103.5 231.23 103.402C231.328 103.353 231.425 103.207 231.425 103.109C231.669 101.008 232.157 99.4444 232.742 98.8091C232.84 98.6625 233.084 98.4671 233.376 98.2228C232.742 99.0046 232.352 99.6399 232.206 100.177C231.864 101.399 231.669 102.425 231.62 103.354C231.62 103.549 231.767 103.744 231.962 103.793L232.206 103.842C232.254 103.842 232.352 103.891 232.401 103.891C232.547 104.771 233.035 107.214 234.986 108.68C236.352 109.706 238.157 109.999 240.303 109.51C243.621 108.777 245.474 107.898 246.206 106.676C246.792 105.65 246.45 104.624 246.206 103.744C246.157 103.598 246.06 103.5 245.962 103.451C245.621 103.305 245.23 103.256 244.84 103.207C245.816 102.963 246.84 102.669 247.474 102.523C247.474 102.718 247.426 102.963 247.426 103.207C247.377 103.402 247.474 103.549 247.621 103.598ZM242.011 103.06C241.816 103.109 241.425 103.207 241.523 103.598C241.572 103.989 241.913 103.989 242.352 103.94C243.035 103.94 244.401 103.842 245.474 104.184C245.718 104.917 245.865 105.601 245.523 106.237C244.938 107.214 243.182 107.996 240.206 108.68C238.303 109.071 236.742 108.875 235.572 107.996C233.572 106.481 233.279 103.549 233.279 103.549C233.279 103.354 233.133 103.207 232.937 103.158C232.84 103.109 232.693 103.109 232.596 103.06C232.645 102.327 232.84 101.399 233.133 100.422C233.572 98.858 236.791 95.7795 242.157 91.8215C244.694 90.0135 246.743 88.5476 246.743 88.5476C246.938 88.401 246.987 88.1567 246.84 87.9612C246.694 87.7658 246.45 87.7168 246.255 87.8634C246.255 87.8634 244.157 89.2806 241.621 91.1374C236.011 95.1443 232.84 97.5386 232.157 98.2716C231.376 99.1511 230.937 100.959 230.693 102.474C225.815 100.471 226.937 96.2681 226.986 96.0727C227.035 95.9261 226.986 95.7307 226.84 95.6329C226.742 95.5841 226.693 95.4863 226.596 95.4374C230.791 89.085 245.182 79.6054 245.328 79.5077C245.523 79.3611 245.572 79.1168 245.474 78.9213C245.377 78.7259 245.084 78.677 244.889 78.7747C244.255 79.1168 229.279 87.5703 225.035 93.825C223.718 92.1636 223.181 90.3555 223.522 88.3521C224.937 79.8497 240.645 71.0541 240.791 71.0052C240.938 70.9563 240.986 70.8098 240.986 70.6632C240.986 70.5654 240.938 70.4678 240.889 70.37C241.572 70.0769 242.206 69.9302 242.645 69.9791C242.986 69.9791 243.182 70.0279 243.328 69.7836C243.426 69.637 243.377 69.4904 243.328 69.3438C243.279 69.295 243.133 69.2461 242.938 69.1972V69.1484C242.889 69.1484 242.84 69.1484 242.694 69.1484C242.645 69.1484 242.645 69.1484 242.596 69.1484C241.474 69.0507 239.377 69.2461 238.84 69.2949C234.596 67.8779 229.571 70.6632 224.205 73.6439L223.864 73.8394C219.913 76.0383 216.205 74.4257 215.132 72.52C214.839 71.9825 214.498 70.9563 215.766 70.2722C216.937 69.637 218.547 68.5131 220.449 67.2427C224.498 64.5062 230.01 60.7437 234.596 59.0823C239.669 57.2255 248.548 58.2028 260.938 61.9165C268.353 64.1642 285.232 84.3453 291.134 91.9681C295.33 97.3432 299.964 109.217 300.842 115.13L269.719 127.688C268.451 121.482 266.743 114.299 265.377 114.299C253.231 114.299 248.499 103.451 248.45 103.305C248.401 103.207 248.353 103.109 248.255 103.06C248.255 103.06 248.206 103.011 248.109 103.011C248.109 102.474 248.157 102.083 248.157 102.083C248.157 101.936 248.109 101.79 248.011 101.692C247.913 101.594 247.767 101.546 247.621 101.594C247.767 101.546 243.23 102.718 242.011 103.06Z" fill="#F9C09D"/>
<path d="M226.107 95.4863C230.108 88.9873 245.181 79.1656 245.181 79.1656C245.181 79.1656 228.888 88.3032 225.132 94.5579C225.425 94.8511 225.717 95.1931 226.107 95.4863Z" fill="#DA6249"/>
<path d="M244.938 78.7747C244.255 79.1656 228.498 88.059 224.742 94.3136C224.644 94.4602 224.644 94.6557 224.791 94.8023C225.083 95.1443 225.425 95.4375 225.815 95.7796C225.913 95.8284 226.01 95.8773 226.108 95.8773H226.156C226.254 95.8773 226.4 95.7795 226.449 95.6818C230.352 89.3294 245.23 79.5565 245.377 79.4588C245.572 79.3122 245.621 79.0679 245.523 78.8724C245.377 78.7258 245.133 78.677 244.938 78.7747ZM226.01 94.8511C225.864 94.7534 225.766 94.6068 225.669 94.5091C227.23 92.0658 230.693 89.2316 234.254 86.6418C230.937 89.3294 227.718 92.3101 226.01 94.8511Z" fill="#DA6249"/>
<path d="M246.45 88.1566C246.45 88.1566 244.401 89.5248 241.865 91.4305C242.694 90.8441 243.475 90.2578 244.157 89.7692C245.523 88.7919 246.45 88.1566 246.45 88.1566Z" fill="#DA6249"/>
<path d="M246.206 87.8146C246.206 87.8146 244.109 89.2316 241.572 91.0885C241.377 91.2351 241.328 91.4794 241.474 91.6748C241.572 91.7725 241.669 91.8703 241.816 91.8703C241.913 91.8703 242.011 91.8214 242.06 91.7725L244.352 90.1601C245.718 89.1828 246.645 88.5475 246.645 88.5475C246.84 88.4009 246.889 88.1566 246.743 87.9612C246.694 87.7169 246.401 87.668 246.206 87.8146Z" fill="#DA6249"/>
<path d="M232.108 103.353C232.157 102.621 232.303 101.643 232.694 100.275C233.279 98.125 238.109 94.2158 241.865 91.4305C238.109 94.118 233.279 97.6363 232.499 98.5158C231.669 99.4443 231.279 101.545 231.084 103.011C231.377 103.158 231.718 103.256 232.108 103.353Z" fill="#DA6249"/>
<path d="M241.621 91.0884C236.011 95.0953 232.84 97.4897 232.157 98.2227C231.279 99.2 230.84 101.35 230.645 102.963C230.596 103.158 230.742 103.353 230.937 103.402C231.279 103.5 231.62 103.647 232.011 103.744C232.059 103.744 232.059 103.744 232.108 103.744C232.206 103.744 232.303 103.695 232.352 103.647C232.45 103.549 232.498 103.451 232.547 103.353C232.596 102.523 232.791 101.545 233.084 100.373C233.523 98.809 236.742 95.7305 242.108 91.7725C242.304 91.6259 242.352 91.3816 242.206 91.1861C242.06 90.9907 241.816 90.9418 241.621 91.0884ZM232.254 100.177C231.962 101.155 231.815 102.034 231.718 102.816C231.669 102.816 231.572 102.767 231.523 102.767C231.767 100.812 232.255 99.4443 232.791 98.809C232.889 98.6624 233.133 98.467 233.425 98.2227C232.791 98.9556 232.401 99.6397 232.254 100.177Z" fill="#DA6249"/>
<path d="M247.816 103.207C247.816 102.523 247.914 101.936 247.914 101.936C247.914 101.936 243.377 103.109 242.157 103.402C241.182 103.695 243.962 103.158 245.816 103.793V103.744C245.377 102.425 246.987 102.914 247.816 103.207Z" fill="#DA6249"/>
<path d="M247.621 103.598C247.767 103.647 247.914 103.647 248.011 103.549C248.109 103.451 248.206 103.353 248.206 103.207C248.206 102.523 248.304 101.985 248.304 101.985C248.304 101.839 248.255 101.692 248.158 101.594C248.06 101.497 247.914 101.448 247.767 101.497C247.767 101.497 243.231 102.669 242.011 102.963C241.816 103.011 241.426 103.109 241.523 103.5C241.572 103.891 241.914 103.891 242.353 103.842C243.084 103.793 244.548 103.744 245.67 104.135C245.718 104.135 245.719 104.135 245.767 104.135C245.865 104.135 246.011 104.086 246.06 103.989C246.158 103.891 246.206 103.695 246.158 103.549C246.06 103.305 246.109 103.207 246.109 103.207C246.206 103.305 246.597 103.207 247.621 103.598ZM247.377 102.523C247.377 102.572 247.377 102.62 247.377 102.62C247.279 102.62 247.231 102.572 247.133 102.572C247.231 102.572 247.328 102.523 247.377 102.523ZM245.328 103.256C245.182 103.207 244.987 103.207 244.792 103.158C244.987 103.109 245.182 103.06 245.377 103.011C245.328 103.109 245.328 103.207 245.328 103.256Z" fill="#DA6249"/>
<path d="M240.108 70.2722C240.938 69.8812 241.962 69.4903 242.742 69.5392C243.913 69.5881 241.084 69.3438 238.889 69.6858C239.279 69.8324 239.718 70.0278 240.108 70.2722Z" fill="#DA6249"/>
<path d="M242.986 69.1485C242.938 69.1485 242.889 69.1485 242.742 69.1485C242.694 69.1485 242.694 69.1485 242.645 69.1485C241.425 69.0507 238.986 69.2461 238.791 69.295C238.596 69.3438 238.45 69.4904 238.45 69.6859C238.45 69.8814 238.547 70.0769 238.742 70.1257C239.084 70.2723 239.474 70.4189 239.913 70.6632C239.962 70.712 240.06 70.7121 240.108 70.7121C240.157 70.7121 240.255 70.712 240.303 70.6632C241.328 70.1745 242.157 69.9303 242.742 69.9791C243.084 69.9791 243.279 70.0279 243.425 69.7836C243.523 69.637 243.474 69.4905 243.425 69.3439C243.328 69.2461 243.182 69.1973 242.986 69.1485Z" fill="#DA6249"/>
<path d="M166.692 113.419C166.692 113.419 160.496 119.625 160.252 124.267C160.009 128.909 167.472 159.547 168.497 155.785C169.228 153.146 168.936 138.878 179.229 142.103C185.375 144.009 186.692 145.572 186.692 145.572C186.692 145.572 173.131 119.381 174.155 115.227C175.18 111.074 166.692 113.419 166.692 113.419Z" fill="#2893D0"/>
<path d="M174.106 113.175C172.35 111.465 167.179 112.882 166.594 113.029C166.545 113.029 166.447 113.078 166.399 113.126C166.155 113.371 160.106 119.528 159.862 124.267C159.716 127.688 165.911 156.176 168.204 156.567C168.252 156.567 168.252 156.567 168.301 156.567C168.496 156.567 168.789 156.469 168.935 155.932C169.082 155.492 169.131 154.759 169.277 153.83C169.667 150.508 170.399 144.986 173.618 142.885C175.082 141.956 176.936 141.81 179.18 142.543C185.033 144.4 186.448 145.866 186.448 145.866C186.595 146.012 186.838 146.061 186.985 145.914C187.18 145.817 187.229 145.572 187.131 145.377C183.375 138.145 173.814 118.599 174.594 115.325C174.789 114.446 174.643 113.713 174.106 113.175ZM185.521 144.253C184.399 143.618 182.497 142.738 179.326 141.712C176.838 140.93 174.74 141.077 173.082 142.152C169.521 144.448 168.789 150.215 168.399 153.684C168.301 154.368 168.252 155.003 168.155 155.443C166.252 152.413 160.496 128.519 160.691 124.267C160.886 120.114 166.204 114.495 166.935 113.762C168.496 113.371 172.35 112.638 173.521 113.713C173.814 114.006 173.911 114.446 173.765 115.081C172.838 118.844 182.643 138.536 185.521 144.253Z" fill="#2893D0"/>
<path d="M172.448 48.1854C167.57 73.4972 150.838 79.361 147.813 80.2406C149.228 86.0554 158.253 119.967 179.327 120.163C185.424 120.212 190.254 119.186 194.156 117.622C206.108 109.315 205.767 85.1758 203.62 75.4518C200.157 73.7416 195.571 71.1517 190.888 67.4869C182.888 64.8971 172.448 48.1854 172.448 48.1854Z" fill="#F9C09D"/>
<path d="M203.815 75.0609C199.181 72.7643 194.937 70.1256 191.181 67.1449C191.132 67.096 191.083 67.096 191.034 67.096C183.229 64.6039 172.936 48.1366 172.838 47.99C172.741 47.8434 172.595 47.7456 172.399 47.7945C172.253 47.8434 172.107 47.9412 172.058 48.1367C167.277 73.1064 150.935 78.9212 147.716 79.8496C147.521 79.8985 147.374 80.1428 147.423 80.3383C148.106 83.1724 150.74 93.2384 155.814 102.523C162.35 114.446 170.253 120.505 179.326 120.554C179.473 120.554 179.619 120.554 179.717 120.554C185.18 120.554 190.107 119.674 194.4 117.915C206.108 109.803 206.449 86.1531 204.059 75.3052C204.01 75.2075 203.913 75.1098 203.815 75.0609ZM194.01 117.182C189.815 118.892 184.79 119.772 179.326 119.674C170.594 119.625 162.936 113.664 156.545 102.083C151.716 93.2874 149.13 83.7588 148.301 80.4849C152.301 79.2633 167.716 72.9597 172.643 49.2604C174.936 52.7787 183.571 65.4834 190.644 67.8289C194.4 70.7608 198.595 73.4484 203.181 75.6962C205.571 86.4463 205.181 109.364 194.01 117.182Z" fill="#F9C09D"/>
<path d="M194.156 117.573C205.034 113.175 208.4 104.233 209.571 101.155C211.181 97.0011 212.108 81.853 209.571 78.2371C209.717 78.0905 207.278 77.2109 203.619 75.4029C205.766 85.1269 206.107 109.266 194.156 117.573Z" fill="#F9AE82"/>
<path d="M193.912 117.231C193.717 117.329 193.668 117.573 193.766 117.768C193.863 117.915 194.009 118.013 194.156 118.013C194.205 118.013 194.253 118.013 194.302 117.964C205.229 113.517 208.644 104.77 209.912 101.448L209.961 101.301C211.571 97.1476 212.595 82.0974 209.961 78.0905C209.864 77.7973 209.62 77.6996 208.01 76.9667C206.937 76.478 205.522 75.8428 203.766 75.0121C203.62 74.9632 203.424 74.9632 203.327 75.0609C203.181 75.1586 203.132 75.3053 203.18 75.5007C205.571 86.1532 205.278 109.315 193.912 117.231ZM204.205 76.1848C205.62 76.8689 206.79 77.4064 207.717 77.7974C208.351 78.0905 208.986 78.3837 209.229 78.4814V78.5303C211.669 81.9997 210.693 97.1965 209.181 101.057L209.132 101.203C208.01 104.086 205.181 111.367 196.839 115.912C205.863 106.579 206.254 86.4952 204.205 76.1848Z" fill="#F9AE82"/>
<path d="M147.618 79.3609C147.618 79.3609 147.667 79.703 147.813 80.2405C150.887 79.361 167.619 73.4972 172.448 48.1854C172.448 48.1854 182.839 64.897 190.888 67.4869C183.473 61.6231 175.961 53.0231 172.643 40.5626C172.643 40.5626 172.643 72.6665 147.618 79.3609Z" fill="#F9AE82"/>
<path d="M173.033 40.4161C172.985 40.2206 172.789 40.074 172.594 40.1229C172.399 40.1717 172.204 40.3184 172.204 40.5627C172.204 40.8559 171.911 72.4223 147.472 78.9701C147.276 79.019 147.13 79.2633 147.179 79.4588C147.179 79.4588 147.228 79.8008 147.374 80.3383C147.423 80.4361 147.472 80.5338 147.569 80.5827C147.618 80.6315 147.715 80.6316 147.764 80.6316C147.813 80.6316 147.862 80.6316 147.862 80.6316C151.13 79.7031 167.472 73.8882 172.594 49.3094C174.887 52.8277 183.57 65.6301 190.692 67.8779C190.888 67.9268 191.083 67.8291 191.18 67.6825C191.278 67.487 191.229 67.2915 191.083 67.1449C181.912 59.8153 175.863 50.8731 173.033 40.4161ZM148.106 79.6543C148.398 79.5566 148.691 79.4588 148.984 79.361C148.691 79.5076 148.35 79.6054 148.106 79.6543ZM172.838 47.9412C172.741 47.7946 172.643 47.7458 172.497 47.7458C172.448 47.7458 172.448 47.7458 172.399 47.7458C172.692 45.8889 172.887 44.2276 172.985 43.0059C175.716 51.4595 180.643 58.9357 187.766 65.2881C180.595 60.3528 172.936 48.0878 172.838 47.9412Z" fill="#F9AE82"/>
<path d="M179.96 69.7836C178.106 70.4677 176.497 70.3699 174.984 69.5392C170.984 67.2915 169.521 60.2551 169.521 60.2062C169.423 59.7664 168.984 59.4732 168.545 59.522C168.106 59.6198 167.813 60.0595 167.862 60.4993C167.911 60.8414 169.472 68.3177 174.155 70.9564C175.228 71.5428 176.35 71.8848 177.57 71.8848C178.497 71.8848 179.521 71.6894 180.546 71.3473C180.985 71.2007 181.229 70.712 181.033 70.2722C180.887 69.8324 180.399 69.637 179.96 69.7836Z" fill="#F9AE82"/>
<path d="M189.229 68.7573C186.253 69.5391 183.57 69.197 181.18 67.7311C174.594 63.6265 172.399 52.1922 172.35 52.0945C172.253 51.6547 171.814 51.3615 171.375 51.4104C170.936 51.5081 170.643 51.9479 170.692 52.3877C170.789 52.8763 173.082 64.6527 180.253 69.1482C182.058 70.2721 184.058 70.8585 186.156 70.8585C187.278 70.8585 188.449 70.7119 189.619 70.3698C190.058 70.2721 190.351 69.7834 190.205 69.3436C190.156 68.9038 189.668 68.6107 189.229 68.7573Z" fill="#F9AE82"/>
<path d="M172.497 38.999C172.009 38.999 171.667 39.39 171.667 39.8298C171.667 40.6604 171.667 60.4994 181.18 67.4382C183.326 69.0018 185.766 69.7836 188.449 69.7836C190.205 69.7836 192.058 69.4415 194.058 68.8063C194.497 68.6597 194.741 68.1711 194.595 67.7313C194.449 67.2915 193.961 67.0473 193.522 67.1938C189.034 68.6598 185.229 68.3177 182.156 66.0699C173.375 59.6687 173.375 40.0252 173.375 39.8298C173.326 39.39 172.936 38.999 172.497 38.999Z" fill="#4461AB"/>
<path d="M183.424 67.2915C180.887 69.0017 178.692 69.3926 176.887 68.5131C171.228 65.7278 170.253 51.6059 170.253 51.4593C170.204 51.0195 169.862 50.6287 169.375 50.6775C168.935 50.7264 168.545 51.1173 168.594 51.5571C168.643 52.1924 169.618 66.7539 176.155 69.979C177.033 70.4188 177.96 70.6143 178.887 70.6143C180.594 70.6143 182.399 69.979 184.351 68.6597C184.741 68.4154 184.838 67.8778 184.595 67.4869C184.302 67.1448 183.765 67.0471 183.424 67.2915Z" fill="#4461AB"/>
<path d="M170.74 96.0238C170.204 97.05 170.545 97.7341 170.789 98.0761C171.423 98.9068 172.887 99.1511 174.301 99.1511C175.618 99.1511 176.887 98.9556 177.521 98.8579C177.96 98.7602 178.301 98.3204 178.204 97.8806C178.106 97.4408 177.667 97.0988 177.228 97.1965C174.692 97.6363 172.399 97.4897 172.155 97.0988C172.155 97.0988 172.155 97.0011 172.252 96.8056C172.496 96.3658 172.838 95.8284 173.228 95.2909C175.277 92.359 178.35 87.9611 171.57 80.778C171.277 80.436 170.74 80.4361 170.399 80.7292C170.057 81.0713 170.057 81.5599 170.35 81.9019C176.204 88.1077 173.814 91.5283 171.862 94.3136C171.423 94.9 170.984 95.4863 170.74 96.0238Z" fill="#62392C"/>
<path d="M160.691 74.7678C160.252 74.9633 160.057 75.4518 160.252 75.8916C160.398 76.2336 160.691 76.4291 161.032 76.4291C161.13 76.4291 161.276 76.4291 161.374 76.3802C162.35 75.9893 164.154 75.2564 164.984 75.3542C165.472 75.3053 165.813 75.0121 165.862 74.5235C165.862 74.0837 165.52 73.6928 165.033 73.6439C163.569 73.5462 160.984 74.6701 160.691 74.7678Z" fill="#62392C"/>
<path d="M184.302 71.5916C183.863 71.7382 183.619 72.1779 183.716 72.6177C183.814 72.9598 184.155 73.2041 184.497 73.2041C184.594 73.2041 184.643 73.2041 184.741 73.1553C185.716 72.8621 187.521 72.4711 188.302 72.6177C188.741 72.7154 189.18 72.4222 189.277 71.9824C189.375 71.5427 189.082 71.1029 188.643 71.0052C187.229 70.712 184.594 71.4939 184.302 71.5916Z" fill="#62392C"/>
<path d="M188.984 78.6281C185.57 79.361 183.667 83.9054 184.692 88.743C185.716 93.5806 189.326 96.9522 192.741 96.2193C196.155 95.4863 198.058 90.9419 197.033 86.1044C196.009 81.2668 192.35 77.8951 188.984 78.6281Z" fill="white"/>
<path d="M188.887 78.2371C187.082 78.628 185.619 79.9473 184.789 81.9996C183.96 84.0031 183.765 86.4463 184.302 88.8407C185.277 93.4339 188.497 96.7568 191.814 96.7568C192.156 96.7568 192.497 96.7078 192.838 96.659C194.643 96.2681 196.107 94.9488 196.936 92.8964C197.765 90.893 197.961 88.4498 197.424 86.0554C196.887 83.6122 195.765 81.4622 194.156 79.9963C192.546 78.4815 190.643 77.8462 188.887 78.2371ZM196.156 92.5544C195.424 94.3135 194.156 95.4863 192.643 95.8283C189.472 96.5124 186.107 93.2874 185.082 88.6942C184.594 86.4464 184.741 84.1498 185.521 82.3418C186.253 80.5827 187.521 79.4098 189.033 79.0678C189.326 79.0189 189.619 78.9701 189.912 78.9701C191.18 78.9701 192.448 79.5565 193.57 80.5826C195.034 81.9508 196.107 83.9054 196.595 86.202C197.082 88.4498 196.936 90.6976 196.156 92.5544Z" fill="white"/>
<path d="M161.13 81.0713C157.716 81.8043 155.813 86.3487 156.838 91.1862C157.862 96.0238 161.472 99.3955 164.887 98.6625C168.301 97.9296 170.204 93.3852 169.179 88.5476C168.155 83.71 164.545 80.3384 161.13 81.0713Z" fill="white"/>
<path d="M161.033 80.6803C159.228 81.0712 157.764 82.3906 156.935 84.4429C156.106 86.4463 155.91 88.8895 156.447 91.2839C156.984 93.7271 158.106 95.8772 159.716 97.3431C161.033 98.5648 162.496 99.2 163.96 99.2C164.301 99.2 164.642 99.1511 164.984 99.1022C166.789 98.7113 168.252 97.392 169.082 95.3397C169.911 93.3362 170.106 90.893 169.569 88.4986C169.033 86.0554 167.911 83.9054 166.301 82.4395C164.691 80.8758 162.838 80.2894 161.033 80.6803ZM168.301 94.9976C167.569 96.7567 166.301 97.9295 164.789 98.2715C163.277 98.5647 161.667 98.0272 160.252 96.7079C158.789 95.3397 157.715 93.3851 157.228 91.0885C156.74 88.8407 156.886 86.5441 157.667 84.7361C158.398 82.977 159.667 81.8042 161.179 81.4622C161.472 81.4133 161.764 81.3645 162.057 81.3645C163.325 81.3645 164.594 81.9508 165.716 82.9769C167.179 84.3451 168.252 86.2997 168.74 88.5963C169.228 90.893 169.082 93.1408 168.301 94.9976Z" fill="white"/>
<path d="M162.204 82.1951C160.057 83.0258 159.228 86.0554 160.301 88.8895C161.423 91.7725 164.057 93.434 166.204 92.6033C168.35 91.7726 169.179 88.7429 168.106 85.9087C167.033 83.0257 164.399 81.3644 162.204 82.1951Z" fill="#191446"/>
<path d="M165.813 82.3419C164.594 81.5601 163.277 81.4135 162.106 81.8533C160.935 82.293 160.057 83.3191 159.667 84.7362C159.277 86.1044 159.374 87.6681 159.959 89.134C160.545 90.5999 161.52 91.8216 162.691 92.6034C163.472 93.0921 164.301 93.3364 165.082 93.3364C165.521 93.3364 165.96 93.2387 166.399 93.0921C168.74 92.1637 169.716 88.9385 168.545 85.8112C167.96 84.2964 166.984 83.0749 165.813 82.3419ZM166.106 92.2613C165.179 92.6033 164.155 92.4568 163.13 91.8216C162.106 91.1863 161.228 90.1113 160.74 88.792C160.252 87.4726 160.155 86.1044 160.496 84.9316C160.838 83.8077 161.472 82.9771 162.399 82.635C162.74 82.4884 163.081 82.4396 163.423 82.4396C164.057 82.4396 164.74 82.6351 165.374 83.0749C166.399 83.7101 167.277 84.7851 167.765 86.1044C168.74 88.7431 168.008 91.5283 166.106 92.2613Z" fill="#191446"/>
<path d="M189.96 78.9701C187.814 79.8008 186.985 82.8304 188.058 85.6645C189.18 88.5475 191.814 90.2089 193.961 89.3782C196.107 88.5476 196.936 85.518 195.863 82.6838C194.79 79.8497 192.156 78.1394 189.96 78.9701Z" fill="#191446"/>
<path d="M189.814 78.5792C188.643 79.019 187.814 80.0452 187.375 81.4622C186.985 82.8305 187.082 84.3941 187.668 85.86C188.253 87.326 189.229 88.5475 190.399 89.3294C191.18 89.818 192.009 90.0623 192.79 90.0623C193.229 90.0623 193.668 89.9646 194.107 89.818C196.448 88.8896 197.424 85.6646 196.253 82.5372C195.082 79.4099 192.204 77.6507 189.814 78.5792ZM193.863 88.9873C192.936 89.3294 191.912 89.1828 190.887 88.5476C189.863 87.9124 188.985 86.8374 188.497 85.518C188.009 84.1987 187.911 82.8304 188.253 81.6577C188.594 80.5338 189.229 79.7031 190.155 79.3611C190.497 79.2145 190.838 79.1656 191.18 79.1656C192.887 79.1656 194.692 80.6316 195.521 82.8305C196.497 85.4692 195.765 88.2544 193.863 88.9873Z" fill="#191446"/>
<path d="M178.204 108.386C177.765 108.289 177.326 108.582 177.228 109.022C177.131 109.461 177.423 109.901 177.862 109.999C178.789 110.194 180.253 110.732 180.643 111.269C180.789 111.514 181.082 111.611 181.326 111.611C181.472 111.611 181.667 111.563 181.814 111.465C182.204 111.221 182.302 110.683 182.009 110.292C181.131 109.071 178.692 108.484 178.204 108.386Z" fill="#91241E"/>
<path d="M158.398 89.2805C158.398 90.3067 159.228 91.1374 160.252 91.1374C161.277 91.1374 162.106 90.3067 162.106 89.2805C162.106 88.2544 161.277 87.4236 160.252 87.4236C159.228 87.4236 158.398 88.2544 158.398 89.2805Z" fill="white"/>
<path d="M158.008 89.2805C158.008 90.551 159.033 91.5771 160.301 91.5771C161.569 91.5771 162.594 90.551 162.594 89.2805C162.594 88.01 161.569 86.9839 160.301 86.9839C159.033 87.0328 158.008 88.01 158.008 89.2805ZM161.716 89.2805C161.716 90.0623 161.082 90.6975 160.301 90.6975C159.521 90.6975 158.886 90.0623 158.886 89.2805C158.886 88.4987 159.521 87.8634 160.301 87.8634C161.082 87.8634 161.716 88.4987 161.716 89.2805Z" fill="white"/>
<path d="M186.497 86.5441C186.497 87.5702 187.326 88.4009 188.35 88.4009C189.375 88.4009 190.204 87.5702 190.204 86.5441C190.204 85.5179 189.375 84.6872 188.35 84.6872C187.326 84.6872 186.497 85.5179 186.497 86.5441Z" fill="white"/>
<path d="M186.106 86.544C186.106 87.8145 187.131 88.8406 188.399 88.8406C189.668 88.8406 190.692 87.8145 190.692 86.544C190.692 85.2736 189.668 84.2474 188.399 84.2474C187.131 84.2474 186.106 85.2736 186.106 86.544ZM189.814 86.544C189.814 87.3259 189.18 88.01 188.35 88.01C187.57 88.01 186.887 87.3747 186.887 86.544C186.887 85.7622 187.521 85.0781 188.35 85.0781C189.18 85.0781 189.814 85.7133 189.814 86.544Z" fill="white"/>
<path d="M134.886 78.1882C138.789 77.8951 148.399 78.0417 147.813 73.0575C147.228 68.0733 144.789 67.7801 144.789 67.7801C144.789 67.7801 144.837 67.5846 144.837 67.2915C141.813 67.2426 137.52 67.6823 131.13 69.0994C119.178 71.787 116.154 77.9439 116.154 77.9439C116.154 77.9439 118.349 72.1779 132.008 68.3664C138.154 66.6562 142.154 66.0209 144.789 65.8743C144.447 63.5288 142.545 59.9129 134.008 61.0368C121.617 62.6493 116.495 67.0471 113.422 70.9563C110.3 74.8654 106.007 78.3837 104.495 90.6487C103.031 102.914 98.9336 112.247 98.9336 112.247L117.178 123.339C117.178 123.339 136.349 110.341 129.081 94.8999C129.081 94.8999 137.374 92.2123 141.228 92.7498C145.081 93.2384 148.545 88.1565 142.984 85.7133C137.423 83.2701 123.373 84.8827 123.373 84.8827C123.373 84.8827 123.764 84.5406 124.398 84.052C120.885 84.7361 116.837 85.9087 116.837 85.9087C120.934 84.1985 123.812 83.3678 125.764 82.9769C128.349 81.12 132.349 78.3837 134.886 78.1882Z" fill="#F9C09D"/>
<path d="M126.056 83.4168C129.959 80.4849 133.081 78.7746 134.935 78.628C135.374 78.5792 135.862 78.5792 136.398 78.5303C140.008 78.3349 145.472 78.0905 147.52 75.6472C148.155 74.9143 148.399 73.9858 148.301 72.9597C147.813 68.8551 146.106 67.7313 145.325 67.4381C145.325 67.3892 145.325 67.3404 145.325 67.2915C145.325 67.1938 145.276 67.0471 145.228 66.9983C145.13 66.9005 145.033 66.8516 144.935 66.8516C142.789 66.8028 140.252 67.0471 137.325 67.4869C140.349 66.8028 142.886 66.4119 144.886 66.3142C144.984 66.3142 145.13 66.2653 145.179 66.1676C145.276 66.0699 145.276 65.9721 145.276 65.8256C144.935 63.3823 142.984 59.4731 134.008 60.6459C121.276 62.3073 116.154 66.9005 113.129 70.7608C112.739 71.2983 112.3 71.787 111.861 72.3245C108.983 75.6962 105.422 79.8985 104.153 90.6487C102.69 102.669 98.6896 112.051 98.6408 112.1C98.5433 112.296 98.6408 112.54 98.7872 112.638L117.032 123.73C117.08 123.779 117.178 123.779 117.227 123.779C117.324 123.779 117.373 123.73 117.471 123.73C117.666 123.583 136.496 110.585 129.715 95.2419C131.471 94.7044 138.008 92.7987 141.228 93.2384C143.423 93.5316 145.667 92.1146 146.203 90.1112C146.74 88.2054 145.618 86.4464 143.179 85.3713C138.593 83.3679 128.447 84.052 124.739 84.394C124.837 84.2474 124.886 84.1008 124.788 83.9542C124.739 83.8565 124.69 83.8076 124.593 83.7588C125.032 83.6611 125.471 83.5633 125.861 83.4655C125.91 83.4655 125.959 83.4656 126.056 83.4168ZM116.69 85.6157C116.495 85.7134 116.398 85.9088 116.446 86.1531C116.544 86.3486 116.739 86.4951 116.934 86.3974C116.983 86.3974 119.91 85.5179 122.983 84.8827C122.934 84.9804 122.983 85.0781 122.983 85.1758C123.081 85.3224 123.227 85.4201 123.422 85.4201C123.568 85.4201 137.423 83.8565 142.789 86.202C144.837 87.0816 145.764 88.4498 145.325 89.9158C144.935 91.3328 143.228 92.701 141.228 92.4078C137.325 91.9191 129.227 94.4601 128.886 94.6067C128.788 94.6555 128.691 94.7533 128.642 94.851C128.593 94.9487 128.593 95.0953 128.642 95.193C135.276 109.217 119.178 121.433 117.129 122.948L99.4214 112.198C100.153 110.39 103.519 101.692 104.836 90.8441C106.104 80.3383 109.422 76.4291 112.349 72.9597C112.788 72.4222 113.227 71.9336 113.666 71.3961C116.593 67.6824 121.568 63.2357 134.008 61.6232C141.715 60.597 143.764 63.5289 144.252 65.6789C141.179 65.8744 137.032 66.7051 131.861 68.1711C118.154 71.9825 115.812 77.7484 115.763 77.9928C115.666 78.1882 115.763 78.4326 116.007 78.5303C116.202 78.628 116.446 78.5302 116.544 78.3348C116.593 78.2859 119.666 72.3245 131.276 69.6858C136.544 68.4642 140.984 67.8778 144.398 67.8778C144.398 67.9756 144.398 68.0733 144.496 68.1711C144.545 68.2688 144.642 68.3176 144.789 68.3176C144.789 68.3176 146.886 68.6596 147.423 73.204C147.52 73.9858 147.325 74.67 146.837 75.2564C145.033 77.4065 139.569 77.6508 136.349 77.7973C135.813 77.8462 135.325 77.8462 134.886 77.895C132.349 78.0905 128.495 80.6315 125.666 82.7815C123.129 83.1724 120.154 84.1497 116.69 85.6157Z" fill="#F9C09D"/>
<path d="M125.764 83.0748C123.813 83.4657 120.886 84.2964 116.837 86.0066C116.837 86.0066 120.886 84.8339 124.398 84.1498C124.788 83.8566 125.227 83.4657 125.764 83.0748Z" fill="#DA6249"/>
<path d="M125.715 82.6349C123.227 83.1235 120.203 84.1008 116.69 85.5668C116.495 85.6645 116.398 85.86 116.447 86.1043C116.495 86.2998 116.69 86.3974 116.837 86.3974C116.886 86.3974 116.934 86.3974 116.934 86.3974C116.983 86.3974 120.983 85.2248 124.447 84.5407C124.496 84.5407 124.593 84.4917 124.642 84.4428C125.032 84.1497 125.471 83.7588 126.008 83.3679C126.154 83.2701 126.203 83.0258 126.154 82.8792C126.105 82.7326 125.861 82.6349 125.715 82.6349Z" fill="#DA6249"/>
<path d="M116.154 77.9928C116.154 77.9928 119.178 71.836 131.13 69.1484C137.52 67.6825 141.813 67.2915 144.838 67.3403C144.838 66.9983 144.886 66.5097 144.789 65.9722C142.106 66.1188 138.155 66.754 132.008 68.4642C118.349 72.2268 116.154 77.9928 116.154 77.9928Z" fill="#DA6249"/>
<path d="M144.789 65.5323C141.716 65.6789 137.374 66.5097 131.91 68.0245C118.203 71.8359 115.861 77.6018 115.812 77.8462C115.715 78.0416 115.812 78.286 116.056 78.3837C116.105 78.4326 116.154 78.4326 116.203 78.4326C116.349 78.4326 116.495 78.3349 116.593 78.1883C116.642 78.1394 119.715 72.1779 131.325 69.5392C136.837 68.2687 141.423 67.6824 144.935 67.7312C145.179 67.7312 145.325 67.5358 145.374 67.3403C145.423 66.8517 145.374 66.363 145.325 65.8744C145.179 65.6789 144.984 65.5323 144.789 65.5323ZM144.447 66.9006C142.399 66.9006 140.008 67.0961 137.276 67.5358C140.106 66.9006 142.496 66.5097 144.447 66.4119C144.447 66.5585 144.447 66.754 144.447 66.9006Z" fill="#DA6249"/>
<path d="M97.8111 181.097C85.5668 203.672 71.2249 256.788 87.7132 253.416C107.275 249.409 122.202 218.82 127.227 209.438C130.593 203.135 132.837 186.227 131.715 173.327C126.349 179.875 108.348 209.927 106.982 219.358C105.958 226.589 97.8599 199.519 97.8111 181.097Z" fill="#2893D0"/>
<path d="M131.861 172.887C131.715 172.839 131.52 172.887 131.422 173.034C125.763 179.924 108.007 209.731 106.641 219.26C106.543 219.846 106.446 220.042 106.446 220.091C104.543 219.358 98.3477 197.32 98.299 181.097C98.299 180.901 98.1526 180.755 98.0063 180.706C97.8112 180.657 97.616 180.755 97.5185 180.901C86.6889 200.838 75.0299 242.226 82.1521 251.852C83.2253 253.27 84.64 254.002 86.3962 254.002C86.884 254.002 87.3718 253.954 87.9084 253.856C106.348 250.093 120.544 223.218 126.593 211.735C126.983 210.953 127.373 210.269 127.715 209.634C131.178 203.135 133.373 185.837 132.251 173.278C132.105 173.083 132.007 172.936 131.861 172.887ZM126.885 209.243C126.544 209.878 126.202 210.562 125.763 211.344C119.763 222.729 105.714 249.311 87.6157 253.025C85.4693 253.465 83.8595 252.927 82.7375 251.364C76.2007 242.519 86.9328 202.988 97.4209 182.758C97.8599 196.098 103.128 220.726 106.348 220.97C107.177 221.019 107.372 219.797 107.421 219.407C108.69 210.513 125.275 182.465 131.373 174.402C132.3 186.716 130.202 203.037 126.885 209.243Z" fill="#2893D0"/>
<path d="M97.811 181.097C97.8598 199.47 105.958 226.541 107.031 219.309C108.397 209.878 126.397 179.826 131.763 173.278C131.178 166.926 129.812 161.502 127.275 158.863C127.275 158.863 116.446 162.479 104.202 172.203C102.299 173.767 100.104 176.943 97.811 181.097Z" fill="#4461AB"/>
<path d="M127.129 158.521C127.032 158.57 116.104 162.284 103.958 171.959C102.055 173.474 99.86 176.503 97.4697 180.95C97.4209 180.999 97.4209 181.097 97.4209 181.146C97.4697 193.948 103.031 220.726 106.397 220.97H106.446C107.226 220.97 107.421 219.797 107.47 219.407C108.787 210.22 126.641 180.266 132.105 173.572C132.154 173.474 132.202 173.376 132.202 173.278C131.763 168.343 130.593 161.746 127.617 158.619C127.471 158.521 127.276 158.473 127.129 158.521ZM131.276 173.181C125.519 180.315 107.958 209.78 106.592 219.26C106.494 219.846 106.397 220.042 106.397 220.091C104.494 219.358 98.299 197.417 98.2502 181.194C100.543 176.943 102.689 173.963 104.494 172.545C115.519 163.799 125.471 159.987 127.178 159.352C129.227 161.795 130.69 166.535 131.276 173.181Z" fill="#4461AB"/>
<path d="M249.377 129.691C240.011 134.04 230.45 161.795 241.523 185.983C252.597 210.171 287.622 253.123 297.867 241.542C308.111 230.01 267.036 134.382 267.036 134.382C267.036 134.382 258.744 125.342 249.377 129.691Z" fill="#2893D0"/>
<path d="M267.329 134.089C267.231 133.992 258.743 124.903 249.182 129.301C239.816 133.649 229.718 161.258 241.133 186.13C250.646 206.848 277.817 241.64 292.062 243.79C292.501 243.839 292.988 243.888 293.379 243.888C295.33 243.888 296.891 243.204 298.11 241.835C308.403 230.206 269.036 138.145 267.329 134.236C267.378 134.138 267.378 134.138 267.329 134.089ZM297.574 241.249C296.257 242.715 294.501 243.252 292.257 242.959C278.451 240.907 251.133 205.871 241.962 185.788C231.181 162.186 240.352 134.334 249.572 130.033C251.328 129.252 252.987 128.91 254.646 128.91C261.085 128.91 266.158 133.992 266.695 134.578C267.963 137.656 307.379 230.157 297.574 241.249Z" fill="#2893D0"/>
<path d="M255.865 143.569C252.987 149.481 257.036 167.561 257.085 174.696C257.085 179.924 281.866 223.658 285.574 217.012C289.33 210.318 263.963 136.532 263.963 136.532C263.963 136.532 258.743 137.656 255.865 143.569Z" fill="#4461AB"/>
<path d="M263.866 136.141C263.622 136.19 258.402 137.363 255.475 143.422C253.475 147.478 254.646 156.811 255.719 165.02C256.207 168.832 256.646 172.448 256.646 174.744C256.646 179.777 277.232 216.328 283.915 218.087C284.11 218.136 284.305 218.185 284.452 218.185C285.086 218.185 285.573 217.892 285.915 217.256C289.72 210.513 265.378 139.464 264.353 136.435C264.305 136.19 264.109 136.093 263.866 136.141ZM285.232 216.817C284.988 217.257 284.647 217.354 284.159 217.256C277.915 215.644 257.524 179.435 257.524 174.744C257.524 172.35 257.036 168.734 256.597 164.923C255.621 157.251 254.402 147.673 256.304 143.813C258.646 139.024 262.548 137.461 263.768 137.119C272.5 162.626 288.11 211.686 285.232 216.817Z" fill="#4461AB"/>
<path d="M243.377 134.871C243.475 134.92 253.963 141.272 257.816 151.925L260.987 150.801C256.743 139.025 245.572 132.281 245.133 131.988L243.377 134.871Z" fill="#504566"/>
<path d="M316.404 245.158C336.941 239.001 340.551 219.895 338.014 204.014C335.478 188.133 319.623 110.439 301.428 120.993C283.232 131.499 264.5 137.265 264.5 137.265C257.28 140.49 255.768 150.556 257.963 159.45C260.158 168.294 273.134 201.864 277.817 209.096C282.5 216.328 280.695 236.509 280.695 236.509C280.695 236.509 295.867 251.266 316.404 245.158Z" fill="#2893D0"/>
<path d="M280.451 236.802C280.598 236.949 291.135 247.064 306.452 247.064C309.623 247.064 312.989 246.624 316.55 245.549C341.819 238.024 339.721 211.784 338.453 203.965C335.965 188.182 323.428 127.688 308.013 120.358C305.72 119.283 303.476 119.381 301.232 120.651C283.281 131.011 264.597 136.826 264.402 136.923H264.353C256.694 140.393 255.475 151.094 257.572 159.596C259.768 168.343 272.792 202.109 277.476 209.389C282.012 216.426 280.305 236.362 280.305 236.558C280.305 236.558 280.354 236.704 280.451 236.802ZM278.207 208.852C273.524 201.62 260.548 168.05 258.402 159.352C256.353 151.192 257.475 140.93 264.695 137.705C265.475 137.461 283.964 131.646 301.671 121.384C303.623 120.261 305.623 120.163 307.672 121.14C314.062 124.17 320.892 137.656 327.477 160.036C333.087 179.044 336.697 198.297 337.624 204.112C338.843 211.784 340.892 237.437 316.306 244.767C297.281 250.435 282.793 237.78 281.183 236.362C281.329 234.066 282.695 215.791 278.207 208.852Z" fill="#2893D0"/>
<path d="M172.301 233.137C174.457 233.137 176.204 231.387 176.204 229.228C176.204 227.069 174.457 225.319 172.301 225.319C170.146 225.319 168.399 227.069 168.399 229.228C168.399 231.387 170.146 233.137 172.301 233.137Z" fill="#E46790"/>
<path d="M167.96 229.228C167.96 231.623 169.911 233.577 172.302 233.577C174.692 233.577 176.643 231.623 176.643 229.228C176.643 226.834 174.692 224.879 172.302 224.879C169.911 224.879 167.96 226.834 167.96 229.228ZM175.814 229.228C175.814 231.183 174.253 232.746 172.302 232.746C170.35 232.746 168.789 231.183 168.789 229.228C168.789 227.274 170.35 225.71 172.302 225.71C174.253 225.71 175.814 227.323 175.814 229.228Z" fill="#E46790"/>
<path d="M177.424 196.44C179.579 196.44 181.326 194.69 181.326 192.531C181.326 190.372 179.579 188.622 177.424 188.622C175.268 188.622 173.521 190.372 173.521 192.531C173.521 194.69 175.268 196.44 177.424 196.44Z" fill="#E46790"/>
<path d="M173.082 192.531C173.082 194.925 175.033 196.88 177.424 196.88C179.814 196.88 181.765 194.925 181.765 192.531C181.765 190.137 179.814 188.182 177.424 188.182C175.033 188.182 173.082 190.137 173.082 192.531ZM180.887 192.531C180.887 194.486 179.326 196.049 177.375 196.049C175.424 196.049 173.863 194.486 173.863 192.531C173.863 190.577 175.424 189.013 177.375 189.013C179.326 189.013 180.887 190.577 180.887 192.531Z" fill="#E46790"/>
<path d="M177.082 155.932C176.984 158.082 178.643 159.938 180.789 160.085C182.936 160.232 184.789 158.521 184.936 156.371C185.033 154.221 183.375 152.365 181.228 152.218C179.033 152.12 177.179 153.782 177.082 155.932Z" fill="#E46790"/>
<path d="M176.643 155.932C176.497 158.326 178.35 160.378 180.741 160.525C180.838 160.525 180.887 160.525 180.984 160.525C183.277 160.525 185.18 158.717 185.326 156.42C185.472 154.026 183.619 151.974 181.228 151.827C178.789 151.729 176.789 153.537 176.643 155.932ZM183.57 153.83C184.204 154.514 184.497 155.443 184.448 156.371C184.399 157.3 184.009 158.179 183.277 158.766C182.594 159.401 181.667 159.743 180.741 159.645C179.814 159.596 178.936 159.205 178.35 158.472C177.765 157.739 177.423 156.86 177.472 155.932C177.521 155.003 177.911 154.124 178.643 153.537C179.277 152.951 180.106 152.658 180.984 152.658C181.033 152.658 181.131 152.658 181.18 152.658C182.106 152.706 182.985 153.146 183.57 153.83Z" fill="#E46790"/>
<path d="M103.031 111.269C97.5672 109.119 96.4453 111.269 95.372 114.543C94.2988 117.768 90.8841 123.583 87.6157 127.004L129.373 151.192C129.373 151.192 137.52 140.93 136.983 137.656C136.447 134.334 108.543 113.42 103.031 111.269Z" fill="#504566"/>
<path d="M103.226 110.879C100.738 109.901 98.9822 109.706 97.7138 110.341C96.2504 111.025 95.5674 112.638 94.982 114.397C93.9576 117.524 90.6404 123.192 87.3232 126.711C87.2257 126.808 87.1769 126.955 87.2257 127.053C87.2257 127.199 87.3232 127.297 87.4208 127.346L129.178 151.534C129.227 151.583 129.325 151.583 129.373 151.583C129.52 151.583 129.617 151.534 129.715 151.436C130.544 150.361 137.959 140.93 137.374 137.559C136.788 133.845 108.348 112.931 103.226 110.879ZM129.276 150.605L88.2989 126.857C91.5185 123.29 94.7381 117.768 95.7625 114.641C96.2991 113.029 96.8357 111.612 98.0065 111.074C99.0797 110.585 100.641 110.781 102.885 111.66C108.202 113.762 136.056 134.676 136.544 137.656C136.983 140.1 131.666 147.576 129.276 150.605Z" fill="#504566"/>
<path d="M101.324 128.128C92.299 124.414 85.9085 121.775 80.7864 128.128C59.0296 155.247 28.9311 206.164 32.8825 227.469C36.8338 248.774 69.2738 256.348 85.8597 253.807C102.446 251.266 106.056 231.085 107.178 217.745C108.348 204.405 134.495 161.111 133.569 154.612C132.593 148.064 110.348 131.841 101.324 128.128Z" fill="#2893D0"/>
<path d="M101.47 127.737L101.372 127.688C92.2989 123.974 85.7621 121.287 80.4449 127.883C57.81 156.078 28.492 206.409 32.4433 227.567C36.0044 246.82 62.1516 254.687 79.3229 254.687C81.7132 254.687 83.9572 254.54 85.9085 254.247C98.543 252.341 105.616 240.369 107.568 217.794C108.153 210.758 115.958 194.974 122.836 181.097C129.032 168.539 134.398 157.691 133.959 154.563C132.983 147.722 110.543 131.499 101.47 127.737ZM122.105 180.706C115.226 194.681 107.373 210.513 106.738 217.696C104.836 239.881 97.9576 251.559 85.7621 253.416C70.0543 255.811 37.2728 248.823 33.2726 227.42C31.0287 215.4 39.8094 195.121 47.517 180.217C56.5905 162.773 69.4201 142.934 81.079 128.421C83.2255 125.733 85.567 124.707 88.2988 124.707C91.8111 124.707 95.9088 126.417 100.982 128.47L101.08 128.519C110.739 132.477 132.154 148.553 133.032 154.612C133.52 157.544 127.959 168.783 122.105 180.706Z" fill="#2893D0"/>
<path d="M277.134 139.367C285.622 136.923 308.306 126.711 307.281 121.384C306.208 115.716 305.769 114.983 304.598 112.198C303.379 109.315 299.476 102.816 300.208 106.09C301.671 112.442 282.354 120.31 273.865 123.388C265.377 126.515 259.524 125.44 257.963 122.704C257.963 122.704 255.377 121.629 258.987 130.033C262.646 138.438 262.499 140.588 262.499 140.588C262.499 140.588 268.597 141.81 277.134 139.367Z" fill="#504566"/>
<path d="M262.451 141.028C262.597 141.077 264.109 141.37 266.646 141.37C269.231 141.37 272.939 141.077 277.232 139.806C281.378 138.634 289.134 135.506 295.964 131.841C301.623 128.812 308.306 124.512 307.72 121.287C306.793 116.205 306.306 115.081 305.379 112.882L304.989 112.002C304.94 111.905 301.623 104.771 300.208 104.771C300.159 104.771 300.11 104.771 300.11 104.771C299.525 104.966 299.72 105.748 299.818 106.188C301.281 112.442 280.207 120.651 273.719 122.997C265.573 125.978 259.816 125 258.353 122.508C258.304 122.411 258.255 122.362 258.158 122.313C257.914 122.215 257.426 122.166 257.036 122.508C256.499 123.046 256.109 124.414 258.646 130.18C262.158 138.243 262.109 140.539 262.109 140.539C262.109 140.784 262.255 140.979 262.451 141.028ZM257.621 123.144C257.67 123.095 257.67 123.095 257.719 123.095C259.426 125.733 265.182 127.004 274.012 123.779C284.549 119.918 301.915 112.54 300.647 106.09C301.574 107.311 303.379 110.341 304.208 112.296L304.598 113.175C305.525 115.325 305.964 116.4 306.891 121.433C307.281 123.486 303.135 127.004 295.574 131.06C288.793 134.676 281.085 137.754 276.988 138.927C269.768 140.979 264.255 140.393 262.89 140.197C262.792 139.269 262.255 136.435 259.377 129.838C256.987 124.267 257.475 123.29 257.621 123.144Z" fill="#504566"/>
<path d="M311.184 145.181C306.403 126.711 300.452 126.369 299.379 126.466L299.525 128.128V129.789C299.574 129.789 303.867 130.376 307.916 145.963L308.55 148.455C326.746 218.527 331.868 229.375 334.697 230.694L336.209 227.714C334.161 226.101 328.258 210.904 311.818 147.625L311.184 145.181Z" fill="#504566"/>
<path d="M113.665 169.272C130.349 146.256 120.739 135.799 120.349 135.36L117.909 137.705C118.007 137.803 125.861 146.794 110.982 167.317C95.4697 188.72 74.7861 236.509 78.6399 255.078L81.9571 254.393C80.2985 246.477 83.5669 231.329 90.933 212.859C97.2746 196.636 106.251 179.533 113.665 169.272Z" fill="#504566"/>
</g>
<defs>
<filter id="filter0_dd_3_13871" x="0.0825195" y="0" width="371.038" height="313.967" filterUnits="userSpaceOnUse" color-interpolation-filters="sRGB">
<feFlood flood-opacity="0" result="BackgroundImageFix"/>
<feColorMatrix in="SourceAlpha" type="matrix" values="0 0 0 0 0 0 0 0 0 0 0 0 0 0 0 0 0 0 127 0" result="hardAlpha"/>
<feMorphology radius="8" operator="erode" in="SourceAlpha" result="effect1_dropShadow_3_13871"/>
<feOffset dy="20"/>
<feGaussianBlur stdDeviation="20"/>
<feColorMatrix type="matrix" values="0 0 0 0 0.0627451 0 0 0 0 0.0941176 0 0 0 0 0.156863 0 0 0 0.1 0"/>
<feBlend mode="normal" in2="BackgroundImageFix" result="effect1_dropShadow_3_13871"/>
<feColorMatrix in="SourceAlpha" type="matrix" values="0 0 0 0 0 0 0 0 0 0 0 0 0 0 0 0 0 0 127 0" result="hardAlpha"/>
<feMorphology radius="8" operator="erode" in="SourceAlpha" result="effect2_dropShadow_3_13871"/>
<feOffset dy="20"/>
<feGaussianBlur stdDeviation="20"/>
<feColorMatrix type="matrix" values="0 0 0 0 0.0627451 0 0 0 0 0.0941176 0 0 0 0 0.156863 0 0 0 0.05 0"/>
<feBlend mode="normal" in2="effect1_dropShadow_3_13871" result="effect2_dropShadow_3_13871"/>
<feBlend mode="normal" in="SourceGraphic" in2="effect2_dropShadow_3_13871" result="shape"/>
</filter>
</defs>
</svg>
