<svg width="460" height="131" viewBox="0 0 460 131" fill="none" xmlns="http://www.w3.org/2000/svg">
<g clip-path="url(#clip0_3_11883)">
<path d="M85.7285 81.1338L29.1481 98.0763C24.882 99.3537 20.5057 96.9944 19.2283 92.7284L2.28591 36.1481C1.00846 31.882 3.36782 27.5057 7.63392 26.2283L64.2143 9.28582C68.4802 8.00842 72.8566 10.3677 74.1341 14.6338L91.0765 71.2142C92.3538 75.4802 89.9944 79.8564 85.7285 81.1338Z" fill="#5CA4DA"/>
<path d="M57.9274 11.1683C58.7292 23.6505 55.5338 38.3081 47.9839 52.3124C39.962 67.192 28.4173 78.4779 16.7407 84.4209L2.28591 36.1481C1.00846 31.882 3.36782 27.5057 7.63393 26.2283L57.9274 11.1683Z" fill="#6DAFE0"/>
<path d="M63.2312 43.5875C64.9412 36.2251 64.5403 29.9841 60.5229 28.0065C56.4383 25.8044 51.2285 28.8323 46.0176 34.3072C40.5426 29.0963 35.0665 26.3322 31.1367 28.7323C27.2069 31.1323 27.316 37.2161 29.4674 44.4009C22.2826 46.5523 17.2073 50.0294 17.2949 54.407C17.4497 59.0091 22.7685 62.0648 30.1309 63.7748C28.4209 71.1372 28.8219 77.3783 32.8392 79.3559C36.9238 81.558 42.1336 78.5301 47.3446 73.0551C52.8195 78.2661 58.2956 81.0301 62.2254 78.6301C66.1552 76.2301 66.0461 70.1463 63.8947 62.9615C71.0795 60.8101 76.1548 57.333 76.0673 52.9554C75.9126 48.3533 70.5937 45.2973 63.2312 43.5875ZM58.95 30.924C60.7005 31.8677 61.3045 36.3355 59.7747 42.6653C57.7095 42.305 55.4199 42.012 52.973 42.0108C51.6943 40.1918 50.1911 38.44 48.688 36.6882C53.1352 31.9313 56.9749 30.0475 58.95 30.924ZM51.4812 61.5407C48.1362 61.8083 45.4647 61.8744 42.277 61.8503C40.5049 59.2004 39.0917 56.9324 37.477 53.9907C38.8255 51.1404 40.0838 48.8063 41.8812 45.8216C45.2263 45.5539 47.8978 45.4878 51.0854 45.512C52.8576 48.1619 54.2707 50.4299 55.8854 53.3716C54.6042 56.4464 53.3459 58.7805 51.4812 61.5407ZM57.9037 57.6603C58.3971 58.4912 58.7332 59.6138 59.0022 60.5119C58.1041 60.7808 57.1387 60.8253 56.0161 61.1614L57.9037 57.6603ZM48.9873 65.4681C48.2909 66.4106 47.7517 67.0613 47.2799 67.9366C46.562 67.1729 45.8439 66.4093 45.3505 65.5784C46.9895 65.3323 47.0567 65.5567 48.9873 65.4681ZM37.7648 61.4888C36.7322 61.3087 35.7668 61.353 34.7343 61.173C34.9815 60.3649 35.3862 59.265 35.8582 58.3899C36.5535 59.8942 36.7779 59.827 37.7648 61.4888ZM35.4586 49.7019C34.9652 48.871 34.629 47.7484 34.3601 46.8502C35.2582 46.5813 36.2235 46.5369 37.3461 46.2007L35.4586 49.7019ZM44.375 41.8941C45.0714 40.9515 45.6106 40.3008 46.0823 39.4255C46.8002 40.1892 47.5183 40.9528 48.0117 41.7837C46.3728 42.0299 46.3055 41.8054 44.375 41.8941ZM55.5975 45.8734C56.63 46.0534 57.5954 46.0092 58.628 46.1892C58.3807 46.9973 57.976 48.0971 57.504 48.9723C56.8088 47.468 56.5843 47.5352 55.5975 45.8734ZM33.2678 31.7639C34.9296 30.7771 39.1042 32.4628 43.8611 36.9103C42.401 38.5708 41.2328 40.3884 39.84 42.2736C37.4603 42.4969 35.3723 42.8773 33.0599 43.3252C31.2446 37.2628 31.3815 32.818 33.2678 31.7639ZM20.999 54.5209C20.9101 52.5902 24.4809 49.8085 30.7678 47.9259C31.5973 49.8794 32.4941 52.0574 33.6156 54.1682C32.8064 56.3678 31.9297 58.3428 31.3449 60.4752C24.7233 58.7882 21.0879 56.4516 20.999 54.5209ZM34.4122 76.4382C32.6618 75.4944 32.0578 71.0267 33.5876 64.6969C35.6527 65.0571 37.9424 65.3502 40.3893 65.3513C41.668 67.1703 43.1712 68.9221 44.6742 70.674C40.2271 75.431 36.3874 77.3146 34.4122 76.4382ZM60.0944 75.5982C58.4327 76.5851 54.2581 74.8993 49.5011 70.4519C50.9612 68.7914 52.1294 66.9737 53.5223 65.0886C55.9019 64.8653 57.9899 64.4848 60.3023 64.037C62.1177 70.0993 61.9807 74.5442 60.0944 75.5982ZM72.3633 52.8412C72.4522 54.7719 68.8813 57.5537 62.5945 59.4362C61.7649 57.4827 60.8681 55.3047 59.7467 53.194C60.5559 50.9944 61.4326 49.0194 62.0173 46.887C68.639 48.574 72.2746 50.9105 72.3633 52.8412Z" fill="white"/>
<path d="M48.1602 58.6207C50.8883 57.8038 52.4376 54.9301 51.6207 52.2021C50.8038 49.474 47.9301 47.9247 45.202 48.7416C42.474 49.5585 40.9247 52.4322 41.7416 55.1603C42.5584 57.8883 45.4322 59.4376 48.1602 58.6207Z" fill="white"/>
</g>
<g clip-path="url(#clip1_3_11883)" filter="url(#filter0_dd_3_11883)">
<path d="M174.236 55.2738C175.327 56.2942 176.74 56.9933 178.337 57.1956L192.003 58.9259L191.164 65.552L200.665 60.0227L204.403 60.4958C208.431 61.0059 212.109 58.1637 212.618 54.1474L215.908 28.1617C216.416 24.1455 213.563 20.4762 209.534 19.9661L183.469 16.6659C179.44 16.1558 175.762 18.9981 175.254 23.0143L171.218 54.8917L174.236 55.2738Z" fill="#F7F3F1"/>
<path d="M209.534 19.9661L203.286 19.175C207.315 19.6851 210.168 23.3545 209.66 27.3706L206.37 53.3563C205.861 57.3726 202.183 60.2148 198.155 59.7047L194.418 59.2316L191.769 60.7729L191.164 65.552L200.665 60.0226L204.402 60.4958C208.431 61.0059 212.109 58.1636 212.618 54.1473L215.908 28.1617C216.416 24.1456 213.563 20.4762 209.534 19.9661Z" fill="#EFE7E3"/>
<path d="M187.099 47.4749L187.773 48.1787C188.843 49.2945 190.264 50.0093 191.797 50.2035L202.47 51.5549C203.482 51.683 204.404 50.9421 204.485 49.9136C204.561 48.9504 205.712 40.2359 205.837 39.2527C205.961 38.2696 205.265 37.3714 204.282 37.2469L197.047 36.3087L198.199 34.3223C198.79 33.3039 199.137 32.1631 199.215 30.9885C199.293 29.8139 199.099 28.6372 198.648 27.5499C198.135 26.4851 196.543 26.6515 196.36 27.8575C196.122 29.7394 195.205 31.4697 193.781 32.7232L188.505 37.3609L186.822 37.1479L185.54 47.2774L187.099 47.4749Z" fill="#FFD36C"/>
<path d="M186.175 48.9896L181.302 48.3726C181.147 48.3531 181.007 48.2728 180.911 48.1496C180.816 48.0264 180.773 47.8702 180.793 47.7155L182.365 35.2935C182.385 35.1388 182.465 34.9982 182.588 34.9027C182.712 34.8071 182.868 34.7645 183.022 34.7841L187.895 35.401C187.972 35.4107 188.046 35.4354 188.113 35.4737C188.18 35.512 188.239 35.5631 188.286 35.6241C188.334 35.6851 188.368 35.7549 188.389 35.8293C188.409 35.9038 188.415 35.9816 188.405 36.0582L186.832 48.4802C186.812 48.6349 186.732 48.7754 186.609 48.8709C186.486 48.9664 186.33 49.0091 186.175 48.9896Z" fill="#8EE6F3"/>
<path d="M172.597 68.2977L175.918 42.0712C176.319 38.9041 174.068 36.0105 170.891 35.6082L150.337 33.0057C147.16 32.6034 144.259 34.8449 143.858 38.012L141.264 58.5039C140.863 61.671 143.113 64.5646 146.29 64.9668L157.582 66.3966L156.914 71.6709L164.413 67.2615L172.597 68.2977Z" fill="#72D1FB"/>
<path d="M170.892 35.6083L162.746 34.5769C165.923 34.9791 168.173 37.8728 167.772 41.0399L164.452 67.2664L172.597 68.2978L175.918 42.0712C176.319 38.9041 174.069 36.0105 170.892 35.6083Z" fill="#62A6FD"/>
<path d="M165.915 52.927L161.781 52.4035L162.581 49.7218L166.262 50.1879C167.71 50.3713 167.995 48.1256 166.546 47.9422L163.237 47.5231L164.328 43.8618C164.746 42.4629 162.577 41.8159 162.159 43.2151L160.961 47.235L158.252 46.892L159.344 43.2307C159.761 41.8318 157.592 41.1846 157.174 42.584L155.976 46.6038L151.471 46.0334C150.022 45.85 149.738 48.0956 151.186 48.279L155.32 48.8025L154.52 51.4842L150.839 51.0181C149.391 50.8347 149.107 53.0804 150.555 53.2638L153.865 53.6829L152.773 57.3442C152.36 58.7283 154.524 59.392 154.942 57.9909L156.141 53.971L158.85 54.314L157.758 57.9753C157.345 59.3594 159.509 60.0232 159.927 58.622L161.126 54.6022L165.631 55.1726C167.079 55.356 167.364 53.1104 165.915 52.927ZM159.505 52.1154L156.797 51.7724L157.596 49.0907L160.305 49.4336L159.505 52.1154Z" fill="#F7F3F1"/>
<path d="M184.255 65.5165L169.668 63.6696C167.414 63.3841 165.355 64.9747 165.071 67.2223L163.23 81.7642C162.945 84.0118 164.542 86.0652 166.797 86.3507L174.81 87.3653L174.336 91.1083L179.658 87.9792L181.383 88.1977C183.638 88.4831 185.696 86.8926 185.981 84.645L187.822 70.103C188.106 67.8554 186.509 65.8019 184.255 65.5165Z" fill="#FA9084"/>
<path d="M184.254 65.5165L177.967 64.7204C180.221 65.0058 181.818 67.0592 181.534 69.3068L179.692 83.8489C179.408 86.0965 177.349 87.687 175.095 87.4016L174.809 87.3654L174.335 91.1084L179.657 87.9792L181.383 88.1977C183.637 88.4832 185.696 86.8926 185.98 84.645L187.821 70.1029C188.106 67.8555 186.509 65.8019 184.254 65.5165Z" fill="#FF6CB5"/>
<path d="M174.9 80.8747C178.645 79.4583 180.664 78.1053 180.975 75.6524C181.403 72.2691 177.366 70.8985 175.861 73.2861C174.839 70.4928 170.746 70.9199 170.318 74.303C170.007 76.7559 171.625 78.5693 174.9 80.8747Z" fill="#F7F3F1"/>
</g>
<g filter="url(#filter1_dd_3_11883)">
<path d="M302.137 63.3898L323.782 59.972L288.721 16.6403L268.718 68.6667L290.362 65.2491" fill="#AFB9D2"/>
<path d="M302.138 63.3894L312.694 61.7225L291.939 37.0073L279.805 66.9156L290.362 65.2487" fill="#E4EAF7"/>
<path d="M323.782 59.9723L268.718 68.6669L275.038 52.2275L280.314 38.5081L288.721 16.6406L303.461 34.8566L312.705 46.2815L323.782 59.9723Z" fill="#BEC8DC"/>
<path d="M312.694 61.723L279.805 66.9162L282.183 61.0567L287.651 47.5769L291.938 37.0073L299.274 45.7432L308.629 56.8827L312.694 61.723Z" fill="#E4EAF7"/>
<path d="M312.706 46.2816L306.386 62.7194L286.117 65.9198L275.038 52.2276L280.314 38.5082L295.052 56.7245L303.461 34.8567L312.706 46.2816Z" fill="#95A5B9"/>
<path d="M308.629 56.8828L306.386 62.7193L286.117 65.9198L282.183 61.0569L287.651 47.5771L295.052 56.7245L299.274 45.7436L308.629 56.8828Z" fill="#BEC8DC"/>
<path d="M317.86 22.4632L297.857 74.4898L262.796 31.1578L273.884 29.4069L294.825 55.2892L306.773 24.2138L317.86 22.4632Z" fill="#7DE6C4"/>
<path d="M306.773 24.2138L294.825 55.2888L273.884 29.4069L284.441 27.74L291.938 37.0078L296.216 25.8806L306.773 24.2138Z" fill="#707384"/>
<path d="M325.299 86.7933L275.54 94.6502C274.075 94.8817 272.699 93.8813 272.468 92.4162L269.952 76.4851C269.721 75.0194 270.721 73.6445 272.187 73.413L321.946 65.5561C323.411 65.3247 324.786 66.3247 325.018 67.7903L327.533 83.7215C327.764 85.1865 326.765 86.5619 325.299 86.7933Z" fill="#B9EBFF"/>
<path d="M321.946 65.5556L317.098 66.3209C318.564 66.0895 319.94 67.0898 320.171 68.555L322.687 84.4869C322.918 85.9518 321.918 87.3274 320.452 87.5589L325.299 86.7935C326.765 86.5621 327.765 85.1867 327.533 83.7215L325.018 67.7895C324.786 66.3247 323.411 65.3242 321.946 65.5556Z" fill="#A0DCF0"/>
<path d="M276.195 78.4561C276.154 78.1996 276.268 77.9607 276.537 77.7407C276.806 77.5202 277.103 77.3841 277.428 77.3328C277.841 77.2675 278.111 77.3745 278.234 77.6527L282.238 86.3403L283.353 76.8445C283.385 76.5417 283.608 76.3569 284.022 76.2916C284.335 76.2422 284.657 76.2834 284.987 76.4144C285.317 76.5459 285.502 76.7345 285.541 76.9803C285.545 77.0029 285.542 77.0607 285.534 77.1536L283.978 88.2146C283.949 88.4602 283.81 88.6688 283.561 88.8395C283.313 89.0103 283.021 89.1224 282.686 89.1753C281.914 89.2972 281.405 89.1254 281.159 88.6597L276.255 78.6187C276.218 78.533 276.199 78.4787 276.195 78.4561L276.195 78.4561ZM287.156 85.0307L286.52 81.0043C286.493 80.8364 286.578 80.6626 286.773 80.4829C286.968 80.3032 287.211 80.1901 287.502 80.1442C287.782 80.1 288.042 80.133 288.283 80.2439C288.524 80.3547 288.658 80.4934 288.684 80.6601L289.318 84.6759C289.38 85.0666 289.58 85.3923 289.92 85.6527C290.259 85.9135 290.63 86.0121 291.033 85.9485C291.435 85.885 291.755 85.6772 291.992 85.3255C292.229 84.9741 292.316 84.6028 292.255 84.2123L291.618 80.1802C291.59 80.0022 291.674 79.8283 291.871 79.66C292.068 79.4915 292.312 79.3847 292.603 79.3387C292.916 79.2893 293.185 79.3158 293.407 79.4179C293.629 79.5201 293.755 79.6614 293.783 79.8401L294.421 83.8829C294.564 84.789 294.332 85.6402 293.724 86.4348C293.115 87.2307 292.319 87.7057 291.334 87.8611C290.35 88.0165 289.444 87.8104 288.614 87.2416C287.785 86.6738 287.299 85.9366 287.156 85.0307ZM295.725 83.6436L295.499 82.2169C295.355 81.3002 295.588 80.4552 296.2 79.6819C296.812 78.9094 297.626 78.4423 298.644 78.2816C299.595 78.1315 300.457 78.3037 301.228 78.7976C302 79.2921 302.458 79.9938 302.602 80.9043C302.654 81.2367 302.655 81.5169 302.605 81.7467C302.556 81.9757 302.451 82.1482 302.291 82.2643C302.132 82.3804 301.981 82.4609 301.839 82.5059C301.698 82.5515 301.509 82.5922 301.274 82.6292L297.868 83.1671L297.908 83.4188C297.984 83.8996 298.224 84.2601 298.629 84.5C299.034 84.7396 299.533 84.8131 300.126 84.7195C300.551 84.6524 300.953 84.48 301.333 84.2021C301.714 83.9242 301.965 83.7756 302.088 83.7562C302.324 83.719 302.536 83.7972 302.727 83.99C302.918 84.1835 303.03 84.3809 303.062 84.582C303.111 84.8951 302.878 85.2507 302.362 85.6473C301.845 86.044 301.167 86.3085 300.328 86.441C299.131 86.63 298.105 86.4683 297.25 85.9556C296.396 85.443 295.887 84.6722 295.725 83.6436ZM297.667 81.8921L300.116 81.5053C300.295 81.477 300.416 81.4284 300.48 81.3598C300.544 81.2906 300.563 81.173 300.536 81.0056C300.478 80.64 300.289 80.3647 299.967 80.1803C299.645 79.9953 299.278 79.9358 298.864 80.001C298.473 80.0629 298.149 80.2287 297.894 80.4995C297.638 80.7697 297.54 81.0879 297.597 81.4535L297.667 81.8921ZM303.535 82.4618C303.471 82.0588 303.511 81.7692 303.655 81.5918C303.799 81.4144 304.067 81.2944 304.459 81.2326C305.141 81.1248 305.541 81.2969 305.658 81.7483C305.892 82.9384 306.563 83.4454 307.67 83.2705C308.856 83.0833 309.347 82.3464 309.144 81.0601L308.1 74.45L306.389 74.7202C306.176 74.7538 305.993 74.6854 305.84 74.5148C305.687 74.3443 305.589 74.1246 305.547 73.8561C305.506 73.599 305.53 73.3687 305.618 73.1659C305.707 72.9626 305.863 72.8435 306.087 72.8081L309.023 72.3445C309.28 72.3039 309.514 72.3302 309.723 72.4228C309.933 72.516 310.054 72.6688 310.088 72.8813L311.325 80.7157C311.533 82.0352 311.331 83.0619 310.719 83.7947C310.107 84.5274 309.225 84.9848 308.072 85.1667C306.886 85.354 305.874 85.2073 305.036 84.7261C304.198 84.2457 303.698 83.4905 303.535 82.4618ZM312.97 82.313C312.93 82.0559 312.986 81.7804 313.14 81.4862C313.295 81.193 313.495 81.0264 313.741 80.9876C313.886 80.9646 314.062 81.008 314.269 81.1185C314.48 81.2319 314.683 81.3579 314.879 81.4955C315.079 81.6366 315.352 81.7516 315.699 81.8393C316.045 81.9277 316.414 81.9407 316.806 81.8789C317.342 81.7941 317.77 81.6009 318.09 81.2985C318.409 80.9955 318.53 80.6039 318.454 80.1228C318.401 79.7877 318.256 79.5043 318.019 79.2716C317.782 79.0403 317.49 78.8627 317.144 78.7395C316.773 78.609 316.397 78.4962 316.015 78.4016C315.599 78.2966 315.187 78.1753 314.78 78.0382C314.363 77.8973 313.974 77.727 313.616 77.5252C313.257 77.324 312.947 77.0295 312.685 76.6404C312.423 76.252 312.25 75.7893 312.165 75.2523C312.07 74.651 312.106 74.1012 312.274 73.6033C312.442 73.1058 312.707 72.6972 313.069 72.3781C313.428 72.0619 313.834 71.8035 314.273 71.6124C314.713 71.4205 315.189 71.2845 315.704 71.2032C315.995 71.1572 316.306 71.1289 316.637 71.1173C316.968 71.1069 317.322 71.1188 317.7 71.1528C318.078 71.1876 318.397 71.2844 318.657 71.4431C318.918 71.6025 319.069 71.8137 319.11 72.0778C319.15 72.3269 319.112 72.5972 318.997 72.8876C318.883 73.1785 318.691 73.3447 318.423 73.3871C318.322 73.403 318.031 73.3407 317.55 73.1982C317.069 73.057 316.555 73.0287 316.006 73.1153C315.403 73.2106 314.953 73.3991 314.66 73.6807C314.366 73.9623 314.251 74.3044 314.314 74.7066C314.365 75.0312 314.544 75.2925 314.851 75.4903C315.157 75.6887 315.521 75.8317 315.942 75.92C316.363 76.0082 316.824 76.1308 317.324 76.2862C317.824 76.4424 318.294 76.6232 318.734 76.8288C319.173 77.0346 319.568 77.3708 319.917 77.8372C320.265 78.3035 320.493 78.8781 320.601 79.5603C320.782 80.7077 320.556 81.6506 319.922 82.389C319.287 83.1282 318.371 83.592 317.174 83.781C316.112 83.9488 315.166 83.8745 314.337 83.5583C313.506 83.2427 313.051 82.8274 312.97 82.313Z" fill="#54A1FF"/>
</g>
<path d="M444.616 34.7294L428.017 45.2574C425.861 41.858 422.409 39.2809 418.171 38.3325L422.464 19.1519C431.998 21.2857 439.767 27.0816 444.616 34.7294Z" fill="url(#paint0_linear_3_11883)"/>
<path d="M406.313 40.3999C402.913 42.556 400.336 46.0086 399.388 50.2461L380.207 45.9535C382.341 36.419 388.137 28.6503 395.785 23.801L406.313 40.3999Z" fill="url(#paint1_linear_3_11883)"/>
<path d="M422.464 19.152L418.171 38.3327C413.934 37.3843 409.712 38.2439 406.313 40.4L395.785 23.8011C403.431 18.9499 412.93 17.0182 422.464 19.152Z" fill="url(#paint2_linear_3_11883)"/>
<path d="M449.266 61.4087L430.085 57.1161C431.033 52.8785 430.174 48.6568 428.018 45.2574L444.617 34.7295C449.468 42.376 451.4 51.8742 449.266 61.4087Z" fill="url(#paint3_linear_3_11883)"/>
<path d="M449.266 61.4087C447.132 70.9431 441.336 78.7119 433.688 83.5612L423.16 66.9623C426.56 64.8062 429.137 61.3536 430.085 57.1161L449.266 61.4087Z" fill="url(#paint4_linear_3_11883)"/>
<path d="M401.455 62.1048L384.856 72.6327C380.005 64.9861 378.073 55.4879 380.207 45.9535L399.388 50.2461C398.44 54.4836 399.299 58.7053 401.455 62.1048Z" fill="url(#paint5_linear_3_11883)"/>
<path d="M433.688 83.5613C426.041 88.4125 416.543 90.3442 407.009 88.2104L411.301 69.0297C415.539 69.9781 419.761 69.1184 423.16 66.9623L433.688 83.5613Z" fill="url(#paint6_linear_3_11883)"/>
<path d="M411.301 69.0298L407.009 88.2105C397.474 86.0767 389.706 80.2807 384.856 72.6329L401.455 62.1049C403.611 65.5044 407.064 68.0815 411.301 69.0298Z" fill="url(#paint7_linear_3_11883)"/>
<path d="M437.403 39.3045L428.018 45.2574C425.862 41.858 422.409 39.2809 418.171 38.3325L420.598 27.4884C427.832 29.1073 433.723 33.5037 437.403 39.3045Z" fill="url(#paint8_linear_3_11883)"/>
<path d="M406.313 40.4001C402.913 42.5562 400.336 46.0088 399.388 50.2463L388.544 47.8194C390.163 40.5856 394.559 34.6951 400.36 31.0145L406.313 40.4001Z" fill="url(#paint9_linear_3_11883)"/>
<path d="M420.598 27.4885L418.171 38.3326C413.934 37.3843 409.712 38.2439 406.313 40.4L400.36 31.0144C406.162 27.3358 413.364 25.8696 420.598 27.4885Z" fill="url(#paint10_linear_3_11883)"/>
<path d="M440.929 59.5431L430.085 57.1162C431.033 52.8786 430.174 48.6569 428.018 45.2575L437.403 39.3046C441.082 45.1067 442.548 52.3092 440.929 59.5431Z" fill="url(#paint11_linear_3_11883)"/>
<path d="M440.929 59.543C439.31 66.7768 434.914 72.6673 429.113 76.3479L423.16 66.9623C426.56 64.8062 429.137 61.3536 430.085 57.1161L440.929 59.543Z" fill="url(#paint12_linear_3_11883)"/>
<path d="M401.455 62.1048L392.07 68.0576C388.391 62.2555 386.925 55.0531 388.544 47.8192L399.388 50.2461C398.44 54.4836 399.299 58.7053 401.455 62.1048Z" fill="url(#paint13_linear_3_11883)"/>
<path d="M429.113 76.3479C423.311 80.0265 416.108 81.4927 408.874 79.8738L411.301 69.0297C415.539 69.9781 419.761 69.1184 423.16 66.9623L429.113 76.3479Z" fill="url(#paint14_linear_3_11883)"/>
<path d="M411.302 69.0297L408.875 79.8738C401.641 78.2549 395.75 73.8585 392.07 68.0577L401.455 62.1048C403.611 65.5042 407.064 68.0813 411.302 69.0297Z" fill="url(#paint15_linear_3_11883)"/>
<path d="M447.534 40.4008L430.292 51.3368C430.574 53.207 430.523 55.1596 430.085 57.1159C429.137 61.3535 426.56 64.806 423.16 66.9621C419.761 69.1182 415.539 69.9779 411.301 69.0295C409.345 68.5917 407.557 67.8061 405.985 66.7534L388.743 77.6894C393.454 82.7991 399.714 86.5776 407.009 88.2102C416.543 90.344 426.042 88.4124 433.688 83.5611C441.336 78.7119 447.132 70.943 449.266 61.4086C450.898 54.1134 450.148 46.8404 447.534 40.4008Z" fill="url(#paint16_linear_3_11883)"/>
<path d="M382.395 61.4437L370.404 80.422C369.824 81.3403 370.572 82.5199 371.65 82.3865L393.929 79.6288C398.965 76.4342 387.431 58.2492 382.395 61.4437Z" fill="url(#paint17_linear_3_11883)"/>
<path d="M424.404 60.3014L393.928 79.6286C393.679 78.8325 393.201 78.0703 392.508 77.4511C391.56 76.6096 389.794 76.559 388.543 76.6521C388.271 76.6709 388.067 76.4859 388.018 76.2613C388.001 76.1893 388 76.1144 388.015 76.042C388.03 75.9695 388.061 75.9014 388.106 75.8424C388.109 75.8431 388.109 75.8403 388.109 75.8403C388.207 75.7068 388.298 75.5684 388.382 75.4257L388.496 75.2205C388.5 75.2157 388.501 75.213 388.502 75.2077C388.617 74.9857 388.713 74.7595 388.792 74.5235C388.817 74.4467 388.841 74.3666 388.864 74.2891C388.9 74.1596 388.931 74.0289 388.956 73.8969C389.136 72.9523 389.026 71.9752 388.639 71.0948C388.541 70.8717 388.427 70.6566 388.296 70.4513C388.166 70.2454 388.02 70.0499 387.86 69.8667C387.122 69.018 386.125 68.4817 385.066 68.3017C384.986 68.2895 384.904 68.2768 384.823 68.2672C384.577 68.2376 384.328 68.2275 384.081 68.2378C384.076 68.2365 384.073 68.2359 384.067 68.2374L383.833 68.2534C383.748 68.2602 383.666 68.2703 383.584 68.2832C383.505 68.2939 383.425 68.3074 383.344 68.3236C383.341 68.323 383.341 68.323 383.338 68.3251C383.266 68.3405 383.191 68.3396 383.119 68.3225C383.047 68.3054 382.979 68.2725 382.922 68.2262C382.74 68.0858 382.659 67.8227 382.792 67.5848C383.409 66.4928 384.116 64.8766 383.758 63.6605C383.494 62.7669 383.011 62.0096 382.395 61.4444L412.869 42.1141C414.242 41.2452 416.059 41.6519 416.928 43.0226L418.572 45.6147L423.669 53.6498L425.313 56.2418C426.182 57.6123 425.775 59.4292 424.404 60.3014Z" fill="url(#paint18_linear_3_11883)"/>
<path d="M423.669 53.6496L388.018 76.2612C388.001 76.1893 388 76.1144 388.015 76.0419C388.03 75.9695 388.061 75.9013 388.106 75.8424C388.109 75.843 388.109 75.8403 388.109 75.8403C388.208 75.7058 388.716 74.7573 388.791 74.5235C388.82 74.4445 388.843 74.3671 388.864 74.2891C389.152 73.2544 389.092 72.1246 388.639 71.0948C388.541 70.8717 388.427 70.6565 388.296 70.4512C388.166 70.2453 388.02 70.0499 387.86 69.8666C387.122 69.0179 386.125 68.4817 385.066 68.3017C384.987 68.2868 384.907 68.2746 384.823 68.2672C384.577 68.2353 384.329 68.2254 384.081 68.2377C384.076 68.2365 384.073 68.2359 384.067 68.2374C383.989 68.24 383.425 68.3072 383.344 68.3234C383.341 68.3228 383.341 68.3228 383.338 68.3249C383.266 68.3403 383.191 68.3394 383.119 68.3223C383.047 68.3052 382.979 68.2723 382.922 68.226L418.572 45.6144L423.669 53.6496Z" fill="url(#paint19_linear_3_11883)"/>
<path d="M375.141 78.795C374.554 77.8686 373.827 77.0389 372.986 76.3354L370.404 80.4218C369.824 81.3401 370.572 82.5198 371.65 82.3862L376.447 81.7925C376.169 80.7317 375.729 79.7205 375.141 78.795Z" fill="url(#paint20_linear_3_11883)"/>
<path d="M456.678 27.0793L419.879 50.4198L416.464 45.0367C415.72 43.8633 416.068 42.3087 417.241 41.5645L420.461 39.5224C421.149 39.086 421.744 38.5183 422.213 37.8518C422.682 37.1852 423.015 36.4329 423.193 35.6377L423.926 32.3593C424.504 29.78 426.651 27.8495 429.277 27.5496L455.776 24.5234C457.243 24.3558 457.925 26.2884 456.678 27.0793Z" fill="url(#paint21_linear_3_11883)"/>
<path d="M456.678 27.0792L419.879 50.4197L423.293 55.8028C424.037 56.9762 425.592 57.3241 426.765 56.5799L429.985 54.5379C430.673 54.1014 431.44 53.8048 432.243 53.6649C433.045 53.525 433.868 53.5446 434.663 53.7226L437.941 54.4563C440.521 55.0335 443.182 53.9135 444.573 51.6658L458.606 28.985C459.382 27.7295 457.925 26.2883 456.678 27.0792Z" fill="url(#paint22_linear_3_11883)"/>
<path d="M439.024 39.4878L457.509 27.764C457.969 27.4721 458.15 26.8701 457.889 26.392C457.822 26.2689 457.73 26.161 457.62 26.0748C457.509 25.9886 457.382 25.926 457.247 25.8909C457.111 25.8557 456.97 25.8488 456.831 25.8706C456.693 25.8923 456.56 25.9423 456.442 26.0173L437.972 37.7325C436.762 38.4996 435.272 38.7341 433.907 38.2996C432.645 37.8977 431.205 38.0874 430.043 38.9712C428.397 40.2235 427.902 42.5303 428.887 44.3493C430.07 46.5332 432.829 47.226 434.891 45.9186C435.97 45.2338 436.635 44.1422 436.812 42.9703C437.027 41.5424 437.805 40.2612 439.024 39.4878Z" fill="url(#paint23_linear_3_11883)"/>
<path d="M422.549 37.3176C422.046 38.214 421.329 38.9716 420.461 39.5223L417.241 41.5643C416.068 42.3085 415.72 43.8631 416.464 45.0365L419.878 50.4196L423.293 55.8027C424.037 56.9761 425.592 57.324 426.765 56.5798L429.985 54.5378C430.852 53.9874 431.844 53.6614 432.869 53.5889L422.549 37.3176Z" fill="url(#paint24_linear_3_11883)"/>
<path d="M419.897 63.1598L408.362 44.972L415.61 40.3748C416.45 39.8423 417.562 40.0912 418.094 40.9307L427.702 56.0786C428.234 56.9181 427.985 58.0301 427.146 58.5624L419.897 63.1598Z" fill="url(#paint25_linear_3_11883)"/>
<defs>
<filter id="filter0_dd_3_11883" x="109.753" y="-4.08579" width="135.046" height="135.046" filterUnits="userSpaceOnUse" color-interpolation-filters="sRGB">
<feFlood flood-opacity="0" result="BackgroundImageFix"/>
<feColorMatrix in="SourceAlpha" type="matrix" values="0 0 0 0 0 0 0 0 0 0 0 0 0 0 0 0 0 0 127 0" result="hardAlpha"/>
<feMorphology radius="3.6585" operator="erode" in="SourceAlpha" result="effect1_dropShadow_3_11883"/>
<feOffset dy="9.75599"/>
<feGaussianBlur stdDeviation="14.634"/>
<feColorMatrix type="matrix" values="0 0 0 0 0.0627451 0 0 0 0 0.0941176 0 0 0 0 0.156863 0 0 0 0.1 0"/>
<feBlend mode="normal" in2="BackgroundImageFix" result="effect1_dropShadow_3_11883"/>
<feColorMatrix in="SourceAlpha" type="matrix" values="0 0 0 0 0 0 0 0 0 0 0 0 0 0 0 0 0 0 127 0" result="hardAlpha"/>
<feMorphology radius="3.6585" operator="erode" in="SourceAlpha" result="effect2_dropShadow_3_11883"/>
<feOffset dy="9.75599"/>
<feGaussianBlur stdDeviation="14.634"/>
<feColorMatrix type="matrix" values="0 0 0 0 0.0627451 0 0 0 0 0.0941176 0 0 0 0 0.156863 0 0 0 0.05 0"/>
<feBlend mode="normal" in2="effect1_dropShadow_3_11883" result="effect2_dropShadow_3_11883"/>
<feBlend mode="normal" in="SourceGraphic" in2="effect2_dropShadow_3_11883" result="shape"/>
</filter>
<filter id="filter1_dd_3_11883" x="237.186" y="0.786768" width="115.99" height="129.262" filterUnits="userSpaceOnUse" color-interpolation-filters="sRGB">
<feFlood flood-opacity="0" result="BackgroundImageFix"/>
<feColorMatrix in="SourceAlpha" type="matrix" values="0 0 0 0 0 0 0 0 0 0 0 0 0 0 0 0 0 0 127 0" result="hardAlpha"/>
<feMorphology radius="3.6585" operator="erode" in="SourceAlpha" result="effect1_dropShadow_3_11883"/>
<feOffset dy="9.75599"/>
<feGaussianBlur stdDeviation="14.634"/>
<feColorMatrix type="matrix" values="0 0 0 0 0.0627451 0 0 0 0 0.0941176 0 0 0 0 0.156863 0 0 0 0.1 0"/>
<feBlend mode="normal" in2="BackgroundImageFix" result="effect1_dropShadow_3_11883"/>
<feColorMatrix in="SourceAlpha" type="matrix" values="0 0 0 0 0 0 0 0 0 0 0 0 0 0 0 0 0 0 127 0" result="hardAlpha"/>
<feMorphology radius="3.6585" operator="erode" in="SourceAlpha" result="effect2_dropShadow_3_11883"/>
<feOffset dy="9.75599"/>
<feGaussianBlur stdDeviation="14.634"/>
<feColorMatrix type="matrix" values="0 0 0 0 0.0627451 0 0 0 0 0.0941176 0 0 0 0 0.156863 0 0 0 0.05 0"/>
<feBlend mode="normal" in2="effect1_dropShadow_3_11883" result="effect2_dropShadow_3_11883"/>
<feBlend mode="normal" in="SourceGraphic" in2="effect2_dropShadow_3_11883" result="shape"/>
</filter>
<linearGradient id="paint0_linear_3_11883" x1="419.017" y1="17.0169" x2="436.736" y2="44.9537" gradientUnits="userSpaceOnUse">
<stop stop-color="#FFF5D9"/>
<stop offset="1" stop-color="#FFCE47"/>
</linearGradient>
<linearGradient id="paint1_linear_3_11883" x1="387.487" y1="34.0744" x2="395.418" y2="46.5791" gradientUnits="userSpaceOnUse">
<stop stop-color="#6FA953"/>
<stop offset="1" stop-color="#43765A"/>
</linearGradient>
<linearGradient id="paint2_linear_3_11883" x1="408.149" y1="19.9388" x2="418.572" y2="36.3722" gradientUnits="userSpaceOnUse">
<stop stop-color="#E4E08E"/>
<stop offset="1" stop-color="#6FA953"/>
</linearGradient>
<linearGradient id="paint3_linear_3_11883" x1="430.477" y1="35.0846" x2="447.394" y2="61.7567" gradientUnits="userSpaceOnUse">
<stop stop-color="#FFCE47"/>
<stop offset="1" stop-color="#FF9356"/>
</linearGradient>
<linearGradient id="paint4_linear_3_11883" x1="430.917" y1="55.8354" x2="440.724" y2="71.2978" gradientUnits="userSpaceOnUse">
<stop stop-color="#FF9356"/>
<stop offset="1" stop-color="#FF755C"/>
</linearGradient>
<linearGradient id="paint5_linear_3_11883" x1="382.756" y1="46.672" x2="394.296" y2="64.8663" gradientUnits="userSpaceOnUse">
<stop stop-color="#7ACBFF"/>
<stop offset="1" stop-color="#45A2E0"/>
</linearGradient>
<linearGradient id="paint6_linear_3_11883" x1="410.854" y1="70.9161" x2="420.535" y2="86.1797" gradientUnits="userSpaceOnUse">
<stop stop-color="#FF755C"/>
<stop offset="1" stop-color="#FF4181"/>
</linearGradient>
<linearGradient id="paint7_linear_3_11883" x1="391.011" y1="59.687" x2="414.42" y2="96.5958" gradientUnits="userSpaceOnUse">
<stop stop-color="#FF4181"/>
<stop offset="1" stop-color="#843561"/>
</linearGradient>
<linearGradient id="paint8_linear_3_11883" x1="431.301" y1="44.358" x2="420.396" y2="27.1641" gradientUnits="userSpaceOnUse">
<stop stop-color="#FFF5D9"/>
<stop offset="1" stop-color="#FFCE47"/>
</linearGradient>
<linearGradient id="paint9_linear_3_11883" x1="400.96" y1="49.6785" x2="387.444" y2="28.3681" gradientUnits="userSpaceOnUse">
<stop stop-color="#6FA953"/>
<stop offset="1" stop-color="#43765A"/>
</linearGradient>
<linearGradient id="paint10_linear_3_11883" x1="416.275" y1="38.39" x2="404.247" y2="19.4249" gradientUnits="userSpaceOnUse">
<stop stop-color="#E4E08E"/>
<stop offset="1" stop-color="#6FA953"/>
</linearGradient>
<linearGradient id="paint11_linear_3_11883" x1="440.802" y1="59.3376" x2="428.103" y2="39.3166" gradientUnits="userSpaceOnUse">
<stop stop-color="#FFCE47"/>
<stop offset="1" stop-color="#FF9356"/>
</linearGradient>
<linearGradient id="paint12_linear_3_11883" x1="436.995" y1="71.0569" x2="428.511" y2="57.6813" gradientUnits="userSpaceOnUse">
<stop stop-color="#FF9356"/>
<stop offset="1" stop-color="#FF755C"/>
</linearGradient>
<linearGradient id="paint13_linear_3_11883" x1="401.362" y1="68.0332" x2="385.699" y2="43.3377" gradientUnits="userSpaceOnUse">
<stop stop-color="#7ACBFF"/>
<stop offset="1" stop-color="#45A2E0"/>
</linearGradient>
<linearGradient id="paint14_linear_3_11883" x1="421.42" y1="81.937" x2="410.004" y2="63.9371" gradientUnits="userSpaceOnUse">
<stop stop-color="#FF755C"/>
<stop offset="1" stop-color="#FF4181"/>
</linearGradient>
<linearGradient id="paint15_linear_3_11883" x1="409.132" y1="80.2833" x2="395.199" y2="58.316" gradientUnits="userSpaceOnUse">
<stop stop-color="#FF4181"/>
<stop offset="1" stop-color="#843561"/>
</linearGradient>
<linearGradient id="paint16_linear_3_11883" x1="426.244" y1="71.8238" x2="418.146" y2="59.0574" gradientUnits="userSpaceOnUse">
<stop stop-color="#843561" stop-opacity="0"/>
<stop offset="1" stop-color="#3A2F4D"/>
</linearGradient>
<linearGradient id="paint17_linear_3_11883" x1="375.402" y1="65.8443" x2="386.936" y2="84.0295" gradientUnits="userSpaceOnUse">
<stop stop-color="#FFE0EA"/>
<stop offset="1" stop-color="#FFC0D5"/>
</linearGradient>
<linearGradient id="paint18_linear_3_11883" x1="383.613" y1="56.0022" x2="424.215" y2="65.0889" gradientUnits="userSpaceOnUse">
<stop stop-color="#FFCE47"/>
<stop offset="1" stop-color="#FF9356"/>
</linearGradient>
<linearGradient id="paint19_linear_3_11883" x1="408.081" y1="68.4834" x2="396.437" y2="50.1254" gradientUnits="userSpaceOnUse">
<stop stop-color="#FFCE47"/>
<stop offset="1" stop-color="#FF9356"/>
</linearGradient>
<linearGradient id="paint20_linear_3_11883" x1="372.421" y1="79.7152" x2="375.364" y2="84.3553" gradientUnits="userSpaceOnUse">
<stop stop-color="#2F73A0"/>
<stop offset="1" stop-color="#174461"/>
</linearGradient>
<linearGradient id="paint21_linear_3_11883" x1="436.254" y1="33.5436" x2="437.491" y2="37.1962" gradientUnits="userSpaceOnUse">
<stop stop-color="#EDF5FF"/>
<stop offset="1" stop-color="#C7E9FF"/>
</linearGradient>
<linearGradient id="paint22_linear_3_11883" x1="439.839" y1="40.8413" x2="441.431" y2="46.1876" gradientUnits="userSpaceOnUse">
<stop stop-color="#EDF5FF"/>
<stop offset="1" stop-color="#C7E9FF"/>
</linearGradient>
<linearGradient id="paint23_linear_3_11883" x1="445.568" y1="38.7857" x2="442.028" y2="33.205" gradientUnits="userSpaceOnUse">
<stop stop-color="#2F73A0"/>
<stop offset="1" stop-color="#174461"/>
</linearGradient>
<linearGradient id="paint24_linear_3_11883" x1="425.644" y1="46.742" x2="422.596" y2="48.6757" gradientUnits="userSpaceOnUse">
<stop stop-color="#7ACBFF" stop-opacity="0"/>
<stop offset="1" stop-color="#2F73A0"/>
</linearGradient>
<linearGradient id="paint25_linear_3_11883" x1="420.161" y1="49.3336" x2="414.889" y2="54.6945" gradientUnits="userSpaceOnUse">
<stop stop-color="#2F73A0"/>
<stop offset="1" stop-color="#174461"/>
</linearGradient>
<clipPath id="clip0_3_11883">
<rect width="75" height="75" fill="white" transform="translate(0 28.5142) rotate(-16.6698)"/>
</clipPath>
<clipPath id="clip1_3_11883">
<rect width="75" height="75" fill="white" transform="translate(144.783 11.7677) rotate(7.21612)"/>
</clipPath>
</defs>
</svg>
