<svg width="322" height="403" viewBox="0 0 322 403" fill="none" xmlns="http://www.w3.org/2000/svg">
<g filter="url(#filter0_dd_3_12993)">
<path d="M54.4624 169.586C52.9436 171.836 52.2124 173.354 52.2124 173.354L72.462 283.602C72.462 283.602 78.3681 285.289 87.6491 287.708C64.9246 271.396 56.0936 187.191 54.4624 169.586Z" fill="#2893D0"/>
<path d="M54.9122 169.529C54.9122 169.304 54.7435 169.135 54.5747 169.079C54.3498 169.023 54.181 169.135 54.0685 169.248C52.5498 171.498 51.8186 173.017 51.7623 173.073C51.7061 173.185 51.7061 173.298 51.7061 173.354L71.9556 283.602C72.0119 283.771 72.1244 283.939 72.2931 283.995C72.3494 283.995 78.3117 285.739 87.4803 288.102C87.5365 288.102 87.5365 288.102 87.5928 288.102C87.7615 288.102 87.9303 287.989 88.0428 287.82C88.1553 287.595 88.099 287.37 87.874 287.202C65.3183 271.114 56.4872 186.348 54.9122 169.529ZM52.7185 173.41C52.8873 173.073 53.3373 172.229 54.1248 170.992C54.6873 177.01 55.8122 187.416 57.5559 199.735L52.7185 173.41ZM72.8556 283.152L64.4745 237.421C70.3807 262.846 77.468 279.327 85.5678 286.583C78.7055 284.839 74.0368 283.489 72.8556 283.152Z" fill="#2893D0"/>
<path d="M106.661 292.433C127.811 297.495 154.754 303.12 175.566 304.751C215.727 307.845 270.289 170.485 267.645 159.292C265.058 148.098 217.696 150.686 217.696 150.686L136.135 157.323C136.135 157.323 103.511 148.661 82.6427 151.136C71.3367 152.486 63.2932 158.898 58.3433 164.523C61.4932 163.792 66.1056 163.904 71.1117 168.067C80.224 175.773 97.0987 201.085 106.436 235.172C115.773 269.258 139.06 271.958 139.06 271.958C139.06 271.958 125.448 290.745 106.661 292.433ZM218.877 187.641C218.877 187.641 226.808 205.022 229.508 194.222C232.208 183.423 248.014 166.323 248.014 166.323C248.014 166.323 239.521 218.128 224.558 222.066C209.54 226.003 218.877 187.641 218.877 187.641ZM159.985 225.609C160.266 218.353 167.185 218.747 165.891 214.978C164.597 211.21 164.316 202.772 164.316 202.772C172.528 195.91 189.572 264.027 189.572 264.027C189.572 264.027 176.691 272.352 170.672 269.708C164.653 267.065 159.704 232.865 159.985 225.609Z" fill="#2893D0"/>
<path d="M247.564 166.042C246.889 166.717 231.646 183.366 228.946 194.166C228.609 195.572 227.934 197.203 226.921 197.316C226.865 197.316 226.865 197.316 226.809 197.316C224.559 197.316 221.015 191.297 219.271 187.472C219.159 187.304 218.99 187.191 218.765 187.191C218.54 187.191 218.371 187.36 218.315 187.585C218.034 188.71 211.79 214.753 218.54 221.39C219.609 222.403 220.846 222.909 222.421 222.909C223.096 222.909 223.827 222.797 224.559 222.628C239.633 218.634 248.014 168.629 248.408 166.492C248.464 166.267 248.352 166.098 248.127 165.985C247.958 165.817 247.733 165.873 247.564 166.042ZM224.334 221.616C222.196 222.178 220.509 221.841 219.271 220.603C213.759 215.203 217.809 194.616 218.99 189.104C220.396 191.972 223.884 198.272 226.809 198.272C226.865 198.272 226.921 198.272 226.977 198.272C228.327 198.16 229.227 196.866 229.902 194.391C232.096 185.504 243.515 172.117 247.171 167.954C245.539 176.841 237.327 218.184 224.334 221.616Z" fill="#2893D0"/>
<path d="M106.605 291.983C106.38 291.983 106.155 292.208 106.155 292.433C106.155 292.658 106.268 292.883 106.549 292.939C126.236 297.664 154.191 303.626 175.566 305.258C176.016 305.314 176.466 305.314 176.972 305.314C185.916 305.314 196.097 298.733 207.29 285.739C239.577 248.165 270.177 167.729 268.208 159.236C265.564 147.817 219.721 150.18 217.753 150.292L136.304 156.93C134.448 156.423 102.949 148.323 82.7555 150.742C71.112 152.148 62.9559 158.842 58.1185 164.242C57.9498 164.411 57.9498 164.636 58.0623 164.804C58.1748 164.973 58.3998 165.086 58.5685 165.029C61.4935 164.354 66.0496 164.354 70.9433 168.517C79.3806 175.604 96.424 200.072 106.099 235.34C114.424 265.715 134.054 271.396 138.329 272.296C135.686 275.502 123.03 290.464 106.605 291.983ZM139.511 272.24C139.623 272.127 139.623 271.902 139.567 271.733C139.511 271.565 139.342 271.452 139.173 271.452C138.948 271.396 116.111 268.358 106.999 235.059C97.2677 199.566 80.0556 174.929 71.562 167.729C67.0621 163.961 62.8997 163.398 59.806 163.792C64.5872 158.729 72.237 152.936 82.868 151.642C103.399 149.167 135.854 157.717 136.136 157.829C136.192 157.829 136.248 157.829 136.304 157.829L217.809 151.192C217.921 151.192 229.734 150.573 241.771 151.305C257.408 152.261 266.239 155.073 267.252 159.404C269.22 167.842 238.677 247.659 206.559 285.064C195.028 298.508 184.622 304.976 175.679 304.245C155.26 302.67 128.823 297.158 109.361 292.545C126.798 289.508 139.398 272.408 139.511 272.24Z" fill="#2893D0"/>
<path d="M163.698 218.241C162.01 219.591 159.648 221.391 159.479 225.609C159.198 232.584 163.979 267.29 170.504 270.158C171.404 270.552 172.416 270.721 173.541 270.721C180.122 270.721 189.403 264.758 189.91 264.477C190.078 264.365 190.191 264.14 190.135 263.971C190.078 263.802 186.422 249.065 181.697 234.159C175.341 214.022 170.223 203.166 166.454 201.985C165.61 201.703 164.823 201.872 164.148 202.435C164.035 202.547 163.979 202.66 163.979 202.828C163.979 203.166 164.26 211.378 165.554 215.147C165.891 216.441 165.216 217.059 163.698 218.241ZM166.341 214.809C165.216 211.491 164.879 204.403 164.823 202.997C165.216 202.772 165.61 202.716 166.06 202.828C168.423 203.616 172.866 209.691 180.685 234.384C184.96 247.996 188.447 261.496 189.01 263.802C187.097 264.983 176.072 271.508 170.841 269.258C165.216 266.783 160.098 233.315 160.435 225.665C160.604 221.897 162.629 220.322 164.26 219.028C165.723 217.903 167.073 216.834 166.341 214.809Z" fill="#2893D0"/>
<path d="M106.661 292.433C99.5174 290.745 92.9926 289.058 87.6489 287.652C88.3239 288.158 88.9989 288.552 89.7301 288.945C95.6362 292.039 101.317 292.883 106.661 292.433Z" fill="#4461AB"/>
<path d="M87.7613 287.202C87.5363 287.145 87.3113 287.258 87.1988 287.483C87.0863 287.708 87.1426 287.933 87.3676 288.102C88.0988 288.664 88.83 289.058 89.505 289.395C94.2299 291.814 99.0673 293.052 104.017 293.052C104.917 293.052 105.817 292.995 106.717 292.939C106.942 292.939 107.167 292.714 107.167 292.489C107.167 292.264 107.055 292.039 106.773 291.983C100.361 290.464 94.0049 288.833 87.7613 287.202ZM90.9112 289.058C94.9049 290.07 98.8986 291.083 102.948 292.095C98.8986 291.927 94.8487 290.914 90.9112 289.058Z" fill="#4461AB"/>
<path d="M71.2245 168.067C66.2183 163.848 61.6059 163.736 58.456 164.523C56.8248 166.379 55.4748 168.123 54.5186 169.585C56.1498 187.191 64.9808 271.396 87.7053 287.652C93.049 289.058 99.5739 290.689 106.717 292.433C125.561 290.745 139.173 271.902 139.173 271.902C139.173 271.902 115.886 269.202 106.549 235.115C97.1551 201.085 80.3368 175.773 71.2245 168.067Z" fill="#4461AB"/>
<path d="M139.173 271.452C138.948 271.452 116.111 268.414 106.999 235.059C97.2678 199.566 80.0557 174.929 71.5621 167.729C66.331 163.342 61.4936 163.285 58.3436 164.073C58.2311 164.073 58.1749 164.129 58.1186 164.242C56.6562 165.873 55.3062 167.617 54.125 169.36C54.0687 169.473 54.0125 169.585 54.0687 169.698C54.9687 179.26 57.5561 204.235 62.7873 229.265C69.4809 261.327 77.7495 281.127 87.4805 288.102C87.5367 288.158 87.593 288.158 87.6493 288.158C93.8929 289.789 100.305 291.364 106.661 292.939C106.718 292.939 106.718 292.939 106.774 292.939H106.83C125.673 291.251 139.511 272.408 139.679 272.239C139.792 272.127 139.792 271.902 139.736 271.733C139.511 271.564 139.342 271.452 139.173 271.452ZM106.661 291.927C100.361 290.408 94.0054 288.833 87.818 287.202C65.3747 270.946 56.5437 186.91 54.9124 169.698C56.0374 168.067 57.2749 166.435 58.6249 164.917C61.5498 164.242 65.9934 164.354 70.8308 168.404C79.2682 175.491 96.3116 199.96 105.986 235.228C114.311 265.602 133.942 271.339 138.217 272.183C135.686 275.502 123.086 290.464 106.661 291.927Z" fill="#4461AB"/>
<path d="M159.985 225.609C159.703 232.865 164.653 267.065 170.672 269.708C176.69 272.352 189.571 264.027 189.571 264.027C189.571 264.027 172.528 195.91 164.316 202.772C164.316 202.772 164.597 211.21 165.891 214.978C167.184 218.747 160.266 218.353 159.985 225.609Z" fill="#4461AB"/>
<path d="M163.697 218.241C162.01 219.591 159.647 221.391 159.479 225.609C159.197 232.584 163.978 267.29 170.503 270.158C171.403 270.552 172.416 270.721 173.541 270.721C180.122 270.721 189.403 264.758 189.909 264.477C190.078 264.365 190.19 264.14 190.134 263.971C189.515 261.552 175.284 204.853 166.453 201.985C165.61 201.703 164.822 201.872 164.147 202.435C164.035 202.547 163.979 202.66 163.979 202.828C163.979 203.166 164.26 211.378 165.553 215.147C165.891 216.441 165.216 217.059 163.697 218.241ZM166.341 214.809C165.216 211.491 164.878 204.403 164.822 202.997C165.216 202.772 165.61 202.716 166.06 202.828C172.697 204.966 183.891 243.44 189.009 263.802C187.097 264.983 176.072 271.564 170.841 269.258C165.216 266.783 160.097 233.315 160.435 225.665C160.604 221.897 162.629 220.322 164.26 219.028C165.722 217.903 167.072 216.834 166.341 214.809Z" fill="#4461AB"/>
<path d="M218.878 187.641C218.878 187.641 209.54 226.003 224.502 222.065C239.465 218.128 247.958 166.323 247.958 166.323C247.958 166.323 232.152 183.423 229.452 194.222C226.752 205.078 218.878 187.641 218.878 187.641Z" fill="#4461AB"/>
<path d="M247.564 166.042C246.889 166.717 231.646 183.366 228.946 194.166C228.609 195.572 227.934 197.203 226.921 197.316C226.865 197.316 226.865 197.316 226.809 197.316C224.559 197.316 221.015 191.297 219.271 187.472C219.159 187.304 218.99 187.191 218.765 187.191C218.54 187.191 218.371 187.36 218.315 187.585C218.034 188.71 211.79 214.753 218.54 221.39C219.609 222.403 220.846 222.909 222.421 222.909C223.096 222.909 223.827 222.797 224.559 222.628C239.633 218.634 248.014 168.629 248.408 166.492C248.464 166.267 248.352 166.098 248.127 165.985C247.958 165.817 247.733 165.873 247.564 166.042ZM224.334 221.616C222.196 222.178 220.509 221.841 219.271 220.603C213.759 215.203 217.809 194.616 218.99 189.104C220.396 191.972 223.884 198.272 226.809 198.272C226.865 198.272 226.921 198.272 226.977 198.272C228.327 198.16 229.227 196.866 229.902 194.391C232.096 185.504 243.515 172.117 247.171 167.954C245.539 176.841 237.327 218.184 224.334 221.616Z" fill="#4461AB"/>
<path d="M150.31 195.516C160.435 201.141 181.922 204.235 179.897 183.873C178.434 169.361 157.904 174.423 148.623 185.054C152.504 185.166 156.16 186.46 157.847 188.935C157.904 188.879 154.641 190.623 150.31 195.516Z" fill="#244698"/>
<path d="M149.973 195.179C149.86 195.291 149.86 195.46 149.86 195.572C149.86 195.741 149.973 195.854 150.085 195.91C154.641 198.385 160.66 200.128 166.116 200.128C169.547 200.128 172.81 199.454 175.284 197.766C179.334 195.122 181.078 190.397 180.403 183.704C179.953 179.204 177.647 176.167 173.766 174.873C166.566 172.567 154.866 177.01 148.285 184.604C148.173 184.773 148.116 184.941 148.229 185.11C148.285 185.279 148.454 185.391 148.679 185.391C152.335 185.504 155.597 186.685 157.229 188.654C156.104 189.441 153.347 191.298 149.973 195.179ZM158.129 189.329C158.241 189.273 158.354 189.16 158.354 188.991C158.41 188.879 158.354 188.71 158.297 188.597C156.722 186.348 153.572 184.885 149.691 184.604C156.216 177.742 166.847 173.804 173.485 175.942C176.972 177.066 179.053 179.823 179.447 183.929C180.066 190.173 178.491 194.616 174.778 197.035C168.816 200.972 158.241 199.172 151.097 195.404C155.091 190.96 158.072 189.329 158.129 189.329Z" fill="#244698"/>
<path d="M135.573 194.166C134.504 204.741 138.498 215.991 138.498 215.991C142.266 206.203 146.654 199.735 150.31 195.516C147.273 193.829 145.248 191.972 145.191 190.397C145.979 188.485 147.16 186.685 148.623 184.998C142.66 184.885 136.192 187.697 135.573 194.166Z" fill="#4461AB"/>
<path d="M149.072 184.829C149.016 184.66 148.847 184.548 148.622 184.548C148.51 184.548 148.341 184.548 148.229 184.548C142.266 184.548 135.741 187.473 135.067 194.11C133.998 204.685 137.991 215.991 137.991 216.103C138.048 216.272 138.216 216.441 138.441 216.441C138.666 216.441 138.835 216.328 138.891 216.103C142.041 207.947 146.035 201.085 150.647 195.797C150.76 195.685 150.76 195.516 150.76 195.404C150.76 195.235 150.647 195.122 150.535 195.066C147.61 193.491 145.81 191.747 145.641 190.454C146.373 188.71 147.498 186.966 148.96 185.335C149.129 185.223 149.185 184.998 149.072 184.829ZM144.741 190.229C144.685 190.285 144.685 190.397 144.685 190.454C144.798 192.535 147.61 194.504 149.579 195.629C145.304 200.635 141.591 206.991 138.554 214.528C137.598 211.322 135.235 202.491 136.079 194.222C136.641 188.429 142.266 185.729 147.61 185.56C146.373 187.079 145.416 188.654 144.741 190.229Z" fill="#4461AB"/>
<path d="M145.191 190.397C145.304 191.972 147.329 193.829 150.31 195.516C154.585 190.622 157.904 188.879 157.904 188.879C156.16 186.404 152.504 185.11 148.679 184.998C147.16 186.685 145.979 188.485 145.191 190.397Z" fill="#283A84"/>
<path d="M148.679 184.548C148.566 184.548 148.397 184.604 148.285 184.716C146.71 186.516 145.529 188.373 144.741 190.229C144.685 190.285 144.685 190.397 144.685 190.454C144.798 192.704 148.116 194.841 150.085 195.966C150.141 196.022 150.254 196.022 150.31 196.022C150.422 196.022 150.591 195.966 150.647 195.854C154.81 191.073 158.072 189.385 158.072 189.329C158.185 189.273 158.297 189.16 158.297 188.991C158.354 188.879 158.297 188.71 158.241 188.597C156.554 186.179 152.954 184.66 148.679 184.548ZM150.197 194.897C147.497 193.379 145.81 191.748 145.641 190.51C146.373 188.823 147.441 187.191 148.847 185.56C152.447 185.673 155.541 186.91 157.172 188.823C156.104 189.385 153.516 191.241 150.197 194.897Z" fill="#283A84"/>
<path d="M117.292 115.249C117.292 115.249 134.954 122.224 143.672 116.824C152.391 111.424 203.465 65.6939 203.465 65.6939C203.465 65.6939 220.902 68.619 231.927 60.2941C242.952 51.9693 224.221 45.107 224.221 45.107C249.758 21.0325 203.465 25.8136 203.465 25.8136C204.871 23.5636 205.827 20.7512 205.321 18.2762C197.278 7.13898 158.578 23.1136 158.578 23.1136L158.747 21.5387C158.128 21.8762 157.791 22.045 157.791 22.045C157.791 22.045 158.41 18.445 157.06 15.9701C143.504 15.2951 121.567 38.6384 121.567 38.6384L121.735 36.6696C120.948 37.6259 120.554 38.2446 120.554 38.2446C120.554 38.2446 121.342 32.5634 120.329 29.301C116.335 31.2135 108.011 37.3446 108.292 54.8942C108.292 54.8942 95.4109 48.3693 91.5298 53.038C87.6486 57.7066 103.005 68.4502 102.555 73.2314C108.686 80.825 113.186 105.068 117.292 115.249Z" fill="#191446"/>
<path d="M120.836 29.1885C120.779 29.076 120.723 28.9635 120.554 28.9072C120.442 28.851 120.273 28.851 120.161 28.9072C116.392 30.7072 107.786 36.7258 107.842 54.1629C105.03 52.8129 94.7923 48.4818 91.1924 52.7567C88.7175 55.7379 92.8236 60.4628 96.8173 65.0189C99.461 68.0564 102.217 71.2626 102.161 73.1189C102.161 73.2313 102.161 73.4001 102.273 73.5126C106.098 78.2937 109.305 89.9372 112.173 100.231C113.804 106.137 115.379 111.705 116.898 115.474C116.954 115.587 117.067 115.699 117.179 115.755C117.686 115.98 126.629 119.412 134.898 119.412C138.216 119.412 141.479 118.849 144.01 117.274C152.504 112.043 199.921 69.6313 203.746 66.2564C205.884 66.5376 221.971 68.5627 232.321 60.7441C235.077 58.6629 236.258 56.5255 235.921 54.2755C235.189 49.4944 227.652 46.0068 225.233 45.0506C231.308 39.1445 233.614 34.4759 232.039 31.0447C228.721 23.7886 209.09 24.9698 204.478 25.3635C205.828 22.9448 206.334 20.4136 205.94 18.3324C205.94 18.2762 205.884 18.22 205.884 18.1637C198.29 7.58896 164.991 20.2449 159.366 22.4949L159.478 21.7637C159.478 21.5949 159.422 21.4261 159.253 21.3137C159.085 21.2012 158.916 21.2012 158.747 21.2574C158.691 21.2574 158.635 21.3137 158.578 21.3137C158.691 20.0199 158.691 17.7137 157.679 15.9138C157.622 15.745 157.454 15.6888 157.285 15.6325C145.135 15.1263 126.742 32.9571 122.354 37.457L122.411 36.8383C122.411 36.6133 122.298 36.4446 122.129 36.3321C121.904 36.2758 121.679 36.3321 121.567 36.5008C121.511 36.5571 121.454 36.6696 121.398 36.7258C121.454 34.6446 121.567 31.4384 120.836 29.1885ZM121.454 39.1445C121.623 39.257 121.848 39.2008 122.017 39.032C122.242 38.807 143.335 16.4763 156.61 16.4763C156.722 16.4763 156.779 16.4763 156.891 16.4763C157.96 18.7825 157.454 21.9324 157.454 21.9886C157.397 22.1574 157.51 22.3824 157.679 22.4386C157.847 22.5511 158.016 22.5511 158.185 22.4386C158.185 22.4386 158.241 22.4386 158.297 22.3824L158.241 23.0011C158.241 23.1699 158.297 23.3386 158.41 23.4511C158.522 23.5636 158.747 23.5636 158.916 23.5074C159.31 23.3386 197.165 7.8702 204.984 18.445C205.377 20.4699 204.703 23.0574 203.128 25.4761C203.015 25.6448 203.015 25.8136 203.128 25.9823C203.24 26.1511 203.409 26.2073 203.578 26.2073C203.803 26.2073 227.708 23.7886 231.083 31.2697C232.489 34.3633 230.127 38.9196 223.94 44.7132C223.827 44.8257 223.771 44.9943 223.771 45.1631C223.827 45.3318 223.94 45.4444 224.052 45.5006C224.165 45.5569 234.121 49.2694 234.852 54.2755C235.133 56.1317 234.064 58.0441 231.589 59.8441C220.902 67.9439 203.69 65.1877 203.521 65.1314C203.353 65.1314 203.24 65.1315 203.128 65.244C202.621 65.694 151.997 111.03 143.391 116.318C135.46 121.211 119.598 115.474 117.629 114.799C116.167 111.143 114.648 105.687 113.017 99.8932C110.148 89.6559 106.942 78.0124 103.061 73.0062C103.117 70.7563 100.361 67.6064 97.4923 64.2877C93.9486 60.2378 89.9549 55.6254 91.9237 53.263C95.5236 48.9318 107.955 55.1755 108.123 55.2317C108.292 55.288 108.461 55.288 108.573 55.2317C108.742 55.1192 108.798 55.0067 108.798 54.838C108.517 38.1883 116.167 32.0009 119.992 29.976C120.723 33.1822 120.048 38.132 120.048 38.1883C119.992 38.4133 120.161 38.6383 120.329 38.6945C120.554 38.7508 120.779 38.6945 120.892 38.5258C120.892 38.5258 120.948 38.4133 121.061 38.2445L121.004 38.582C121.173 38.8633 121.286 39.032 121.454 39.1445Z" fill="#191446"/>
<path d="M145.192 16.476C133.211 23.2259 124.83 32.9569 121.848 36.7256L121.68 38.6943C121.68 38.6943 143.617 15.351 157.173 16.026C155.879 13.6073 152.673 12.2574 145.192 16.476Z" fill="#E46790"/>
<path d="M154.81 13.4949C152.504 12.8199 149.185 13.6636 144.967 16.0823C132.986 22.8322 124.548 32.5633 121.455 36.4444C121.398 36.5007 121.342 36.6132 121.342 36.7257L121.173 38.6944C121.173 38.9194 121.286 39.0881 121.455 39.2006C121.511 39.2569 121.567 39.2569 121.68 39.2569C121.792 39.2569 121.961 39.2006 122.017 39.0881C122.242 38.8631 143.335 16.5323 156.61 16.5323C156.779 16.5323 157.004 16.5323 157.173 16.5323C157.341 16.5323 157.51 16.4761 157.623 16.3073C157.735 16.1386 157.735 15.9698 157.623 15.8011C156.948 14.6199 155.991 13.8324 154.81 13.4949ZM122.242 37.4006L122.298 36.8944C125.392 33.0132 133.661 23.5072 145.417 16.8698C149.41 14.6199 152.448 13.7761 154.529 14.3949C155.204 14.6199 155.823 14.9573 156.273 15.5198C144.067 15.8573 126.573 33.0132 122.242 37.4006Z" fill="#E46790"/>
<path d="M189.403 12.7075C173.822 14.2824 162.179 19.8511 158.86 21.5386L158.691 23.1135C158.691 23.1135 197.391 7.13884 205.434 18.2761C204.647 14.5637 200.541 11.5825 189.403 12.7075Z" fill="#E46790"/>
<path d="M189.347 12.2575C173.653 13.8325 161.897 19.4573 158.635 21.1448C158.466 21.2011 158.41 21.3698 158.354 21.5386L158.185 23.1135C158.185 23.2823 158.241 23.451 158.354 23.5635C158.466 23.6198 158.523 23.676 158.635 23.676C158.691 23.676 158.748 23.676 158.804 23.6198C159.198 23.451 197.222 7.9264 204.928 18.6699C205.04 18.8387 205.322 18.8949 205.49 18.8386C205.715 18.7261 205.828 18.5011 205.772 18.2761C205.209 14.7887 201.778 10.9638 189.347 12.2575ZM159.254 22.3823L159.31 21.8761C162.797 20.0761 174.272 14.7325 189.403 13.2137C196.884 12.4263 201.834 13.495 203.915 16.195C193.903 9.05136 164.541 20.2449 159.254 22.3823Z" fill="#E46790"/>
<path d="M120.386 29.301C119.654 26.9385 118.023 25.7573 114.48 28.9072C106.042 36.3883 106.267 51.7443 106.267 51.7443C106.267 51.7443 95.0737 47.5819 89.8426 51.7443C84.6677 55.9067 94.8487 66.0877 101.486 71.9376C101.88 72.2751 102.217 72.6688 102.611 73.175C103.061 68.3939 87.7051 57.7067 91.5863 52.9818C95.4675 48.3131 108.348 54.838 108.348 54.838C108.067 37.3446 116.392 31.2697 120.386 29.301Z" fill="#E46790"/>
<path d="M120.611 29.751C120.836 29.6385 120.948 29.4135 120.892 29.1885C120.442 27.7823 119.767 26.8823 118.811 26.6573C117.573 26.3198 116.111 26.9386 114.198 28.626C106.605 35.3196 105.93 48.0319 105.817 51.1819C103.286 50.3381 94.2864 47.7507 89.5615 51.4631C88.549 52.3068 87.9866 53.3755 87.9303 54.6693C87.8178 58.6067 92.2615 64.569 101.149 72.3876C101.486 72.6689 101.824 73.0626 102.217 73.5126C102.33 73.6251 102.442 73.6814 102.555 73.6814C102.555 73.6814 102.555 73.6814 102.611 73.6814C102.724 73.6814 102.836 73.6251 102.949 73.5126C103.005 73.4564 103.061 73.3439 103.117 73.2314C103.342 70.9814 100.53 67.7752 97.5488 64.344C94.0052 60.2941 90.0115 55.6817 91.9802 53.3192C95.5801 48.9881 108.011 55.2317 108.18 55.2879C108.349 55.3442 108.517 55.3442 108.63 55.2879C108.799 55.1754 108.855 55.0629 108.855 54.8942C108.574 37.4571 116.955 31.4947 120.611 29.751ZM107.899 54.1068C105.086 52.7568 94.8489 48.4256 91.249 52.7006C88.774 55.6817 92.8802 60.4067 96.8739 64.9628C98.8988 67.3253 100.98 69.6877 101.824 71.5439C93.3302 64.0066 88.8865 58.1566 88.999 54.613C88.999 53.6005 89.449 52.7568 90.2365 52.1381C91.8677 50.8443 94.1177 50.3943 96.4801 50.3943C101.205 50.3943 106.099 52.1942 106.155 52.1942C106.324 52.2505 106.492 52.2506 106.605 52.1381C106.717 52.0256 106.83 51.9131 106.83 51.7444C106.83 51.5756 106.717 36.5009 114.873 29.2448C116.448 27.8385 117.686 27.2761 118.53 27.5011C119.092 27.6698 119.486 28.176 119.823 29.0198C115.886 31.101 107.842 37.2884 107.899 54.1068Z" fill="#E46790"/>
<path d="M123.873 150.461C120.498 153.892 122.973 163.229 123.873 168.123C124.773 173.017 147.216 166.267 147.385 160.192C147.554 154.117 139.116 140.28 139.116 140.28C132.873 142.417 127.192 147.03 123.873 150.461Z" fill="#504566"/>
<path d="M138.948 139.774C131.354 142.417 125.223 148.323 123.479 150.067C120.329 153.273 121.904 161.148 122.973 166.323C123.086 166.998 123.254 167.617 123.367 168.179C123.536 169.136 124.492 170.26 127.642 170.26C128.036 170.26 128.486 170.26 128.992 170.204C135.404 169.698 147.723 165.086 147.891 160.136C148.06 154.005 139.904 140.505 139.567 139.942C139.398 139.83 139.173 139.717 138.948 139.774ZM146.879 160.192C146.766 164.129 135.573 168.742 128.879 169.304C126.179 169.529 124.492 169.079 124.323 168.067C124.211 167.504 124.098 166.886 123.929 166.211C122.917 161.204 121.398 153.667 124.154 150.798C125.786 149.111 131.636 143.486 138.835 140.842C140.185 142.98 147.048 154.848 146.879 160.192Z" fill="#504566"/>
<path d="M131.073 152.711C130.398 157.38 140.073 159.573 140.073 159.573L136.754 145.848C136.754 145.848 131.804 148.042 131.073 152.711Z" fill="#191446"/>
<path d="M136.979 145.399C136.867 145.342 136.698 145.342 136.585 145.399C136.36 145.511 131.354 147.761 130.623 152.655C129.892 157.717 139.566 159.967 140.016 160.079C140.073 160.079 140.073 160.079 140.129 160.079C140.241 160.079 140.41 160.023 140.466 159.911C140.579 159.798 140.635 159.63 140.579 159.461L137.26 145.736C137.204 145.624 137.148 145.455 136.979 145.399ZM131.579 152.767C132.085 149.28 135.179 147.255 136.473 146.524L139.454 158.842C137.204 158.28 131.073 156.255 131.579 152.767Z" fill="#191446"/>
<path d="M210.215 89.0372C210.89 88.8122 211.396 88.8685 211.79 89.1498C210.552 78.1812 207.684 65.3564 200.54 56.6941C200.54 56.6941 202.228 61.7003 195.14 63.3315C194.747 63.444 194.24 63.5003 193.734 63.5566C187.434 65.244 172.641 64.4003 168.535 64.119C169.266 66.2565 169.041 70.0813 160.322 72.4438C156.666 75.4249 142.266 76.2125 138.104 76.325C139.566 84.7061 145.023 119.018 136.304 113.562C136.304 113.562 126.967 102.143 118.023 109.849C109.08 117.555 117.404 142.249 134.223 134.149C134.223 134.149 139.004 134.767 135.235 159.686C135.235 159.686 146.316 182.017 156.61 187.585C157.397 183.817 158.747 175.379 156.329 169.811C153.122 162.498 155.541 151.642 155.541 151.642C145.079 147.198 145.023 138.93 145.023 138.93C148.398 144.442 158.354 144.78 158.354 144.78C163.978 133.474 196.49 120.48 200.034 117.443C203.69 114.293 205.659 110.299 204.759 105.349C203.859 100.456 207.796 96.2933 207.796 96.2933C206.165 91.7934 210.215 89.0372 210.215 89.0372Z" fill="#F9C09D"/>
<path d="M210.44 89.4871C210.89 89.3746 211.227 89.3746 211.565 89.5996C211.734 89.7121 211.902 89.7121 212.071 89.5996C212.24 89.4871 212.352 89.3185 212.296 89.1497C210.665 74.5813 206.84 63.6127 200.99 56.4691C200.821 56.3004 200.596 56.2441 200.371 56.3566C200.146 56.4691 200.09 56.6941 200.146 56.9191C200.146 56.9191 200.653 58.494 199.753 60.069C198.965 61.4189 197.39 62.4315 195.084 62.9377C194.69 63.0502 194.24 63.1065 193.678 63.219C187.49 64.8502 172.978 64.0627 168.647 63.7814C168.478 63.7252 168.31 63.8377 168.253 63.9502C168.141 64.0627 168.141 64.2315 168.197 64.4002C168.591 65.5252 168.478 66.5939 167.972 67.6064C166.96 69.5189 164.372 71.0376 160.322 72.1063C160.266 72.1063 160.21 72.1625 160.153 72.2188C157.341 74.525 146.991 75.7062 138.216 75.9874C138.104 75.9874 137.935 76.0437 137.879 76.1562C137.766 76.2687 137.766 76.3812 137.766 76.5499C140.466 92.1871 142.379 111.255 138.891 113.562C138.666 113.674 138.104 114.068 136.81 113.28C136.248 112.605 131.635 107.318 125.785 106.812C122.917 106.587 120.329 107.487 117.911 109.568C113.579 113.28 112.286 122.449 117.292 130.043C121.286 136.174 127.698 137.917 134.448 134.711C135.067 135.105 138.216 138.255 135.01 159.629C135.01 159.742 135.01 159.854 135.067 159.911C135.517 160.811 146.373 182.466 156.666 187.979C156.722 188.035 156.835 188.035 156.891 188.035C156.947 188.035 157.004 188.035 157.116 187.979C157.229 187.923 157.341 187.81 157.397 187.641C158.297 183.254 159.479 175.098 157.06 169.529C153.966 162.442 156.272 151.811 156.329 151.698C156.385 151.473 156.272 151.248 156.047 151.136C148.847 148.098 146.71 143.205 146.091 140.617C150.197 144.892 158.297 145.173 158.635 145.173C158.804 145.173 158.972 145.061 159.085 144.892C163.078 136.905 181.247 127.793 192.103 122.337C196.434 120.143 199.584 118.568 200.653 117.724C204.703 114.237 206.446 109.906 205.546 105.181C204.703 100.568 208.415 96.6308 208.471 96.5745C208.584 96.462 208.64 96.237 208.584 96.0682C206.896 92.2995 209.99 89.8246 210.44 89.4871ZM207.402 96.2933C206.559 97.2495 203.634 101.018 204.421 105.518C205.209 109.962 203.69 113.843 199.809 117.162C198.853 117.949 195.59 119.58 191.484 121.661C180.628 127.118 162.572 136.117 158.185 144.386C156.497 144.274 148.397 143.486 145.585 138.817C145.473 138.649 145.248 138.536 145.023 138.592C144.798 138.649 144.685 138.817 144.685 139.042C144.685 139.155 144.91 147.48 155.147 152.036C154.754 154.061 153.122 163.398 156.047 170.092C158.297 175.267 157.172 183.198 156.441 186.966C146.991 181.285 136.81 161.598 135.91 159.742C138.61 141.855 136.866 136.342 135.573 134.655C135.01 133.924 134.504 133.811 134.448 133.811C134.335 133.811 134.279 133.811 134.167 133.868C125.054 138.255 119.879 132.349 118.079 129.593C114.367 123.911 113.579 114.574 118.529 110.355C120.723 108.499 123.142 107.656 125.673 107.824C131.354 108.331 136.079 113.955 136.079 114.012C136.135 114.068 136.135 114.068 136.191 114.124C137.429 114.912 138.498 115.024 139.398 114.405C144.066 111.255 140.635 87.6309 138.835 76.9436C143.673 76.7186 156.947 75.9311 160.716 73.0062C164.991 71.825 167.747 70.1376 168.872 68.0564C169.435 67.0439 169.603 65.9189 169.378 64.7376C174.384 65.0751 187.997 65.7502 193.959 64.119C194.465 64.0627 194.971 63.9502 195.421 63.8378C198.065 63.219 199.809 62.094 200.709 60.4628C201.103 59.7316 201.271 58.9441 201.328 58.3253C206.446 65.1877 209.765 75.3125 211.34 88.4185C211.002 88.3622 210.609 88.4184 210.159 88.5309C210.102 88.5309 210.046 88.5872 210.046 88.5872C209.934 88.6997 205.771 91.5684 207.402 96.2933Z" fill="#F9C09D"/>
<path d="M212.859 107.318C212.802 105.18 212.746 102.143 212.577 98.5994C211.902 103.437 210.44 109.737 208.471 116.768C211.227 113.055 212.915 109.737 212.859 107.318Z" fill="#F9C09D"/>
<path d="M212.577 98.1495C212.352 98.1495 212.127 98.3183 212.071 98.5433C211.396 103.099 210.046 109.174 207.965 116.655C207.909 116.88 208.021 117.105 208.246 117.218C208.303 117.274 208.359 117.274 208.471 117.274C208.64 117.274 208.753 117.218 208.865 117.049C211.959 112.83 213.421 109.624 213.365 107.262L213.309 105.631C213.252 103.662 213.196 101.299 213.084 98.5994C213.027 98.3744 212.859 98.1495 212.577 98.1495ZM209.652 114.18C210.721 110.074 211.621 106.418 212.24 103.212C212.24 104.112 212.296 104.899 212.296 105.631L212.352 107.262C212.409 109.006 211.509 111.312 209.652 114.18Z" fill="#F9C09D"/>
<path d="M212.577 98.6558C213.309 93.5934 213.196 90.1622 211.846 89.2059C212.184 92.5809 212.409 95.7871 212.577 98.6558Z" fill="#F9AE82"/>
<path d="M211.565 88.7559C211.396 88.8684 211.284 89.0372 211.34 89.2059C211.677 92.2434 211.902 95.3933 212.071 98.5995C212.071 98.8245 212.296 99.0495 212.521 99.0495C212.746 99.0495 212.971 98.8808 213.027 98.6558C213.871 92.9184 213.534 89.7684 212.071 88.7559C211.959 88.6997 211.734 88.6997 211.565 88.7559Z" fill="#F9AE82"/>
<path d="M208.471 116.824C210.384 109.793 211.902 103.493 212.577 98.6557C212.465 95.787 212.184 92.5808 211.846 89.2059C211.452 88.9247 210.89 88.8684 210.271 89.0934C210.271 89.0934 206.221 91.8497 208.021 96.4621C208.021 96.4621 204.084 100.568 204.984 105.518C205.884 110.412 203.915 114.462 200.259 117.612C196.715 120.649 164.203 133.643 158.579 144.949C158.579 144.949 148.622 144.611 145.248 139.099C145.248 139.099 145.304 147.367 155.766 151.811C155.766 151.811 153.347 162.611 156.554 169.979C158.972 175.548 157.622 184.041 156.835 187.754C159.31 189.104 161.672 189.441 163.922 188.316C175.341 182.523 171.797 152.373 171.797 152.373C171.797 152.373 197.896 131.28 208.471 116.824Z" fill="#F9AE82"/>
<path d="M208.865 117.105C208.921 117.049 208.921 116.993 208.921 116.937C211.002 109.399 212.352 103.268 213.027 98.5995C212.859 95.337 212.634 92.1872 212.296 89.1498C212.296 89.0373 212.184 88.8685 212.071 88.8122C211.509 88.4185 210.834 88.3623 210.046 88.5873C209.99 88.5873 209.934 88.6435 209.934 88.6435C209.877 88.6997 205.771 91.5685 207.402 96.2934C206.559 97.2496 203.634 101.018 204.421 105.518C205.209 109.962 203.69 113.843 199.809 117.162C198.853 117.949 195.59 119.58 191.484 121.661C180.628 127.118 162.572 136.118 158.185 144.386C156.497 144.274 148.397 143.486 145.585 138.817C145.473 138.649 145.248 138.536 145.023 138.592C144.798 138.649 144.685 138.817 144.685 139.042C144.685 139.155 144.91 147.48 155.147 152.036C154.754 154.061 153.122 163.398 156.047 170.092C158.466 175.604 157.004 184.154 156.329 187.585C156.272 187.81 156.385 188.035 156.554 188.091C158.185 188.935 159.647 189.385 161.11 189.385C162.178 189.385 163.135 189.16 164.091 188.654C175.228 182.973 172.641 155.692 172.247 152.486C174.722 150.461 198.853 130.774 208.865 117.105ZM171.403 151.923C171.291 152.036 171.178 152.205 171.234 152.373C171.291 152.655 174.609 182.242 163.585 187.81C161.785 188.71 159.647 188.598 157.285 187.416C158.185 182.973 159.253 175.098 156.891 169.698C153.797 162.611 156.104 151.98 156.16 151.867C156.216 151.642 156.104 151.417 155.879 151.305C148.679 148.267 146.541 143.374 145.923 140.786C150.029 145.061 158.129 145.342 158.466 145.342C158.635 145.342 158.803 145.23 158.916 145.061C162.91 137.074 181.078 127.961 191.934 122.505C196.265 120.312 199.415 118.737 200.484 117.893C204.534 114.405 206.277 110.074 205.378 105.349C204.534 100.737 208.246 96.7996 208.302 96.7434C208.415 96.6309 208.471 96.4058 208.415 96.2371C206.896 92.2996 209.99 89.8247 210.44 89.4872C210.777 89.3747 211.115 89.3747 211.34 89.4872C211.677 92.4121 211.902 95.5059 212.071 98.5433C211.396 103.099 210.046 109.118 208.021 116.543C197.559 130.886 171.684 151.698 171.403 151.923Z" fill="#F9AE82"/>
<path d="M160.435 72.5564C155.766 73.8501 148.679 74.6938 137.879 74.6376C137.879 74.6376 137.991 75.3126 138.216 76.4938C142.379 76.3251 156.722 75.5376 160.435 72.5564Z" fill="#F9AE82"/>
<path d="M160.266 72.1062C155.091 73.5125 147.554 74.2437 137.879 74.1874C137.71 74.1874 137.598 74.2437 137.485 74.3562C137.373 74.4687 137.373 74.6374 137.373 74.7499C137.373 74.7499 137.485 75.4249 137.71 76.5498C137.766 76.7748 137.935 76.9435 138.16 76.9435C142.491 76.7748 156.891 75.9874 160.66 72.95C160.828 72.7812 160.885 72.5562 160.772 72.3312C160.716 72.1062 160.491 72.05 160.266 72.1062ZM138.61 75.9312C138.554 75.5937 138.498 75.3124 138.441 75.0874C144.854 75.0874 150.422 74.8061 154.922 74.1311C150.479 75.1436 144.235 75.7062 138.61 75.9312Z" fill="#F9AE82"/>
<path d="M168.647 64.2316C172.697 64.5129 187.49 65.3566 193.846 63.6692C185.859 64.7941 167.803 62.6003 167.803 62.6003C167.803 62.6003 168.309 63.2192 168.647 64.2316Z" fill="#F9AE82"/>
<path d="M193.734 63.1627C185.859 64.2876 168.028 62.094 167.86 62.094C167.635 62.094 167.466 62.1502 167.353 62.3189C167.241 62.4877 167.297 62.7127 167.41 62.8814C167.41 62.8814 167.86 63.5002 168.197 64.3439C168.253 64.5127 168.422 64.6815 168.647 64.6815C170.953 64.8502 176.184 65.1314 181.472 65.1314C186.197 65.1314 190.978 64.9065 193.959 64.119C194.184 64.0628 194.353 63.7815 194.296 63.5565C194.24 63.3315 193.959 63.1627 193.734 63.1627ZM168.985 63.7252C168.928 63.5002 168.816 63.3314 168.703 63.1627C170.616 63.3877 175.059 63.8377 179.897 64.1752C175.397 64.1189 171.178 63.8939 168.985 63.7252Z" fill="#F9AE82"/>
<path d="M143.504 138.255C147.441 149.673 166.06 159.573 165.722 158.504C165.722 158.504 172.866 145.286 163.022 145.567C153.179 145.848 143.504 138.255 143.504 138.255Z" fill="#E68262"/>
<path d="M162.966 145.061C162.797 145.061 162.572 145.061 162.403 145.061C153.01 145.061 143.841 137.917 143.785 137.861C143.616 137.749 143.391 137.749 143.223 137.861C143.054 137.974 142.998 138.199 143.054 138.424C146.71 148.886 163.36 159.067 165.722 159.067C165.778 159.067 165.835 159.067 165.891 159.067C166.003 159.011 166.172 158.898 166.228 158.729C166.51 158.223 170.334 150.911 168.085 147.198C167.072 145.68 165.385 145.005 162.966 145.061ZM165.385 157.998C163.191 157.211 149.016 149.223 144.573 139.605C147.61 141.686 155.204 146.242 163.022 146.017C165.047 145.961 166.453 146.524 167.128 147.648C168.985 150.63 166.06 156.761 165.385 157.998Z" fill="#E68262"/>
<path d="M123.367 125.993C123.536 126.33 123.873 126.555 124.267 126.555C124.379 126.555 124.548 126.499 124.661 126.442L132.76 122.73C133.042 122.618 133.267 122.336 133.323 121.999C133.379 121.661 133.267 121.38 133.042 121.155L124.548 113.224C124.154 112.887 123.536 112.887 123.198 113.28C122.861 113.674 122.861 114.293 123.254 114.63L130.735 121.605L123.929 124.755C123.367 124.98 123.142 125.543 123.367 125.993Z" fill="#62392C"/>
<path d="M199.809 103.887C199.752 103.887 197.165 104.674 194.521 102.987C194.071 102.706 193.453 102.818 193.171 103.268C192.89 103.718 193.003 104.337 193.453 104.618C195.196 105.743 196.94 106.024 198.234 106.024C199.415 106.024 200.202 105.799 200.202 105.799C207.234 104.73 211.846 96.7995 210.552 88.1372C209.259 79.4748 202.452 73.2874 195.421 74.2999C191.99 74.8061 189.178 76.9436 187.49 80.2623C185.859 83.4123 185.353 87.4622 185.972 91.6809C186.028 92.1871 186.534 92.5808 187.097 92.4683C187.603 92.412 187.997 91.9058 187.884 91.3433C187.322 87.5184 187.772 83.8622 189.178 81.1061C190.584 78.2936 192.834 76.6061 195.646 76.1561C201.609 75.2561 207.402 80.7123 208.527 88.3621C209.821 96.0119 205.884 102.987 199.809 103.887Z" fill="#F9AE82"/>
<path d="M140.466 97.6433C142.041 97.6433 149.804 93.256 153.066 91.3997L152.11 89.7123C147.16 92.581 141.423 95.6183 140.466 95.6746V97.6433Z" fill="#F9AE82"/>
<path d="M161.953 78.3499C154.303 79.5312 149.185 87.7998 150.591 96.7996C151.266 101.131 153.291 105.012 156.328 107.712C158.916 110.018 162.009 111.199 165.103 111.199C165.722 111.199 166.341 111.143 166.959 111.087C170.672 110.524 173.934 108.274 176.072 104.731C178.209 101.243 178.997 96.9684 178.322 92.6372C176.972 83.5812 169.603 77.1687 161.953 78.3499ZM174.384 103.718C172.528 106.756 169.772 108.668 166.622 109.174C163.472 109.681 160.266 108.612 157.566 106.306C154.866 103.943 153.01 100.456 152.447 96.5746C151.21 88.5873 155.597 81.3311 162.178 80.3187C162.684 80.2624 163.191 80.2062 163.697 80.2062C169.716 80.2062 175.228 85.606 176.353 92.9746C176.972 96.7996 176.297 100.625 174.384 103.718Z" fill="#F9AE82"/>
<path d="M200.934 100.737C200.934 100.737 198.29 101.524 195.646 99.837C195.196 99.5557 194.578 99.6682 194.296 100.118C194.015 100.568 194.128 101.187 194.578 101.468C196.321 102.593 198.121 102.874 199.359 102.874C200.54 102.874 201.327 102.649 201.327 102.649C208.358 101.581 212.971 93.6495 211.621 84.9872C211.002 80.8248 209.09 77.1124 206.277 74.4687C203.409 71.825 199.921 70.6438 196.49 71.1501C189.459 72.2188 184.846 80.1498 186.14 88.8121C186.309 89.8246 187.265 95.0557 189.909 95.9557C190.415 96.1245 190.978 95.8433 191.146 95.3371C191.315 94.8308 191.034 94.2682 190.528 94.0995C189.403 93.7057 188.39 90.5558 188.053 88.4746C186.871 80.8248 190.809 73.9062 196.771 73.0062C199.584 72.5562 202.509 73.5687 204.927 75.8186C207.402 78.1248 209.09 81.4436 209.652 85.2123C210.946 92.8621 207.065 99.7806 200.934 100.737Z" fill="#191446"/>
<path d="M163.247 75.1438C159.535 75.7063 156.272 77.9562 154.135 81.4999C151.997 84.9873 151.21 89.2622 151.885 93.5934C153.122 101.918 159.479 107.993 166.453 107.993C167.072 107.993 167.635 107.937 168.253 107.881C175.903 106.699 181.022 98.4309 179.616 89.431C178.209 80.375 170.897 73.9625 163.247 75.1438ZM167.916 105.968C161.335 106.981 154.979 101.299 153.741 93.3122C153.179 89.431 153.854 85.5499 155.766 82.5124C157.622 79.475 160.379 77.5626 163.528 77.0563C164.035 77.0001 164.541 76.9437 165.047 76.9437C171.066 76.9437 176.578 82.3437 177.703 89.7123C178.884 97.6996 174.497 104.956 167.916 105.968Z" fill="#191446"/>
<path d="M189.628 104.224C189.178 104.506 189.009 105.068 189.291 105.574C189.459 105.912 189.797 106.081 190.134 106.081C190.303 106.081 190.472 106.024 190.64 105.968C190.922 105.799 197.84 101.749 197.222 97.0246C196.94 94.8309 194.803 94.6621 193.059 94.5496C191.315 94.4371 189.459 94.2683 188.278 92.8621C187.041 91.3996 186.647 88.5873 187.041 84.6499C187.097 84.1436 186.703 83.6373 186.197 83.581C185.634 83.5248 185.184 83.9185 185.128 84.4248C184.622 88.9809 185.184 92.1871 186.816 94.0995C188.503 96.1807 191.034 96.3495 192.89 96.5183C194.803 96.687 195.253 96.7996 195.309 97.3058C195.647 100.062 191.315 103.212 189.628 104.224Z" fill="#62392C"/>
<path d="M181.641 114.405C181.191 114.687 181.022 115.249 181.303 115.755C181.472 116.037 181.809 116.205 182.147 116.205C182.316 116.205 182.484 116.149 182.653 116.093C182.653 116.093 185.24 114.63 188.503 114.968C189.009 115.024 189.515 114.63 189.572 114.124C189.628 113.618 189.234 113.112 188.728 113.055C184.734 112.605 181.753 114.293 181.641 114.405Z" fill="#62392C"/>
<path d="M188.897 67.8314C188.447 68.0564 188.222 68.6752 188.503 69.1252C188.672 69.4627 189.009 69.6314 189.347 69.6314C189.515 69.6314 189.684 69.5751 189.797 69.5189C189.853 69.5189 194.184 67.2128 198.628 68.3377C199.134 68.4502 199.696 68.1689 199.809 67.6627C199.921 67.1564 199.64 66.594 199.134 66.4815C194.015 65.1878 189.122 67.7189 188.897 67.8314Z" fill="#62392C"/>
<path d="M164.934 68.9563C164.428 69.1813 164.26 69.8 164.485 70.25C164.653 70.5875 164.991 70.8125 165.328 70.8125C165.497 70.8125 165.609 70.7563 165.778 70.7C168.141 69.5188 172.528 70.1375 172.584 70.1937C173.091 70.25 173.597 69.9125 173.709 69.4063C173.766 68.9 173.428 68.3938 172.922 68.2813C172.697 68.2251 167.916 67.4938 164.934 68.9563Z" fill="#62392C"/>
<path d="M176.859 84.1997C176.353 84.3685 176.072 84.9309 176.297 85.4372C176.465 85.8309 176.803 86.056 177.197 86.056C177.309 86.056 177.422 86.0559 177.534 85.9997C179.278 85.3809 184.453 83.9748 187.096 85.2122C187.603 85.4372 188.165 85.2122 188.39 84.7622C188.615 84.256 188.39 83.6935 187.94 83.4685C184.003 81.6685 177.14 84.0872 176.859 84.1997Z" fill="#191446"/>
<path d="M140.354 95.1683C144.235 94.2121 152.729 90.1058 153.122 89.8808L152.279 88.1372C152.166 88.1935 143.616 92.3558 139.904 93.2558L140.354 95.1683Z" fill="#191446"/>
<path d="M165.879 100.473C169.503 99.9225 171.84 95.5172 171.098 90.6336C170.356 85.75 166.817 82.2375 163.192 82.7881C159.568 83.3387 157.231 87.7439 157.973 92.6275C158.715 97.5111 162.255 101.024 165.879 100.473Z" fill="white"/>
<path d="M163.134 82.2311C159.253 82.8499 156.722 87.5185 157.509 92.6372C157.903 95.1121 158.972 97.3057 160.547 98.8807C161.897 100.231 163.528 100.962 165.159 100.962C165.44 100.962 165.722 100.962 166.003 100.906C167.915 100.624 169.547 99.3307 170.615 97.362C171.628 95.3933 172.022 92.9746 171.628 90.4997C170.84 85.3248 167.015 81.6687 163.134 82.2311ZM169.715 96.912C168.815 98.6557 167.409 99.7245 165.834 99.9495C164.259 100.175 162.572 99.5557 161.222 98.2058C159.816 96.7995 158.803 94.7747 158.466 92.5247C157.791 87.9123 159.928 83.7499 163.303 83.2437C163.528 83.1874 163.753 83.1874 163.978 83.1874C167.072 83.1874 169.997 86.3936 170.672 90.6685C171.009 92.9184 170.672 95.112 169.715 96.912Z" fill="white"/>
<path d="M197.784 78.7438C194.69 79.1938 192.721 83.0749 193.34 87.3498C193.959 91.6247 196.996 94.7184 200.09 94.2684C203.184 93.8184 205.152 89.9372 204.534 85.6623C203.915 81.3312 200.878 78.2376 197.784 78.7438Z" fill="white"/>
<path d="M197.727 78.2374C194.352 78.7437 192.215 82.8499 192.89 87.406C193.227 89.5997 194.127 91.5122 195.477 92.9184C196.659 94.1559 198.065 94.7747 199.471 94.7747C199.696 94.7747 199.921 94.7746 200.202 94.7184C201.834 94.4934 203.24 93.3684 204.196 91.5684C205.096 89.8809 205.377 87.7435 205.04 85.5498C204.365 80.9936 201.046 77.7312 197.727 78.2374ZM203.352 91.1185C202.565 92.581 201.44 93.5371 200.09 93.7059C198.74 93.9309 197.39 93.3684 196.209 92.1872C194.971 90.9497 194.184 89.206 193.846 87.2373C193.227 83.2436 195.027 79.5874 197.84 79.1936C198.009 79.1374 198.234 79.1375 198.402 79.1375C201.046 79.1375 203.521 81.9498 204.084 85.6623C204.421 87.6872 204.14 89.5998 203.352 91.1185Z" fill="white"/>
<path d="M160.772 85.2684C158.522 85.6059 157.172 88.7559 157.678 92.2433C158.241 95.787 160.435 98.3182 162.685 97.9807C164.934 97.6432 166.284 94.4932 165.778 91.0057C165.216 87.5183 163.022 84.9309 160.772 85.2684Z" fill="#191446"/>
<path d="M160.716 84.7623C159.478 84.931 158.41 85.8872 157.791 87.3497C157.172 88.7559 157.003 90.4996 157.285 92.2996C157.847 95.8995 159.985 98.4869 162.347 98.4869C162.516 98.4869 162.685 98.487 162.853 98.4308C164.091 98.262 165.159 97.3057 165.778 95.8433C166.397 94.4371 166.566 92.6933 166.284 90.8934C166.003 89.0934 165.328 87.4623 164.316 86.3373C163.247 85.1561 161.953 84.5935 160.716 84.7623ZM164.822 95.5057C164.316 96.687 163.528 97.362 162.628 97.5307C160.603 97.812 158.691 95.4495 158.185 92.1871C157.96 90.5559 158.128 88.981 158.635 87.7435C159.141 86.5623 159.928 85.8872 160.828 85.7185C160.941 85.7185 161.053 85.7185 161.166 85.7185C161.953 85.7185 162.797 86.1685 163.528 87.0122C164.428 88.0247 165.047 89.4872 165.272 91.1184C165.553 92.6934 165.385 94.2683 164.822 95.5057Z" fill="#191446"/>
<path d="M195.872 81.6123C194.015 81.8935 192.834 84.4248 193.284 87.2935C193.734 90.1622 195.59 92.2434 197.447 91.9621C199.303 91.6809 200.484 89.1497 200.034 86.281C199.584 83.4685 197.728 81.331 195.872 81.6123Z" fill="#191446"/>
<path d="M195.815 81.1623C194.747 81.3311 193.847 82.1186 193.284 83.2998C192.778 84.4811 192.609 85.9435 192.834 87.406C193.059 88.8685 193.678 90.2184 194.522 91.1747C195.309 92.0746 196.209 92.5247 197.165 92.5247C197.278 92.5247 197.446 92.5247 197.559 92.4684C198.628 92.2997 199.528 91.5122 200.09 90.3309C200.596 89.1497 200.765 87.6872 200.54 86.2247C200.315 84.7623 199.696 83.4123 198.853 82.4561C197.953 81.4436 196.828 80.9936 195.815 81.1623ZM199.19 89.9372C198.796 90.8372 198.121 91.4559 197.39 91.5684C196.659 91.6809 195.872 91.3435 195.197 90.556C194.465 89.7685 193.959 88.5873 193.79 87.2935C193.565 85.9998 193.734 84.7623 194.184 83.7498C194.634 82.8499 195.253 82.2312 195.984 82.1187C196.097 82.1187 196.153 82.1187 196.265 82.1187C196.94 82.1187 197.615 82.4561 198.178 83.1311C198.909 83.9185 199.415 85.0998 199.584 86.3935C199.753 87.6872 199.64 88.9247 199.19 89.9372Z" fill="#191446"/>
<path d="M164.541 90.331C164.541 91.0622 165.103 91.6247 165.835 91.6247C166.566 91.6247 167.128 91.0622 167.128 90.331C167.128 89.5997 166.566 89.0372 165.835 89.0372C165.103 89.0372 164.541 89.656 164.541 90.331Z" fill="white"/>
<path d="M164.091 90.3309C164.091 91.2872 164.878 92.1309 165.891 92.1309C166.903 92.1309 167.691 91.3434 167.691 90.3309C167.691 89.3185 166.903 88.531 165.891 88.531C164.878 88.531 164.091 89.3747 164.091 90.3309ZM166.678 90.3309C166.678 90.7809 166.341 91.1185 165.891 91.1185C165.441 91.1185 165.103 90.7809 165.103 90.3309C165.103 89.8809 165.441 89.5435 165.891 89.5435C166.341 89.5435 166.678 89.8809 166.678 90.3309Z" fill="white"/>
<path d="M198.965 85.6061C198.965 86.2811 199.528 86.8435 200.203 86.8435C200.878 86.8435 201.44 86.2811 201.44 85.6061C201.44 84.9311 200.878 84.3687 200.203 84.3687C199.528 84.3687 198.965 84.9311 198.965 85.6061Z" fill="white"/>
<path d="M198.515 85.606C198.515 86.5623 199.303 87.2935 200.203 87.2935C201.159 87.2935 201.89 86.506 201.89 85.606C201.89 84.6498 201.103 83.9186 200.203 83.9186C199.246 83.9186 198.515 84.6498 198.515 85.606ZM200.934 85.606C200.934 85.9998 200.596 86.3373 200.203 86.3373C199.809 86.3373 199.471 85.9998 199.471 85.606C199.471 85.2123 199.809 84.8748 200.203 84.8748C200.596 84.8748 200.934 85.2123 200.934 85.606Z" fill="white"/>
<path d="M239.746 102.087C236.764 95.6746 234.008 93.4809 232.096 92.8059C234.008 100.343 233.446 119.524 233.446 119.524C233.446 119.524 233.896 100.512 230.521 92.5246C229.846 92.5246 229.508 92.7496 229.508 92.7496C228.552 90.5559 221.24 82.2873 215.671 82.6248C212.071 82.8498 211.284 85.3247 211.227 87.1247C229.227 84.1435 226.358 121.718 226.358 121.718C226.358 121.718 229.002 86.1685 211.284 88.5309C211.284 88.6997 211.34 88.8685 211.34 88.8685C207.684 91.4559 209.09 95.5057 210.271 97.7557C222.083 95.1682 216.571 121.324 216.571 121.324C216.571 121.324 220.227 96.462 210.89 98.7682C211.171 99.2182 211.34 99.4431 211.34 99.4431C204.196 101.918 207.628 109.118 204.478 115.812C201.384 122.505 169.716 131.561 160.828 145.23C151.885 158.954 167.072 188.035 167.072 188.035L217.415 179.204C217.415 179.204 214.602 166.098 214.49 160.811C214.377 155.523 222.365 150.686 230.183 140.392C237.889 130.155 240.814 104.449 239.746 102.087Z" fill="#F9C09D"/>
<path d="M214.715 99.219C214.658 99.1617 214.658 99.1617 214.715 99.219C214.658 99.1617 214.658 99.219 214.715 99.219Z" fill="#F9C09D"/>
<path d="M230.464 140.73C238.227 130.493 241.489 104.731 240.195 101.918C237.72 96.5745 235.021 93.3682 232.264 92.412C232.096 92.3558 231.927 92.4121 231.758 92.5246C231.646 92.6371 231.589 92.8058 231.589 93.0308C231.871 94.212 232.096 95.6746 232.321 97.3058C231.927 95.5058 231.477 93.8183 230.914 92.4683C230.858 92.2996 230.633 92.1871 230.464 92.1871C230.127 92.1871 229.902 92.2433 229.677 92.2995C228.158 89.6559 221.408 82.2872 215.896 82.2872C215.783 82.2872 215.671 82.2872 215.558 82.2872C211.509 82.5122 210.721 85.4934 210.609 87.2372C210.609 87.4059 210.665 87.5184 210.777 87.6309C210.89 87.7434 211.059 87.7435 211.171 87.7435C214.265 87.2372 216.965 87.9684 219.102 89.9371C219.721 90.4996 220.227 91.1184 220.733 91.7934C220.452 91.4559 220.171 91.1747 219.833 90.8372C217.471 88.5872 214.49 87.6871 211.059 88.1934C210.946 88.1934 210.834 88.3059 210.721 88.3621C210.665 88.4746 210.609 88.5872 210.609 88.6997C210.609 88.6997 210.609 88.6996 210.609 88.7558C206.952 91.5683 208.415 95.787 209.652 98.0932C209.765 98.2619 209.99 98.3744 210.159 98.3181C212.015 97.9244 213.421 98.2058 214.546 99.2745C214.546 99.2745 214.49 99.2744 214.49 99.2182C213.421 98.2619 212.071 97.9807 210.496 98.3744C210.327 98.4307 210.215 98.5432 210.159 98.6557C210.102 98.8244 210.102 98.9932 210.215 99.1057C210.271 99.162 210.271 99.2182 210.327 99.2745C206.109 101.018 205.771 104.618 205.377 108.387C205.152 110.749 204.927 113.224 203.802 115.643C202.565 118.343 195.984 121.661 188.39 125.486C178.097 130.661 165.328 137.074 160.153 145.061C156.385 150.855 156.272 159.911 159.872 172.004C162.516 180.948 166.341 188.26 166.397 188.316C166.509 188.485 166.622 188.597 166.847 188.597C166.903 188.597 166.903 188.597 166.903 188.597L217.246 179.766C217.358 179.766 217.471 179.654 217.583 179.541C217.64 179.429 217.696 179.317 217.64 179.148C217.64 179.035 214.827 166.042 214.771 160.867C214.715 157.829 217.583 154.848 221.577 150.686C224.389 147.873 227.427 144.723 230.464 140.73ZM213.927 160.811C214.04 165.592 216.233 176.335 216.74 178.81L167.241 187.472C165.666 184.266 152.954 158.054 161.166 145.511C166.228 137.749 178.884 131.393 189.009 126.274C197.053 122.224 203.465 119.018 204.871 115.98C206.052 113.393 206.334 110.749 206.559 108.387C206.952 104.449 207.234 101.356 211.452 99.8931C211.621 99.8369 211.734 99.7245 211.734 99.5557C211.79 99.387 211.734 99.2182 211.677 99.1057C212.634 98.9932 213.421 99.2744 214.096 99.8931C218.54 103.943 216.065 121.043 216.065 121.212C216.008 121.493 216.177 121.718 216.458 121.774C216.74 121.83 216.965 121.661 217.021 121.38C217.19 120.649 220.677 103.662 215.502 98.4869C214.208 97.2494 212.577 96.7433 210.552 97.137C209.315 94.6621 208.584 91.3433 211.621 89.2059C211.734 89.1496 211.79 89.0371 211.79 88.9246C214.715 88.6434 217.246 89.4872 219.327 91.3996C227.427 98.9932 225.908 121.268 225.908 121.661C225.908 121.943 226.077 122.168 226.358 122.168C226.639 122.224 226.864 121.999 226.864 121.718C226.921 120.705 228.664 97.0244 219.89 89.0371C217.64 87.0121 214.94 86.1684 211.79 86.5059C212.071 84.3684 213.421 83.1873 215.727 83.0748C221.127 82.7936 228.271 90.8934 229.114 92.9183C229.171 93.0308 229.283 93.1433 229.396 93.1996C229.508 93.2558 229.677 93.2558 229.789 93.1996C229.789 93.1996 229.958 93.0871 230.296 93.0871C233.446 101.074 233.052 119.355 233.052 119.58C233.052 119.861 233.277 120.087 233.502 120.087C233.783 120.087 234.008 119.862 234.008 119.637C234.008 118.905 234.514 101.749 232.883 93.7621C234.571 94.7183 236.877 97.0245 239.408 102.368C240.42 104.562 237.495 129.986 229.789 140.167C226.752 144.161 223.771 147.255 221.127 150.011C216.852 154.286 213.871 157.379 213.927 160.811Z" fill="#F9C09D"/>
<path d="M210.159 97.7557C210.384 98.1495 210.609 98.487 210.777 98.7682C220.115 96.462 216.459 121.324 216.459 121.324C216.459 121.324 221.971 95.1683 210.159 97.7557Z" fill="#DA6249"/>
<path d="M214.716 99.219C214.659 99.1617 214.659 99.1617 214.716 99.219C214.659 99.1617 214.659 99.219 214.716 99.219Z" fill="#DA6249"/>
<path d="M216.346 121.83C216.402 121.83 216.402 121.83 216.459 121.83C216.684 121.83 216.909 121.661 216.909 121.436C217.077 120.705 220.565 103.718 215.39 98.5432C214.04 97.1932 212.24 96.7995 210.046 97.2494C209.877 97.3057 209.765 97.3619 209.709 97.5307C209.652 97.6432 209.652 97.812 209.709 97.9807C209.934 98.3744 210.159 98.7681 210.327 99.0494C210.44 99.2181 210.665 99.3307 210.834 99.2745C212.071 98.937 213.14 99.1619 213.984 99.9494C218.427 103.999 215.952 121.099 215.952 121.268C215.952 121.493 216.121 121.774 216.346 121.83ZM214.659 99.1619C213.871 98.4869 212.971 98.1495 211.959 98.1495C211.677 98.1495 211.34 98.2057 211.002 98.262C211.002 98.2057 210.946 98.2057 210.946 98.1495C212.465 97.9245 213.702 98.2619 214.659 99.1619C214.715 99.2181 214.659 99.2181 214.659 99.1619Z" fill="#DA6249"/>
<path d="M211.115 87.1246C211.058 87.7434 211.115 88.2496 211.171 88.5309C228.889 86.1684 226.246 121.718 226.246 121.718C226.246 121.718 229.114 84.1434 211.115 87.1246Z" fill="#DA6249"/>
<path d="M225.796 121.661C225.796 121.943 225.964 122.168 226.246 122.168C226.246 122.168 226.246 122.168 226.302 122.168C226.527 122.168 226.752 121.999 226.808 121.718C226.864 120.705 228.608 97.0244 219.833 89.0371C217.471 86.8434 214.546 86.056 211.115 86.6185C210.89 86.6748 210.721 86.8434 210.721 87.0684C210.665 87.7434 210.721 88.306 210.777 88.5872C210.834 88.8685 211.059 89.0372 211.34 88.9809C214.49 88.531 217.19 89.3747 219.327 91.3997C227.314 99.0495 225.796 121.324 225.796 121.661ZM219.89 90.7246C217.921 88.8684 215.558 87.9121 212.859 87.9121C212.465 87.9121 212.071 87.9122 211.621 87.9684C211.621 87.8559 211.621 87.6872 211.621 87.5184C214.546 87.1247 217.077 87.8559 219.158 89.7684C219.777 90.3309 220.283 90.9496 220.79 91.6246C220.508 91.3434 220.227 91.0058 219.89 90.7246Z" fill="#DA6249"/>
<path d="M232.096 92.8058C231.477 92.5808 230.914 92.5245 230.464 92.5245C233.839 100.512 233.389 119.524 233.389 119.524C233.389 119.524 234.008 100.343 232.096 92.8058Z" fill="#DA6249"/>
<path d="M233.446 120.03C233.727 120.03 233.952 119.805 233.952 119.58C233.952 118.793 234.514 100.231 232.602 92.6933C232.546 92.5245 232.433 92.4121 232.321 92.3559C231.702 92.1309 231.083 92.0184 230.521 92.0746C230.352 92.0746 230.239 92.1871 230.127 92.2996C230.014 92.4121 230.014 92.5808 230.071 92.7496C233.389 100.512 232.996 119.355 232.996 119.58C232.939 119.805 233.164 120.03 233.446 120.03ZM231.252 93.0871C231.421 93.1434 231.589 93.1434 231.702 93.1996C231.983 94.3246 232.208 95.6745 232.377 97.1932C232.039 95.6745 231.646 94.2684 231.252 93.0871Z" fill="#DA6249"/>
<path d="M161.56 186.573C159.816 188.766 167.804 220.435 171.347 217.96C174.891 215.485 225.571 203.447 225.571 203.447C225.571 203.447 223.096 178.135 221.015 176.448C218.878 174.704 177.535 166.548 161.56 186.573Z" fill="#504566"/>
<path d="M196.49 172.848C185.072 173.073 169.716 175.604 161.222 186.235C159.31 188.654 166.06 214.022 169.604 217.791C170.11 218.353 170.56 218.522 170.954 218.522C171.235 218.522 171.516 218.409 171.629 218.297C174.385 216.385 208.19 208.003 225.684 203.841C225.909 203.785 226.077 203.56 226.077 203.335C225.684 199.06 223.434 177.685 221.352 175.998C219.946 174.985 208.696 172.623 196.49 172.848ZM225.009 202.997C219.834 204.235 174.497 215.091 171.066 217.51C171.01 217.566 170.841 217.678 170.335 217.172C166.229 212.953 160.941 188.204 161.954 186.854C170.222 176.504 185.691 173.748 198.684 173.748C210.103 173.748 219.609 175.829 220.677 176.729C222.027 177.854 223.996 193.266 225.009 202.997Z" fill="#504566"/>
<path d="M111.274 269.765C105.649 246.365 82.3054 156.367 57.7247 167.223C29.4878 179.71 23.6379 317.801 46.9249 338.669C65.7683 355.544 162.516 351.607 205.434 339.851C181.753 325.62 171.572 276.683 168.085 266.783C152.729 266.952 127.811 268.415 112.511 275.221C112.511 275.221 112.455 274.883 112.286 274.208C107.786 276.008 98.1676 279.777 90.0677 288.27C90.4615 285.346 101.88 267.458 111.274 269.765Z" fill="#FCD375"/>
<path d="M103.174 272.408C106.099 270.383 108.798 269.652 111.161 270.271C111.33 270.327 111.498 270.271 111.611 270.158C111.723 270.046 111.78 269.877 111.723 269.708C106.605 248.334 88.2114 177.685 67.1181 167.223C63.8557 165.592 60.5933 165.479 57.4996 166.829C44.7873 172.454 38.4312 201.085 35.8438 217.678C28.4752 263.858 31.5126 325.563 46.5873 339.063C55.6434 347.219 82.474 350.594 112.68 350.594C145.754 350.594 182.991 346.544 205.603 340.357C205.771 340.3 205.94 340.132 205.94 339.963C205.94 339.794 205.884 339.569 205.715 339.457C185.859 327.532 175.622 291.251 170.728 273.814C169.828 270.664 169.153 268.19 168.591 266.671C168.535 266.502 168.366 266.333 168.141 266.333C154.191 266.502 128.598 267.796 112.905 274.602L112.792 274.152C112.736 274.039 112.68 273.871 112.567 273.814C112.455 273.758 112.286 273.758 112.173 273.814L111.948 273.927C107.673 275.614 99.0674 279.046 91.4176 286.358C93.2175 282.758 97.8862 276.008 103.174 272.408ZM89.6176 288.27C89.6176 288.495 89.6739 288.664 89.8989 288.777C90.0676 288.889 90.2926 288.833 90.4614 288.664C98.1674 280.564 107.336 276.796 111.948 274.939L112.061 275.389C112.117 275.558 112.173 275.671 112.342 275.727C112.455 275.783 112.623 275.783 112.736 275.727C128.092 268.865 153.685 267.515 167.747 267.346C168.253 268.864 168.928 271.227 169.716 274.152C174.61 291.42 184.622 327.138 204.196 339.794C182.934 345.475 148.904 349.3 117.067 349.638C81.0116 350.032 55.5309 345.925 47.1498 338.444C40.2874 332.313 35.5063 315.27 33.6501 290.464C31.9626 267.627 33.0876 240.515 36.6875 217.959C41.1312 190.06 48.8373 171.779 57.7808 167.842C59.0745 167.279 60.4245 166.998 61.7182 166.998C63.2932 166.998 64.9244 167.392 66.5556 168.235C87.0302 178.36 105.142 247.209 110.486 269.314C108.067 268.977 105.367 269.764 102.499 271.733C95.9737 276.121 89.9551 285.852 89.6176 288.27Z" fill="#FCD375"/>
<path d="M168.084 266.783C171.516 276.683 181.697 325.676 205.434 339.85C215.502 337.094 222.646 333.888 225.121 330.401C238.002 312.176 181.528 266.896 181.528 266.896C181.528 266.896 176.128 266.727 168.084 266.783Z" fill="#E8AE37"/>
<path d="M181.809 266.558C181.753 266.502 181.64 266.446 181.528 266.446C181.472 266.446 176.016 266.221 168.141 266.277C167.972 266.277 167.859 266.333 167.747 266.502C167.634 266.615 167.635 266.783 167.691 266.952C168.197 268.471 168.928 270.946 169.772 274.039C174.722 291.589 185.015 328.151 205.209 340.244C205.265 340.301 205.377 340.301 205.434 340.301C205.49 340.301 205.546 340.301 205.546 340.301C216.346 337.319 223.04 334.113 225.458 330.682C230.971 322.92 225.233 309.701 208.471 291.477C196.096 278.089 181.922 266.671 181.809 266.558ZM224.727 330.176C222.477 333.326 215.84 336.532 205.546 339.344C185.803 327.307 175.622 291.195 170.728 273.814C169.941 271.058 169.322 268.808 168.816 267.29C175.622 267.233 180.403 267.402 181.359 267.458C184.228 269.821 236.877 312.907 224.727 330.176Z" fill="#E8AE37"/>
<path d="M90.124 288.327C98.1676 279.833 107.842 276.064 112.342 274.264C112.117 273.364 111.78 271.846 111.274 269.765C101.88 267.458 90.4615 285.345 90.124 288.327Z" fill="#E8AE37"/>
<path d="M111.386 269.315C108.742 268.64 105.817 269.427 102.611 271.621C95.9738 276.121 89.8989 285.852 89.6177 288.27C89.6177 288.495 89.6739 288.664 89.8989 288.777C89.9552 288.833 90.0114 288.833 90.1239 288.833C90.2364 288.833 90.4052 288.777 90.4614 288.664C98.3362 280.339 107.73 276.627 112.286 274.827L112.511 274.714C112.736 274.602 112.848 274.377 112.792 274.152C112.567 273.252 112.23 271.677 111.723 269.652C111.667 269.483 111.555 269.371 111.386 269.315ZM91.4176 286.358C93.2738 282.758 97.9425 276.008 103.174 272.408C105.48 270.833 107.617 270.046 109.53 270.046C109.98 270.046 110.43 270.102 110.88 270.158C111.273 271.789 111.555 273.083 111.78 273.927C107.392 275.671 98.955 279.102 91.4176 286.358Z" fill="#E8AE37"/>
<path d="M267.645 291.983C267.645 291.983 267.533 297.27 255.833 294.964C245.877 293.052 232.096 230.615 228.102 211.659C223.884 233.147 204.028 343.619 239.971 338.501C279.739 332.819 287.839 287.652 288.682 257.334C289.526 227.016 288.289 165.142 264.608 157.886C244.808 151.867 233.165 190.904 229.846 203.897C237.44 203.447 254.989 227.972 258.589 233.878C262.752 240.74 263.314 251.259 263.314 251.259C265.733 261.777 269.277 292.77 267.645 291.983Z" fill="#FCD375"/>
<path d="M267.42 291.589C267.308 291.645 267.195 291.814 267.195 291.983C267.195 292.039 267.139 292.995 266.07 293.783C264.833 294.795 262.077 295.695 255.946 294.514C248.296 293.052 236.821 250.696 228.609 211.603C228.552 211.378 228.384 211.21 228.159 211.21C227.877 211.21 227.709 211.378 227.709 211.603C224.39 228.647 208.697 314.82 227.765 334.901C230.465 337.769 233.84 339.232 237.665 339.232C238.452 339.232 239.24 339.176 240.083 339.063C281.033 333.213 288.401 285.402 289.189 257.446C291.382 177.685 274.789 160.586 264.777 157.548C260.895 156.367 257.071 156.817 253.414 158.898C240.196 166.323 232.265 192.873 229.452 203.897C229.396 204.066 229.452 204.178 229.565 204.347C229.677 204.46 229.79 204.516 229.959 204.516C230.015 204.516 230.071 204.516 230.127 204.516C237.158 204.516 253.808 227.016 258.196 234.272C262.245 240.965 262.864 251.315 262.864 251.54C265.339 262.002 268.32 289.058 267.533 291.645C267.477 291.533 267.42 291.533 267.42 291.589ZM263.764 251.315C263.764 250.865 263.145 240.572 258.983 233.709C256.733 229.941 239.127 204.347 230.465 203.56C233.39 192.31 241.152 166.886 253.808 159.742C257.239 157.83 260.783 157.379 264.439 158.504C288.12 165.704 288.964 230.109 288.176 257.446C287.445 285.121 280.133 332.37 239.915 338.107C235.302 338.782 231.477 337.488 228.44 334.282C210.44 315.326 224.109 235.565 228.159 214.191C233.615 239.84 246.158 293.614 255.777 295.47C261.008 296.483 264.72 296.202 266.745 294.514C267.702 293.727 268.039 292.827 268.152 292.32C269.951 290.858 265.508 258.627 263.764 251.315Z" fill="#FCD375"/>
<path d="M229.846 203.954C229.171 206.485 228.89 208.06 228.89 208.06C228.89 208.06 228.609 209.353 228.159 211.66C232.152 230.615 245.933 292.995 255.889 294.964C267.589 297.214 267.702 291.983 267.702 291.983C269.333 292.77 265.789 261.777 263.314 251.315C263.314 251.315 262.752 240.796 258.589 233.934C254.989 228.028 237.44 203.504 229.846 203.954Z" fill="#E8AE37"/>
<path d="M230.015 203.503C229.959 203.503 229.846 203.503 229.79 203.503C229.565 203.503 229.396 203.672 229.34 203.841C228.721 206.372 228.384 208.003 228.327 208.003C228.327 208.003 228.046 209.297 227.596 211.603C227.596 211.66 227.596 211.716 227.596 211.772C232.715 236.297 245.765 293.502 255.721 295.414C257.746 295.808 259.489 295.977 261.064 295.977C263.539 295.977 265.452 295.47 266.689 294.458C267.645 293.67 267.983 292.77 268.095 292.264C269.839 290.802 265.789 259.64 263.764 251.202C263.764 250.752 263.145 240.459 258.983 233.597C256.621 229.884 238.508 203.503 230.015 203.503ZM267.477 291.533C267.477 291.533 267.42 291.533 267.42 291.589C267.308 291.645 267.195 291.814 267.195 291.983C267.195 292.039 267.139 292.995 266.07 293.783C264.833 294.795 262.077 295.695 255.946 294.514C248.296 293.052 236.821 250.809 228.609 211.716C229.059 209.466 229.34 208.228 229.34 208.228C229.34 208.228 229.621 206.766 230.24 204.46C237.383 204.797 253.808 227.015 258.139 234.159C262.189 240.853 262.808 251.203 262.808 251.428C265.283 261.89 268.208 288.945 267.477 291.533Z" fill="#E8AE37"/>
<path d="M198.909 202.997C183.947 206.71 168.141 214.359 163.922 223.359C161.11 229.265 169.828 278.596 194.353 311.107C218.877 343.619 240.027 340.919 253.358 334.676C266.632 328.432 269.557 316.395 266.632 283.152C263.707 249.909 236.314 212.109 231.983 206.316C227.708 200.466 213.871 199.229 198.909 202.997Z" fill="#FCD375"/>
<path d="M198.796 202.491C185.409 205.866 168.141 213.235 163.472 223.134C160.66 229.097 168.985 278.258 193.959 311.389C207.853 329.782 222.196 339.063 236.877 339.007C242.389 339.007 247.958 337.713 253.527 335.069C266.858 328.826 270.007 316.676 267.083 283.095C264.214 250.471 237.664 213.178 232.377 205.978C227.99 200.072 214.209 198.666 198.796 202.491ZM253.133 334.226C233.165 343.563 213.534 335.688 194.747 310.77C170.503 278.652 161.672 229.209 164.372 223.528C168.591 214.584 184.847 206.991 199.021 203.447C204.759 201.985 210.271 201.31 215.109 201.31C222.927 201.31 229.002 203.11 231.59 206.597C236.877 213.684 263.314 250.809 266.126 283.208C269.107 316.676 266.183 328.095 253.133 334.226Z" fill="#FCD375"/>
<path d="M122.298 158.561C121.904 164.185 133.942 211.491 135.798 214.416C137.654 217.341 137.879 208.791 143.504 195.741C149.129 182.635 157.904 188.204 157.904 188.204C157.904 188.204 132.985 155.129 131.973 148.042C131.973 148.042 122.692 152.936 122.298 158.561Z" fill="#504566"/>
<path d="M132.198 147.592C132.029 147.536 131.917 147.536 131.748 147.592C131.354 147.817 122.242 152.655 121.848 158.504C121.454 164.186 133.604 211.828 135.404 214.641C135.517 214.866 135.91 215.428 136.473 215.428C136.529 215.428 136.529 215.428 136.585 215.428C137.542 215.316 137.935 213.797 139.004 210.141C139.96 206.822 141.423 201.76 143.954 195.854C145.866 191.41 148.285 188.71 151.266 187.81C154.698 186.741 157.679 188.541 157.679 188.598C157.847 188.71 158.129 188.71 158.297 188.541C158.466 188.373 158.466 188.091 158.354 187.923C158.129 187.585 133.492 154.848 132.479 147.986C132.423 147.817 132.311 147.705 132.198 147.592ZM150.929 186.91C147.723 187.923 145.023 190.791 142.998 195.516C140.467 201.479 139.004 206.541 138.048 209.916C137.373 212.166 136.81 214.303 136.473 214.528C136.473 214.528 136.36 214.472 136.192 214.191C134.392 211.378 122.354 164.242 122.748 158.673C123.086 154.173 129.611 150.011 131.579 148.886C133.604 156.198 151.604 180.723 156.385 187.079C155.091 186.573 153.123 186.235 150.929 186.91Z" fill="#504566"/>
<path d="M211.678 194.954C215.002 194.954 217.696 192.259 217.696 188.935C217.696 185.611 215.002 182.917 211.678 182.917C208.354 182.917 205.659 185.611 205.659 188.935C205.659 192.259 208.354 194.954 211.678 194.954Z" fill="#191446"/>
<path d="M205.153 188.935C205.153 192.535 208.078 195.46 211.678 195.46C215.278 195.46 218.203 192.535 218.203 188.935C218.203 185.335 215.278 182.41 211.678 182.41C208.078 182.41 205.153 185.335 205.153 188.935ZM217.19 188.935C217.19 191.973 214.715 194.447 211.678 194.447C208.64 194.447 206.165 191.973 206.165 188.935C206.165 185.898 208.64 183.423 211.678 183.423C214.715 183.423 217.19 185.898 217.19 188.935Z" fill="#191446"/>
<path d="M211.959 193.097C215.283 193.097 217.978 190.403 217.978 187.079C217.978 183.755 215.283 181.06 211.959 181.06C208.635 181.06 205.94 183.755 205.94 187.079C205.94 190.403 208.635 193.097 211.959 193.097Z" fill="#C0C3D6"/>
<path d="M205.49 187.079C205.49 190.679 208.415 193.604 212.015 193.604C215.615 193.604 218.54 190.679 218.54 187.079C218.54 183.479 215.615 180.554 212.015 180.554C208.359 180.61 205.49 183.535 205.49 187.079ZM217.527 187.079C217.527 190.116 215.053 192.591 212.015 192.591C208.978 192.591 206.503 190.116 206.503 187.079C206.503 184.041 208.978 181.566 212.015 181.566C214.996 181.566 217.527 184.041 217.527 187.079Z" fill="#C0C3D6"/>
</g>
<defs>
<filter id="filter0_dd_3_12993" x="0" y="0" width="321.386" height="402.594" filterUnits="userSpaceOnUse" color-interpolation-filters="sRGB">
<feFlood flood-opacity="0" result="BackgroundImageFix"/>
<feColorMatrix in="SourceAlpha" type="matrix" values="0 0 0 0 0 0 0 0 0 0 0 0 0 0 0 0 0 0 127 0" result="hardAlpha"/>
<feMorphology radius="8" operator="erode" in="SourceAlpha" result="effect1_dropShadow_3_12993"/>
<feOffset dy="20"/>
<feGaussianBlur stdDeviation="20"/>
<feColorMatrix type="matrix" values="0 0 0 0 0.0627451 0 0 0 0 0.0941176 0 0 0 0 0.156863 0 0 0 0.1 0"/>
<feBlend mode="normal" in2="BackgroundImageFix" result="effect1_dropShadow_3_12993"/>
<feColorMatrix in="SourceAlpha" type="matrix" values="0 0 0 0 0 0 0 0 0 0 0 0 0 0 0 0 0 0 127 0" result="hardAlpha"/>
<feMorphology radius="8" operator="erode" in="SourceAlpha" result="effect2_dropShadow_3_12993"/>
<feOffset dy="20"/>
<feGaussianBlur stdDeviation="20"/>
<feColorMatrix type="matrix" values="0 0 0 0 0.0627451 0 0 0 0 0.0941176 0 0 0 0 0.156863 0 0 0 0.05 0"/>
<feBlend mode="normal" in2="effect1_dropShadow_3_12993" result="effect2_dropShadow_3_12993"/>
<feBlend mode="normal" in="SourceGraphic" in2="effect2_dropShadow_3_12993" result="shape"/>
</filter>
</defs>
</svg>
